<?xml version="1.0" encoding="UTF-8" standalone="no"?>
<!DOCTYPE svg PUBLIC "-//W3C//DTD SVG 1.1//EN" "http://www.w3.org/Graphics/SVG/1.1/DTD/svg11.dtd">
<svg width="100%" height="100%" viewBox="0 0 201 201" version="1.1" xmlns="http://www.w3.org/2000/svg" xmlns:xlink="http://www.w3.org/1999/xlink" xml:space="preserve" xmlns:serif="http://www.serif.com/" style="fill-rule:evenodd;clip-rule:evenodd;stroke-linecap:round;stroke-linejoin:round;stroke-miterlimit:1.5;">
    <g transform="matrix(1,0,0,1,-701,-545)">
        <g transform="matrix(0.678909,0,0,0.773693,694.421,-136.015)">
            <rect id="preschooler" x="10.234" y="880.819" width="294.59" height="258.5" style="fill:none;"/>
            <g id="preschooler1" serif:id="preschooler">
                <g id="head" transform="matrix(1.15269,0,0,1.15269,-27.1241,-148.454)">
                    <g transform="matrix(0.938875,0.0996142,-0.212173,1.5398,-187.446,770.438)">
                        <ellipse cx="321.148" cy="132.019" rx="32.86" ry="41.314" style="fill:rgb(160,27,225);stroke:black;stroke-width:2.7px;"/>
                    </g>
                    <g transform="matrix(-0.873761,0.317496,-0.67625,-1.43301,594.385,1083.11)">
                        <ellipse cx="321.148" cy="132.019" rx="32.86" ry="41.314" style="fill:rgb(160,27,225);stroke:black;stroke-width:2.7px;"/>
                    </g>
                    <g id="face" transform="matrix(1,0,0,1,1.44504,1.0218)">
                        <g transform="matrix(0.35988,0,0,0.36961,5.33077,827.895)">
                            <ellipse cx="158.113" cy="523.607" rx="61.566" ry="58.578" style="fill:rgb(191,132,93);stroke:black;stroke-width:9.79px;"/>
                        </g>
                        <g transform="matrix(0.35988,0,0,0.36961,190.518,809.751)">
                            <ellipse cx="158.113" cy="523.607" rx="61.566" ry="58.578" style="fill:rgb(191,132,93);stroke:black;stroke-width:9.79px;"/>
                        </g>
                        <g transform="matrix(1.47295,0,0,1.2925,-75.1848,336.344)">
                            <ellipse cx="158.113" cy="523.607" rx="61.566" ry="58.578" style="fill:rgb(191,132,93);stroke:black;stroke-width:2.6px;"/>
                        </g>
                    </g>
                    <g transform="matrix(1.45662,0.19192,-0.218714,1.27817,55.2374,829.215)">
                        <path d="M106.197,125.173C106.666,123.629 107.603,120.541 109.017,118.635C110.472,116.674 112.823,114.278 114.926,113.407C116.993,112.55 119.532,112.654 121.639,113.407C123.9,114.214 126.605,116.186 128.492,118.252C130.464,120.41 132.466,124.374 133.468,126.356" style="fill:none;stroke:black;stroke-width:2.6px;"/>
                    </g>
                    <g transform="matrix(-1.68249,0.214979,0.212243,1.27901,303.864,825.009)">
                        <path d="M106.197,125.173C106.666,123.629 107.603,120.541 109.017,118.635C110.472,116.674 112.823,114.278 114.926,113.407C116.993,112.55 119.532,112.654 121.639,113.407C123.9,114.214 126.605,116.186 128.492,118.252C130.464,120.41 132.466,124.374 133.468,126.356" style="fill:none;stroke:black;stroke-width:2.41px;"/>
                    </g>
                    <g transform="matrix(-1.62797,0.0785303,-0.0808502,-1.29055,370.133,1195.67)">
                        <path d="M106.197,125.173C106.666,123.629 107.603,120.541 109.017,118.635C110.472,116.674 112.823,114.278 114.926,113.407C116.993,112.55 119.532,112.654 121.639,113.407C123.9,114.214 126.605,116.186 128.492,118.252C130.464,120.41 132.466,124.374 133.468,126.356" style="fill:none;stroke:black;stroke-width:2.47px;"/>
                    </g>
                    <g transform="matrix(1.69283,0,0,1.48544,-988.834,857.876)">
                        <path d="M702.855,64.601C695.857,69.884 685.359,74.478 673.198,77.051C649.674,82.029 628.778,77.573 626.564,67.108C624.349,56.643 641.65,44.105 665.174,39.127C683.327,35.286 699.916,37.062 707.561,42.883C715.586,46.907 720.094,55.435 717.901,63.572C715.355,73.02 704.734,78.385 694.198,75.546C697.431,73.148 700.68,69.316 702.855,64.601Z" style="fill:rgb(160,27,225);stroke:black;stroke-width:2.26px;"/>
                    </g>
                </g>
            </g>
        </g>
    </g>
</svg>
