<?xml version="1.0" encoding="UTF-8" standalone="no"?>
<!DOCTYPE svg PUBLIC "-//W3C//DTD SVG 1.1//EN" "http://www.w3.org/Graphics/SVG/1.1/DTD/svg11.dtd">
<svg width="100%" height="100%" viewBox="0 0 201 201" version="1.1" xmlns="http://www.w3.org/2000/svg" xmlns:xlink="http://www.w3.org/1999/xlink" xml:space="preserve" xmlns:serif="http://www.serif.com/" style="fill-rule:evenodd;clip-rule:evenodd;stroke-linecap:round;stroke-linejoin:round;stroke-miterlimit:1.5;">
    <g transform="matrix(1,0,0,1,-657,-547)">
        <g transform="matrix(0.678909,0,0,0.773693,650.515,-133.987)">
            <rect id="toddler" x="10.234" y="880.819" width="294.59" height="258.5" style="fill:none;"/>
            <g id="toddler1" serif:id="toddler">
                <g id="head" transform="matrix(0.86835,0,0,0.86835,20.0343,143.961)">
                    <g id="face" transform="matrix(1,0,0,1,1.44504,1.0218)">
                        <g transform="matrix(0.35988,0,0,0.36961,5.33077,827.895)">
                            <ellipse cx="158.113" cy="523.607" rx="61.566" ry="58.578" style="fill:rgb(235,198,145);stroke:black;stroke-width:12.99px;"/>
                        </g>
                        <g transform="matrix(0.35988,0,0,0.36961,195.609,817.231)">
                            <ellipse cx="158.113" cy="523.607" rx="61.566" ry="58.578" style="fill:rgb(235,198,145);stroke:black;stroke-width:12.99px;"/>
                        </g>
                        <g transform="matrix(1.47295,0,0,1.2925,-75.1848,336.344)">
                            <ellipse cx="158.113" cy="523.607" rx="61.566" ry="58.578" style="fill:rgb(235,198,145);stroke:black;stroke-width:3.45px;"/>
                        </g>
                    </g>
                    <g transform="matrix(2.12367,0,0,1.86351,-51.377,812.811)">
                        <path d="M91.066,69.666C90.326,68.209 89.924,66.645 89.924,65.018C89.924,57.128 99.375,50.723 111.016,50.723C108.912,52.732 107.047,55.439 105.896,58.52C110.441,55.859 118.396,56.841 125.661,61.389C121.549,61.981 117.122,64.201 114.687,68.09C112.252,71.979 111.415,79.53 110.493,78.793C110.665,78.971 103.864,78.67 100.847,77.542C91.532,82.625 81.681,82.495 78.21,76.989C74.498,71.102 79.479,61.281 89.327,55.073C87.942,59.425 88.017,64.86 90.7,69.115C90.818,69.302 90.94,69.486 91.066,69.666Z" style="fill:rgb(160,27,225);stroke:black;stroke-width:2.4px;"/>
                    </g>
                    <g transform="matrix(1.45662,0.19192,-0.218714,1.27817,51.8517,830.7)">
                        <path d="M106.197,125.173C106.666,123.629 107.603,120.541 109.017,118.635C110.472,116.674 112.823,114.278 114.926,113.407C116.993,112.55 119.532,112.654 121.639,113.407C123.9,114.214 126.605,116.186 128.492,118.252C130.464,120.41 132.466,124.374 133.468,126.356" style="fill:none;stroke:black;stroke-width:3.45px;"/>
                    </g>
                    <g transform="matrix(-1.68249,0.214979,0.212243,1.27901,300.478,826.494)">
                        <path d="M106.197,125.173C106.666,123.629 107.603,120.541 109.017,118.635C110.472,116.674 112.823,114.278 114.926,113.407C116.993,112.55 119.532,112.654 121.639,113.407C123.9,114.214 126.605,116.186 128.492,118.252C130.464,120.41 132.466,124.374 133.468,126.356" style="fill:none;stroke:black;stroke-width:3.2px;"/>
                    </g>
                    <g transform="matrix(-1.62797,0.0785303,-0.0808502,-1.29055,366.748,1197.16)">
                        <path d="M106.197,125.173C106.666,123.629 107.603,120.541 109.017,118.635C110.472,116.674 112.823,114.278 114.926,113.407C116.993,112.55 119.532,112.654 121.639,113.407C123.9,114.214 126.605,116.186 128.492,118.252C130.464,120.41 132.466,124.374 133.468,126.356" style="fill:none;stroke:black;stroke-width:3.28px;"/>
                    </g>
                </g>
            </g>
        </g>
    </g>
</svg>
