<?xml version="1.0" encoding="iso-8859-1"?>
<!-- Generator: Adobe Illustrator 19.0.0, SVG Export Plug-In . SVG Version: 6.00 Build 0)  -->
<svg version="1.1" id="Layer_1" xmlns="http://www.w3.org/2000/svg" xmlns:xlink="http://www.w3.org/1999/xlink" x="0px" y="0px"
	 viewBox="0 0 512 512" style="enable-background:new 0 0 512 512;" xml:space="preserve">
<g>
	<g>
		<g>
			<path d="M121.27,190.248c-5.165-2.831-11.649-0.938-14.481,4.229l-0.214,0.388c-2.831,5.166-0.939,11.65,4.229,14.481
				c1.627,0.892,3.384,1.314,5.117,1.314c3.77,0,7.424-2.003,9.364-5.543l0.214-0.388
				C128.33,199.563,126.436,193.079,121.27,190.248z"/>
			<path d="M462.628,224.163c-16.774-65.288-63.804-119.561-127.263-144.923c-10.962-34.232-43.193-57.909-79.364-57.909
				c-37.096,0-68.595,24.372-79.359,57.94c-38.219,15.308-70.948,41.132-94.893,74.963c-15.127,21.374-26.033,45.002-32.419,69.932
				C21.787,226.223,0,249.274,0,277.333c0,28.075,21.809,51.138,49.374,53.172c23.687,91.991,107.344,160.163,206.627,160.163
				c99.281,0,182.938-68.172,206.624-160.163C490.19,328.471,512,305.408,512,277.331C512,249.259,490.192,226.199,462.628,224.163z
				 M21.335,277.331c0-14.719,9.993-27.148,23.549-30.864c-0.916,6.348-1.554,12.758-1.9,19.217
				c-0.006,0.09-0.009,0.178-0.014,0.268c-0.062,1.176-0.117,2.353-0.159,3.532c-0.017,0.447-0.026,0.894-0.038,1.341
				c-0.026,0.846-0.053,1.691-0.069,2.538c-0.023,1.323-0.037,2.646-0.037,3.969c0,1.615,0.025,3.229,0.063,4.845
				c0.011,0.506,0.025,1.01,0.041,1.514c0.034,1.175,0.08,2.35,0.134,3.524c0.022,0.498,0.042,0.997,0.067,1.496
				c0.078,1.466,0.172,2.93,0.279,4.394c0.051,0.688,0.111,1.372,0.167,2.058c0.073,0.868,0.149,1.737,0.232,2.604
				c0.073,0.764,0.148,1.529,0.229,2.29c0.094,0.892,0.201,1.783,0.306,2.673c0.139,1.166,0.288,2.329,0.445,3.488
				c0.09,0.664,0.173,1.327,0.269,1.987C31.335,304.494,21.335,292.058,21.335,277.331z M256.001,42.666
				c21.127,0,40.45,10.85,51.728,27.833c-0.212-0.002-0.425-0.003-0.638-0.003c-0.138,0-0.272,0.01-0.41,0.011
				c-0.053,0.002-0.107,0.001-0.161,0.004c-33.213,0.309-60.137,27.411-60.137,60.694c0,12.952,4.069,25.266,11.38,35.426
				c-0.587,0.016-1.176,0.025-1.762,0.025c-34.183,0-61.993-27.81-61.993-61.993C194.007,70.477,221.817,42.666,256.001,42.666z
				 M447.931,282.386c-0.006,0.26-0.021,0.518-0.029,0.778c-0.044,1.429-0.096,2.859-0.171,4.288
				c-0.013,0.255-0.033,0.51-0.048,0.765c-0.081,1.427-0.171,2.855-0.283,4.281c-0.022,0.288-0.053,0.574-0.077,0.862
				c-0.114,1.378-0.239,2.755-0.382,4.13c-0.039,0.383-0.089,0.764-0.131,1.146c-0.14,1.26-0.286,2.518-0.45,3.775
				c-0.069,0.526-0.147,1.049-0.221,1.573c-0.15,1.087-0.304,2.173-0.475,3.256c-0.111,0.705-0.231,1.405-0.35,2.108
				c-0.147,0.877-0.294,1.753-0.454,2.627c-0.162,0.889-0.335,1.773-0.51,2.656c-0.13,0.662-0.26,1.325-0.398,1.986
				c-18.179,87.091-95.545,152.716-187.953,152.716c-92.476,0-169.888-65.718-187.994-152.904c-0.164-0.79-0.315-1.585-0.468-2.379
				c-0.148-0.758-0.299-1.516-0.437-2.277c-0.196-1.078-0.375-2.161-0.553-3.243c-0.081-0.497-0.17-0.993-0.247-1.491
				c-0.212-1.37-0.406-2.742-0.59-4.117c-0.031-0.233-0.069-0.465-0.098-0.698c-0.21-1.619-0.402-3.243-0.571-4.867
				c0-0.007-0.002-0.016-0.002-0.023c-0.691-6.64-1.04-13.321-1.04-19.999c0-1.507,0.025-3.015,0.061-4.522
				c0.013-0.495,0.028-0.989,0.044-1.483c0.031-1.014,0.073-2.028,0.121-3.042c0.027-0.59,0.053-1.181,0.086-1.77
				c0.051-0.898,0.115-1.796,0.178-2.693c0.111-1.55,0.236-3.097,0.383-4.64c0.017-0.177,0.031-0.354,0.048-0.53
				c6.556-66.39,47.673-125.306,107.761-154.328c0,0.113-0.008,0.224-0.008,0.337c0,7.636,1.052,15.026,2.985,22.056
				c-19.146,10.195-35.959,23.779-50.052,40.48c-3.8,4.503-3.229,11.233,1.274,15.031c2.002,1.69,4.444,2.514,6.874,2.514
				c3.034,0,6.048-1.288,8.157-3.788c11.905-14.108,26.026-25.67,42.06-34.478c14.452,24.797,41.318,41.512,72.03,41.512
				c9.418,0,18.672-1.566,27.5-4.653c3.845-1.345,6.589-4.762,7.071-8.808c0.482-4.045-1.383-8.012-4.805-10.221
				c-11.302-7.301-18.05-19.675-18.05-33.102c0-21.271,16.957-38.644,38.063-39.341c70.854,18.957,123.549,76.248,138.148,146.074
				c0.241,1.155,0.476,2.312,0.695,3.472c0.114,0.606,0.219,1.216,0.33,1.824c0.17,0.949,0.337,1.9,0.493,2.852
				c0.094,0.57,0.183,1.141,0.272,1.713c0.165,1.071,0.323,2.143,0.469,3.217c0.062,0.447,0.126,0.894,0.185,1.342
				c0.406,3.118,0.737,6.248,0.992,9.384c0.029,0.359,0.052,0.721,0.079,1.082c0.092,1.206,0.171,2.414,0.24,3.622
				c0.026,0.469,0.051,0.94,0.074,1.41c0.058,1.15,0.101,2.301,0.137,3.451c0.015,0.445,0.031,0.89,0.043,1.334
				c0.038,1.564,0.062,3.128,0.062,4.69C447.998,279.018,447.975,280.703,447.931,282.386z M467.101,308.205
				c0.117-0.806,0.223-1.616,0.331-2.425c0.114-0.854,0.224-1.71,0.329-2.568c0.131-1.076,0.256-2.154,0.371-3.232
				c0.075-0.706,0.144-1.414,0.21-2.123c0.09-0.929,0.172-1.858,0.249-2.787c0.053-0.644,0.11-1.286,0.157-1.932
				c0.11-1.481,0.204-2.962,0.283-4.446c0.027-0.478,0.043-0.957,0.066-1.436c0.054-1.193,0.1-2.385,0.135-3.579
				c0.015-0.497,0.029-0.995,0.042-1.493c0.035-1.617,0.061-3.234,0.061-4.853c0-1.407-0.017-2.814-0.044-4.221
				c-0.011-0.511-0.028-1.021-0.042-1.532c-0.023-0.883-0.05-1.766-0.083-2.65c-0.025-0.628-0.057-1.256-0.085-1.883
				c-0.037-0.76-0.075-1.518-0.121-2.276c-0.039-0.682-0.082-1.362-0.129-2.042c-0.048-0.7-0.1-1.398-0.155-2.097
				c-0.055-0.709-0.11-1.419-0.173-2.126c-0.061-0.684-0.128-1.365-0.195-2.048c-0.068-0.703-0.134-1.407-0.209-2.11
				c-0.085-0.794-0.182-1.584-0.277-2.377c-0.105-0.881-0.212-1.76-0.328-2.638c-0.127-0.958-0.252-1.916-0.391-2.871
				c13.566,3.71,23.564,16.144,23.564,30.869C490.665,292.06,480.667,304.494,467.101,308.205z"/>
			<path d="M218.055,289.68c-4.99-18.62-21.936-31.625-41.213-31.625c-19.274,0-36.222,13.005-41.213,31.625
				c-1.525,5.691,1.852,11.54,7.542,13.065c5.692,1.523,11.54-1.852,13.065-7.542c2.496-9.311,10.969-15.814,20.605-15.814
				c9.637,0,18.11,6.503,20.605,15.814c1.277,4.765,5.588,7.908,10.297,7.908c0.913,0,1.843-0.118,2.768-0.366
				C216.204,301.22,219.58,295.371,218.055,289.68z"/>
			<path d="M335.161,258.055c-19.277,0-36.225,13.006-41.214,31.626c-1.524,5.691,1.853,11.54,7.544,13.064
				c5.689,1.526,11.539-1.853,13.063-7.543c2.495-9.31,10.968-15.813,20.606-15.813c9.637,0,18.11,6.503,20.605,15.814
				c1.277,4.765,5.586,7.908,10.297,7.908c0.913,0,1.843-0.118,2.768-0.366c5.691-1.525,9.067-7.375,7.542-13.065
				C371.382,271.061,354.436,258.055,335.161,258.055z"/>
			<path d="M289.672,364.521c-5.689-1.524-11.54,1.851-13.065,7.543c-2.496,9.311-10.969,15.814-20.605,15.814
				c-9.638,0-18.111-6.503-20.605-15.814c-1.525-5.691-7.374-9.068-13.065-7.543c-5.691,1.525-9.067,7.374-7.542,13.065
				c4.99,18.622,21.936,31.626,41.213,31.626c19.275,0,36.223-13.005,41.213-31.626
				C298.739,371.896,295.362,366.046,289.672,364.521z"/>
		</g>
	</g>
</g>
<g>
</g>
<g>
</g>
<g>
</g>
<g>
</g>
<g>
</g>
<g>
</g>
<g>
</g>
<g>
</g>
<g>
</g>
<g>
</g>
<g>
</g>
<g>
</g>
<g>
</g>
<g>
</g>
<g>
</g>
</svg>
