<?xml version="1.0" encoding="UTF-8" standalone="no"?>
<!DOCTYPE svg PUBLIC "-//W3C//DTD SVG 1.1//EN" "http://www.w3.org/Graphics/SVG/1.1/DTD/svg11.dtd">
<svg width="100%" height="100%" viewBox="0 0 300 300" version="1.1" xmlns="http://www.w3.org/2000/svg" xmlns:xlink="http://www.w3.org/1999/xlink" xml:space="preserve" xmlns:serif="http://www.serif.com/" style="fill-rule:evenodd;clip-rule:evenodd;stroke-linecap:round;stroke-linejoin:round;stroke-miterlimit:1.5;">
    <g transform="matrix(3.3819,-0.98453,0.98453,3.3819,25.3507,210.522)">
        <path d="M47.077,33.59L49.457,38.619L44.696,38.619L47.077,33.59Z" style="fill:none;stroke:rgb(245,145,19);stroke-opacity:0.18;stroke-width:0.57px;"/>
    </g>
    <g transform="matrix(4.25382,1.79619,-1.83583,4.34771,246.235,-177.74)">
        <path d="M15.107,42.556L17.196,46.733L13.019,46.733L15.107,42.556Z" style="fill:none;stroke:rgb(247,228,51);stroke-opacity:0.18;stroke-width:0.43px;"/>
    </g>
    <g transform="matrix(3.28558,2.07787,-2.07787,3.28558,-30.4038,-6.26875)">
        <path d="M76.745,24.56L78.923,28.915L74.567,28.915L76.745,24.56Z" style="fill:none;stroke:rgb(148,224,92);stroke-opacity:0.18;stroke-width:0.51px;"/>
    </g>
    <path d="M223.605,193.36C228.694,193.36 232.826,197.492 232.826,202.582C232.826,207.672 228.694,211.804 223.605,211.804C218.515,211.804 214.383,207.672 214.383,202.582C214.383,197.492 218.515,193.36 223.605,193.36ZM223.605,197.971C226.149,197.971 228.215,200.037 228.215,202.582C228.215,205.127 226.149,207.193 223.605,207.193C221.06,207.193 218.994,205.127 218.994,202.582C218.994,200.037 221.06,197.971 223.605,197.971Z" style="fill:none;stroke:rgb(35,129,29);stroke-opacity:0.18;stroke-width:2px;"/>
    <path d="M34.71,124.329C38.74,124.329 42.012,127.601 42.012,131.631C42.012,135.662 38.74,138.934 34.71,138.934C30.68,138.934 27.408,135.662 27.408,131.631C27.408,127.601 30.68,124.329 34.71,124.329ZM34.71,127.98C36.725,127.98 38.361,129.616 38.361,131.631C38.361,133.647 36.725,135.283 34.71,135.283C32.695,135.283 31.059,133.647 31.059,131.631C31.059,129.616 32.695,127.98 34.71,127.98Z" style="fill:none;stroke:rgb(128,192,242);stroke-opacity:0.18;stroke-width:2px;"/>
    <g transform="matrix(1,0,0,1,-34.7103,9.20756)">
        <path d="M34.71,124.329C38.74,124.329 42.012,127.601 42.012,131.631C42.012,135.662 38.74,138.934 34.71,138.934C30.68,138.934 27.408,135.662 27.408,131.631C27.408,127.601 30.68,124.329 34.71,124.329ZM34.71,127.98C36.725,127.98 38.361,129.616 38.361,131.631C38.361,133.647 36.725,135.283 34.71,135.283C32.695,135.283 31.059,133.647 31.059,131.631C31.059,129.616 32.695,127.98 34.71,127.98Z" style="fill:none;stroke:rgb(245,145,19);stroke-opacity:0.18;stroke-width:2px;"/>
    </g>
    <g transform="matrix(1,0,0,1,265.29,9.20756)">
        <path d="M34.71,124.329C38.74,124.329 42.012,127.601 42.012,131.631C42.012,135.662 38.74,138.934 34.71,138.934C30.68,138.934 27.408,135.662 27.408,131.631C27.408,127.601 30.68,124.329 34.71,124.329ZM34.71,127.98C36.725,127.98 38.361,129.616 38.361,131.631C38.361,133.647 36.725,135.283 34.71,135.283C32.695,135.283 31.059,133.647 31.059,131.631C31.059,129.616 32.695,127.98 34.71,127.98Z" style="fill:none;stroke:rgb(245,145,19);stroke-opacity:0.18;stroke-width:2px;"/>
    </g>
    <g transform="matrix(1,0,0,1,2,2)">
        <path d="M70.295,98.764C75.525,98.764 79.771,103.01 79.771,108.24C79.771,113.469 75.525,117.715 70.295,117.715C65.066,117.715 60.82,113.469 60.82,108.24C60.82,103.01 65.066,98.764 70.295,98.764ZM70.295,103.502C72.91,103.502 75.033,105.625 75.033,108.24C75.033,110.854 72.91,112.977 70.295,112.977C67.68,112.977 65.558,110.854 65.558,108.24C65.558,105.625 67.68,103.502 70.295,103.502Z" style="fill:none;stroke:rgb(247,228,51);stroke-opacity:0.18;stroke-width:2px;"/>
    </g>
    <path d="M189.579,229.956C195.216,229.956 199.792,234.533 199.792,240.17C199.792,245.806 195.216,250.383 189.579,250.383C183.942,250.383 179.366,245.806 179.366,240.17C179.366,234.533 183.942,229.956 189.579,229.956ZM189.579,235.063C192.397,235.063 194.685,237.351 194.685,240.17C194.685,242.988 192.397,245.276 189.579,245.276C186.76,245.276 184.472,242.988 184.472,240.17C184.472,237.351 186.76,235.063 189.579,235.063Z" style="fill:none;stroke:rgb(238,32,159);stroke-opacity:0.18;stroke-width:2px;"/>
    <g transform="matrix(1,0,0,1,-1,-1)">
        <path d="M69.975,248.723C75.012,248.723 79.102,252.812 79.102,257.85C79.102,262.887 75.012,266.976 69.975,266.976C64.938,266.976 60.848,262.887 60.848,257.85C60.848,252.812 64.938,248.723 69.975,248.723ZM69.975,253.286C72.494,253.286 74.538,255.331 74.538,257.85C74.538,260.368 72.494,262.413 69.975,262.413C67.456,262.413 65.412,260.368 65.412,257.85C65.412,255.331 67.456,253.286 69.975,253.286Z" style="fill:none;stroke:rgb(238,32,159);stroke-opacity:0.18;stroke-width:2px;"/>
    </g>
    <g transform="matrix(3.83195,-2.71536,2.71536,3.83195,-97.6183,313.069)">
        <path d="M74.875,15.949L76.047,18.292L73.704,18.292L74.875,15.949Z" style="fill:none;stroke:rgb(128,192,242);stroke-opacity:0.18;stroke-width:0.43px;"/>
    </g>
    <g transform="matrix(3.41989,0.916356,-0.916356,3.41989,53.5676,87.6643)">
        <path d="M22.812,31.452L23.869,33.424L26.232,33.74L24.522,35.275L24.926,37.442L22.812,36.419L20.698,37.442L21.101,35.275L19.391,33.74L21.755,33.424L22.812,31.452Z" style="fill:none;stroke:rgb(247,228,51);stroke-opacity:0.18;stroke-width:0.56px;"/>
    </g>
    <g transform="matrix(1.9091,-3.30665,3.30665,1.9091,100.628,55.6554)">
        <path d="M22.812,31.452L23.869,33.424L26.232,33.74L24.522,35.275L24.926,37.442L22.812,36.419L20.698,37.442L21.101,35.275L19.391,33.74L21.755,33.424L22.812,31.452Z" style="fill:none;stroke:rgb(216,48,29);stroke-opacity:0.18;stroke-width:0.52px;"/>
    </g>
    <g transform="matrix(1.55487,2.69311,-2.69311,1.55487,301.837,120.351)">
        <path d="M22.812,31.452L23.869,33.424L26.232,33.74L24.522,35.275L24.926,37.442L22.812,36.419L20.698,37.442L21.101,35.275L19.391,33.74L21.755,33.424L22.812,31.452Z" style="fill:none;stroke:rgb(245,145,19);stroke-opacity:0.18;stroke-width:0.64px;"/>
    </g>
    <g transform="matrix(-1.97346,-3.41813,3.41813,-1.97346,114.713,418.858)">
        <path d="M22.812,31.452L23.869,33.424L26.232,33.74L24.522,35.275L24.926,37.442L22.812,36.419L20.698,37.442L21.101,35.275L19.391,33.74L21.755,33.424L22.812,31.452Z" style="fill:none;stroke:rgb(35,129,29);stroke-opacity:0.18;stroke-width:0.51px;"/>
    </g>
    <g transform="matrix(-1.97346,-3.41813,3.41813,-1.97346,48.2845,446.578)">
        <path d="M22.812,31.452L23.869,33.424L26.232,33.74L24.522,35.275L24.926,37.442L22.812,36.419L20.698,37.442L21.101,35.275L19.391,33.74L21.755,33.424L22.812,31.452Z" style="fill:none;stroke:rgb(245,145,19);stroke-opacity:0.18;stroke-width:0.51px;"/>
    </g>
    <g transform="matrix(-1.97346,-3.41813,3.41813,-1.97346,48.2845,146.578)">
        <path d="M22.812,31.452L23.869,33.424L26.232,33.74L24.522,35.275L24.926,37.442L22.812,36.419L20.698,37.442L21.101,35.275L19.391,33.74L21.755,33.424L22.812,31.452Z" style="fill:none;stroke:rgb(245,145,19);stroke-opacity:0.18;stroke-width:0.51px;"/>
    </g>
    <g transform="matrix(-1.97346,-3.41813,3.41813,-1.97346,-68.8081,367.842)">
        <path d="M22.812,31.452L23.869,33.424L26.232,33.74L24.522,35.275L24.926,37.442L22.812,36.419L20.698,37.442L21.101,35.275L19.391,33.74L21.755,33.424L22.812,31.452Z" style="fill:none;stroke:rgb(235,198,145);stroke-opacity:0.18;stroke-width:0.51px;"/>
    </g>
    <g transform="matrix(-1.97346,-3.41813,3.41813,-1.97346,231.192,367.842)">
        <path d="M22.812,31.452L23.869,33.424L26.232,33.74L24.522,35.275L24.926,37.442L22.812,36.419L20.698,37.442L21.101,35.275L19.391,33.74L21.755,33.424L22.812,31.452Z" style="fill:none;stroke:rgb(235,198,145);stroke-opacity:0.18;stroke-width:0.51px;"/>
    </g>
    <g transform="matrix(1.83899,-3.18523,3.18523,1.83899,-55.7097,106.548)">
        <path d="M22.812,31.452L23.869,33.424L26.232,33.74L24.522,35.275L24.926,37.442L22.812,36.419L20.698,37.442L21.101,35.275L19.391,33.74L21.755,33.424L22.812,31.452Z" style="fill:none;stroke:rgb(35,129,29);stroke-opacity:0.18;stroke-width:0.54px;"/>
    </g>
    <g transform="matrix(-3.87326,2.23623,-2.23623,-3.87326,316.383,177.222)">
        <path d="M22.812,31.452L23.869,33.424L26.232,33.74L24.522,35.275L24.926,37.442L22.812,36.419L20.698,37.442L21.101,35.275L19.391,33.74L21.755,33.424L22.812,31.452Z" style="fill:none;stroke:rgb(235,198,145);stroke-opacity:0.18;stroke-width:0.45px;"/>
    </g>
    <g transform="matrix(-1.49679,0.864173,-0.864173,-1.49679,214.47,125.71)">
        <path d="M22.812,31.452L23.869,33.424L26.232,33.74L24.522,35.275L24.926,37.442L22.812,36.419L20.698,37.442L21.101,35.275L19.391,33.74L21.755,33.424L22.812,31.452Z" style="fill:none;stroke:rgb(247,228,51);stroke-opacity:0.18;stroke-width:1.16px;"/>
    </g>
    <g transform="matrix(2.53584,-2.53584,2.53584,2.53584,-94.8099,167.613)">
        <path d="M22.812,31.452L23.869,33.424L26.232,33.74L24.522,35.275L24.926,37.442L22.812,36.419L20.698,37.442L21.101,35.275L19.391,33.74L21.755,33.424L22.812,31.452Z" style="fill:none;stroke:rgb(160,27,225);stroke-opacity:0.18;stroke-width:0.56px;"/>
    </g>
    <g transform="matrix(4.47334,-1.43047,1.43047,4.47334,-37.6255,50.6372)">
        <path d="M41.65,10.64L42.941,13.221L40.36,13.221L41.65,10.64Z" style="fill:none;stroke:rgb(235,198,145);stroke-opacity:0.18;stroke-width:0.43px;"/>
    </g>
    <g transform="matrix(4.35749,1.75194,-1.75194,4.35749,11.3454,-33.4038)">
        <path d="M46.846,27.738L48.978,32.001L44.715,32.001L46.846,27.738Z" style="fill:none;stroke:rgb(216,48,29);stroke-opacity:0.18;stroke-width:0.43px;"/>
    </g>
    <g transform="matrix(4.69649,0,0,4.69649,-22.0479,86.4197)">
        <path d="M55.631,6.943L57.175,10.031L54.087,10.031L55.631,6.943Z" style="fill:none;stroke:rgb(247,228,51);stroke-opacity:0.18;stroke-width:0.43px;"/>
    </g>
    <g transform="matrix(4.30714,1.87232,-1.87232,4.30714,-7.52801,-48.1518)">
        <path d="M21.087,5.703L22.924,9.375L19.251,9.375L21.087,5.703Z" style="fill:none;stroke:rgb(245,145,19);stroke-opacity:0.18;stroke-width:0.43px;"/>
    </g>
    <g transform="matrix(3.8232,1.66195,-1.66195,3.8232,-56.0379,-36.9124)">
        <path d="M21.087,5.703L22.924,9.375L19.251,9.375L21.087,5.703Z" style="fill:none;stroke:rgb(148,224,92);stroke-opacity:0.18;stroke-width:0.48px;"/>
    </g>
    <g transform="matrix(3.85178,-2.68716,2.68716,3.85178,-61.8146,32.675)">
        <path d="M11.594,13.626L13.506,17.451L9.681,17.451L11.594,13.626Z" style="fill:none;stroke:rgb(216,48,29);stroke-opacity:0.18;stroke-width:0.43px;"/>
    </g>
    <g transform="matrix(3.34642,1.19883,-1.19883,3.34642,-24.6187,32.4656)">
        <rect x="21.618" y="28.775" width="3.823" height="3.823" style="fill:none;stroke:rgb(160,27,225);stroke-opacity:0.18;stroke-width:0.56px;"/>
    </g>
    <g transform="matrix(2.47797,-2.60131,2.60131,2.47797,71.1145,122.942)">
        <rect x="21.618" y="28.775" width="3.823" height="3.823" style="fill:none;stroke:rgb(235,198,145);stroke-opacity:0.18;stroke-width:0.56px;"/>
    </g>
    <g transform="matrix(1.15524,3.16095,-3.16095,1.15524,153.873,57.8303)">
        <rect x="21.618" y="28.775" width="3.823" height="3.823" style="fill:none;stroke:rgb(247,228,51);stroke-opacity:0.18;stroke-width:0.59px;"/>
    </g>
    <g transform="matrix(3.06054,1.09641,-1.09641,3.06054,96.6903,-92.4226)">
        <rect x="21.618" y="28.775" width="3.823" height="3.823" style="fill:none;stroke:rgb(216,48,29);stroke-opacity:0.18;stroke-width:0.62px;"/>
    </g>
    <g transform="matrix(-2.12479,1.64942,-1.64942,-2.12479,162.183,76.0651)">
        <rect x="21.618" y="28.775" width="3.823" height="3.823" style="fill:none;stroke:rgb(35,129,29);stroke-opacity:0.18;stroke-width:0.74px;"/>
    </g>
    <g transform="matrix(4.69649,0,0,4.69649,-10.9884,43.4136)">
        <circle cx="15.736" cy="28.255" r="0.833" style="fill:none;stroke:rgb(242,192,171);stroke-opacity:0.18;stroke-width:0.43px;"/>
    </g>
    <g transform="matrix(4.69649,0,0,4.69649,-47.9006,50.9519)">
        <circle cx="15.736" cy="28.255" r="0.833" style="fill:none;stroke:rgb(247,228,51);stroke-opacity:0.18;stroke-width:0.43px;"/>
    </g>
    <g transform="matrix(4.69649,0,0,4.69649,-63.9523,64.1469)">
        <circle cx="15.736" cy="28.255" r="0.833" style="fill:none;stroke:rgb(216,48,29);stroke-opacity:0.18;stroke-width:0.43px;"/>
    </g>
    <g transform="matrix(4.69649,0,0,4.69649,-32.5346,125.601)">
        <circle cx="15.736" cy="28.255" r="0.833" style="fill:none;stroke:rgb(238,32,159);stroke-opacity:0.18;stroke-width:0.43px;"/>
    </g>
    <g transform="matrix(5.60486,0,0,5.60486,-36.7141,86.1752)">
        <circle cx="15.736" cy="28.255" r="0.833" style="fill:none;stroke:rgb(238,32,159);stroke-opacity:0.18;stroke-width:0.36px;"/>
    </g>
    <g transform="matrix(4.69649,0,0,4.69649,-29.8533,-11.6047)">
        <circle cx="17.035" cy="17.234" r="0.766" style="fill:none;stroke:rgb(247,228,51);stroke-opacity:0.18;stroke-width:0.43px;"/>
    </g>
    <g transform="matrix(4.69649,0,0,4.69649,-53.6408,211.626)">
        <circle cx="17.035" cy="17.234" r="0.766" style="fill:none;stroke:rgb(238,32,159);stroke-opacity:0.18;stroke-width:0.43px;"/>
    </g>
    <g transform="matrix(4.69649,0,0,4.69649,-3.84131,211.265)">
        <circle cx="17.035" cy="17.234" r="0.766" style="fill:none;stroke:rgb(238,32,159);stroke-opacity:0.18;stroke-width:0.43px;"/>
    </g>
    <g transform="matrix(4.69649,0,0,4.69649,94.4931,47.2401)">
        <circle cx="17.035" cy="17.234" r="0.766" style="fill:none;stroke:rgb(128,192,242);stroke-opacity:0.18;stroke-width:0.43px;"/>
    </g>
    <g transform="matrix(4.69649,0,0,4.69649,63.7845,63.0159)">
        <circle cx="17.035" cy="17.234" r="0.766" style="fill:none;stroke:rgb(238,32,159);stroke-opacity:0.18;stroke-width:0.43px;"/>
    </g>
    <g transform="matrix(4.69649,0,0,4.69649,174.964,64.6233)">
        <circle cx="17.035" cy="17.234" r="0.766" style="fill:none;stroke:rgb(216,48,29);stroke-opacity:0.18;stroke-width:0.43px;"/>
    </g>
    <g transform="matrix(4.21084,0,0,3.73065,122.393,82.7382)">
        <circle cx="17.035" cy="17.234" r="0.766" style="fill:none;stroke:rgb(160,27,225);stroke-opacity:0.18;stroke-width:0.5px;"/>
    </g>
    <g transform="matrix(4.21084,0,0,3.73065,117.626,99.9675)">
        <circle cx="17.035" cy="17.234" r="0.766" style="fill:none;stroke:rgb(128,192,242);stroke-opacity:0.18;stroke-width:0.5px;"/>
    </g>
    <g transform="matrix(4.21084,0,0,3.73065,144.936,156.28)">
        <circle cx="17.035" cy="17.234" r="0.766" style="fill:none;stroke:rgb(216,48,29);stroke-opacity:0.18;stroke-width:0.5px;"/>
    </g>
    <g transform="matrix(4.21084,0,0,3.73065,209.785,115.225)">
        <circle cx="17.035" cy="17.234" r="0.766" style="fill:none;stroke:rgb(245,145,19);stroke-opacity:0.18;stroke-width:0.5px;"/>
    </g>
    <g transform="matrix(4.21084,0,0,3.73065,139.032,14.6424)">
        <circle cx="17.035" cy="17.234" r="0.766" style="fill:none;stroke:rgb(238,32,159);stroke-opacity:0.18;stroke-width:0.5px;"/>
    </g>
    <g transform="matrix(4.21084,0,0,3.73065,210.378,193.553)">
        <circle cx="17.035" cy="17.234" r="0.766" style="fill:none;stroke:rgb(238,32,159);stroke-opacity:0.18;stroke-width:0.5px;"/>
    </g>
    <g transform="matrix(4.21084,0,0,3.73065,194.995,198.799)">
        <circle cx="17.035" cy="17.234" r="0.766" style="fill:none;stroke:rgb(216,48,29);stroke-opacity:0.18;stroke-width:0.5px;"/>
    </g>
    <g transform="matrix(4.21084,0,0,3.73065,185.075,24.0005)">
        <circle cx="17.035" cy="17.234" r="0.766" style="fill:none;stroke:rgb(216,48,29);stroke-opacity:0.18;stroke-width:0.5px;"/>
    </g>
    <g transform="matrix(4.21084,0,0,3.73065,219.147,211.489)">
        <circle cx="17.035" cy="17.234" r="0.766" style="fill:none;stroke:rgb(128,192,242);stroke-opacity:0.18;stroke-width:0.5px;"/>
    </g>
    <g transform="matrix(4.21084,0,0,3.73065,213.029,220.367)">
        <circle cx="17.035" cy="17.234" r="0.766" style="fill:none;stroke:rgb(128,192,242);stroke-opacity:0.18;stroke-width:0.5px;"/>
    </g>
    <g transform="matrix(4.69649,0,0,4.69649,-40.5637,1.39195)">
        <circle cx="25.194" cy="12.073" r="1.031" style="fill:none;stroke:rgb(160,27,225);stroke-opacity:0.18;stroke-width:0.43px;"/>
    </g>
    <g transform="matrix(4.69649,0,0,4.69649,88.0303,-45.921)">
        <circle cx="26.512" cy="16.299" r="0.864" style="fill:none;stroke:rgb(191,132,93);stroke-opacity:0.18;stroke-width:0.43px;"/>
    </g>
    <g transform="matrix(5.86006,0,0,5.86006,-9.16446,-48.2944)">
        <circle cx="26.512" cy="16.299" r="0.864" style="fill:none;stroke:rgb(128,192,242);stroke-opacity:0.18;stroke-width:0.34px;"/>
    </g>
    <g transform="matrix(8.36775,0,0,8.52457,-193.015,-32.3709)">
        <circle cx="26.512" cy="16.299" r="0.864" style="fill:none;stroke:rgb(100,52,34);stroke-opacity:0.18;stroke-width:0.24px;"/>
    </g>
    <g transform="matrix(4.69649,0,0,4.69649,115.967,114.505)">
        <circle cx="26.512" cy="16.299" r="0.864" style="fill:none;stroke:rgb(148,224,92);stroke-opacity:0.18;stroke-width:0.43px;"/>
    </g>
    <g transform="matrix(4.69649,0,0,4.69649,-136.371,2.80518)">
        <circle cx="33.115" cy="9.117" r="0.72" style="fill:none;stroke:rgb(247,228,51);stroke-opacity:0.18;stroke-width:0.43px;"/>
    </g>
    <g transform="matrix(4.69649,0,0,4.69649,-43.8533,-9.60467)">
        <circle cx="33.115" cy="9.117" r="0.72" style="fill:none;stroke:rgb(128,192,242);stroke-opacity:0.18;stroke-width:0.43px;"/>
    </g>
    <g transform="matrix(4.69649,0,0,4.69649,-1.89825,-35.6869)">
        <circle cx="33.115" cy="9.117" r="0.72" style="fill:none;stroke:rgb(235,198,145);stroke-opacity:0.18;stroke-width:0.43px;"/>
    </g>
    <g transform="matrix(4.69649,0,0,4.69649,-50.547,6.30326)">
        <circle cx="33.115" cy="9.117" r="0.72" style="fill:none;stroke:rgb(245,145,19);stroke-opacity:0.18;stroke-width:0.43px;"/>
    </g>
    <g transform="matrix(4.69649,0,0,4.69649,108.384,73.5874)">
        <circle cx="33.115" cy="9.117" r="0.72" style="fill:none;stroke:rgb(148,224,92);stroke-opacity:0.18;stroke-width:0.43px;"/>
    </g>
    <g transform="matrix(4.69649,0,0,4.69649,99.6648,83.4071)">
        <circle cx="33.115" cy="9.117" r="0.72" style="fill:none;stroke:rgb(128,192,242);stroke-opacity:0.18;stroke-width:0.43px;"/>
    </g>
    <g transform="matrix(4.69649,0,0,4.69649,-37.0501,238.504)">
        <circle cx="33.115" cy="9.117" r="0.72" style="fill:none;stroke:rgb(148,224,92);stroke-opacity:0.18;stroke-width:0.43px;"/>
    </g>
    <g transform="matrix(4.69649,0,0,4.69649,86.9086,168.108)">
        <circle cx="33.115" cy="9.117" r="0.72" style="fill:none;stroke:rgb(247,228,51);stroke-opacity:0.18;stroke-width:0.43px;"/>
    </g>
    <g transform="matrix(4.69649,0,0,4.69649,12.7836,181.382)">
        <circle cx="33.115" cy="9.117" r="0.72" style="fill:none;stroke:rgb(148,224,92);stroke-opacity:0.18;stroke-width:0.43px;"/>
    </g>
    <g transform="matrix(4.69649,0,0,4.69649,25.4807,135.918)">
        <circle cx="33.115" cy="9.117" r="0.72" style="fill:none;stroke:rgb(245,145,19);stroke-opacity:0.18;stroke-width:0.43px;"/>
    </g>
    <g transform="matrix(4.69649,0,0,4.69649,48.991,218.64)">
        <circle cx="33.115" cy="9.117" r="0.72" style="fill:none;stroke:rgb(247,228,51);stroke-opacity:0.18;stroke-width:0.43px;"/>
    </g>
    <g transform="matrix(4.69649,0,0,4.69649,-13.009,200.64)">
        <circle cx="33.115" cy="9.117" r="0.72" style="fill:none;stroke:black;stroke-opacity:0.18;stroke-width:0.43px;"/>
    </g>
    <g transform="matrix(4.69649,0,0,4.69649,6.23149,250.094)">
        <circle cx="33.115" cy="9.117" r="0.72" style="fill:none;stroke:rgb(148,224,92);stroke-opacity:0.18;stroke-width:0.43px;"/>
    </g>
    <g transform="matrix(4.69649,0,0,4.69649,-18.6615,249.899)">
        <circle cx="33.115" cy="9.117" r="0.72" style="fill:none;stroke:rgb(238,32,159);stroke-opacity:0.18;stroke-width:0.43px;"/>
    </g>
    <g transform="matrix(4.69649,0,0,4.69649,-30.7393,186.048)">
        <circle cx="33.115" cy="9.117" r="0.72" style="fill:none;stroke:rgb(191,132,93);stroke-opacity:0.18;stroke-width:0.43px;"/>
    </g>
    <g transform="matrix(4.69649,0,0,4.69649,-55.5503,251.262)">
        <circle cx="33.115" cy="9.117" r="0.72" style="fill:none;stroke:rgb(128,192,242);stroke-opacity:0.18;stroke-width:0.43px;"/>
    </g>
    <g transform="matrix(4.69649,0,0,4.69649,-29.8533,-11.6047)">
        <circle cx="26.792" cy="7.486" r="1.844" style="fill:none;stroke:rgb(35,129,29);stroke-opacity:0.18;stroke-width:0.43px;"/>
    </g>
    <g transform="matrix(4.69649,0,0,4.69649,-51.3259,34.1037)">
        <circle cx="37.174" cy="14.525" r="1.152" style="fill:none;stroke:rgb(191,132,93);stroke-opacity:0.18;stroke-width:0.43px;"/>
    </g>
    <g transform="matrix(4.69649,0,0,4.69649,63.1105,-28.9477)">
        <circle cx="32.533" cy="19.454" r="0.968" style="fill:none;stroke:rgb(238,32,159);stroke-opacity:0.18;stroke-width:0.43px;"/>
    </g>
    <g transform="matrix(4.69649,0,0,4.69649,-49.5914,52.4853)">
        <circle cx="32.533" cy="19.454" r="0.968" style="fill:none;stroke:rgb(128,192,242);stroke-opacity:0.18;stroke-width:0.43px;"/>
    </g>
    <g transform="matrix(4.69649,0,0,4.69649,-17.1383,84.0888)">
        <circle cx="44.606" cy="7.923" r="1.753" style="fill:none;stroke:rgb(247,228,51);stroke-opacity:0.18;stroke-width:0.43px;"/>
    </g>
    <g transform="matrix(4.69649,0,0,4.69649,-30.6451,48.9253)">
        <path d="M24.233,28.5C25.668,28.5 26.833,29.665 26.833,31.099C26.833,32.534 25.668,33.699 24.233,33.699C22.798,33.699 21.633,32.534 21.633,31.099C21.633,29.665 22.798,28.5 24.233,28.5ZM24.233,29.8C24.951,29.8 25.533,30.382 25.533,31.099C25.533,31.817 24.951,32.399 24.233,32.399C23.516,32.399 22.933,31.817 22.933,31.099C22.933,30.382 23.516,29.8 24.233,29.8Z" style="fill:none;stroke:rgb(238,32,159);stroke-opacity:0.18;stroke-width:0.43px;"/>
    </g>
    <g transform="matrix(4.69649,0,0,4.69649,-36.3704,-12.073)">
        <path d="M15.119,6.999C16.504,6.999 17.629,8.124 17.629,9.509C17.629,10.895 16.504,12.019 15.119,12.019C13.733,12.019 12.609,10.895 12.609,9.509C12.609,8.124 13.733,6.999 15.119,6.999ZM15.119,8.254C15.812,8.254 16.374,8.816 16.374,9.509C16.374,10.202 15.812,10.764 15.119,10.764C14.426,10.764 13.864,10.202 13.864,9.509C13.864,8.816 14.426,8.254 15.119,8.254Z" style="fill:none;stroke:rgb(247,228,51);stroke-opacity:0.18;stroke-width:0.43px;"/>
    </g>
    <g transform="matrix(4.69649,0,0,4.69649,-76.006,12.9471)">
        <path d="M15.119,6.999C16.504,6.999 17.629,8.124 17.629,9.509C17.629,10.895 16.504,12.019 15.119,12.019C13.733,12.019 12.609,10.895 12.609,9.509C12.609,8.124 13.733,6.999 15.119,6.999ZM15.119,8.254C15.812,8.254 16.374,8.816 16.374,9.509C16.374,10.202 15.812,10.764 15.119,10.764C14.426,10.764 13.864,10.202 13.864,9.509C13.864,8.816 14.426,8.254 15.119,8.254Z" style="fill:none;stroke:rgb(216,48,29);stroke-opacity:0.18;stroke-width:0.43px;"/>
    </g>
    <g transform="matrix(4.69649,0,0,4.69649,223.994,12.9471)">
        <path d="M15.119,6.999C16.504,6.999 17.629,8.124 17.629,9.509C17.629,10.895 16.504,12.019 15.119,12.019C13.733,12.019 12.609,10.895 12.609,9.509C12.609,8.124 13.733,6.999 15.119,6.999ZM15.119,8.254C15.812,8.254 16.374,8.816 16.374,9.509C16.374,10.202 15.812,10.764 15.119,10.764C14.426,10.764 13.864,10.202 13.864,9.509C13.864,8.816 14.426,8.254 15.119,8.254Z" style="fill:none;stroke:rgb(216,48,29);stroke-opacity:0.18;stroke-width:0.43px;"/>
    </g>
    <g transform="matrix(4.28689,0,0,4.31754,105.397,27.7531)">
        <path d="M15.119,6.999C16.504,6.999 17.629,8.124 17.629,9.509C17.629,10.895 16.504,12.019 15.119,12.019C13.733,12.019 12.609,10.895 12.609,9.509C12.609,8.124 13.733,6.999 15.119,6.999ZM15.119,8.254C15.812,8.254 16.374,8.816 16.374,9.509C16.374,10.202 15.812,10.764 15.119,10.764C14.426,10.764 13.864,10.202 13.864,9.509C13.864,8.816 14.426,8.254 15.119,8.254Z" style="fill:none;stroke:rgb(35,129,29);stroke-opacity:0.18;stroke-width:0.46px;"/>
    </g>
    <g transform="matrix(4.69649,0,0,4.69649,-71.006,-44.6591)">
        <path d="M15.119,6.999C16.504,6.999 17.629,8.124 17.629,9.509C17.629,10.895 16.504,12.019 15.119,12.019C13.733,12.019 12.609,10.895 12.609,9.509C12.609,8.124 13.733,6.999 15.119,6.999ZM15.119,8.254C15.812,8.254 16.374,8.816 16.374,9.509C16.374,10.202 15.812,10.764 15.119,10.764C14.426,10.764 13.864,10.202 13.864,9.509C13.864,8.816 14.426,8.254 15.119,8.254Z" style="fill:none;stroke:rgb(128,192,242);stroke-opacity:0.18;stroke-width:0.43px;"/>
    </g>
    <g transform="matrix(4.69649,0,0,4.69649,228.994,-44.6591)">
        <path d="M15.119,6.999C16.504,6.999 17.629,8.124 17.629,9.509C17.629,10.895 16.504,12.019 15.119,12.019C13.733,12.019 12.609,10.895 12.609,9.509C12.609,8.124 13.733,6.999 15.119,6.999ZM15.119,8.254C15.812,8.254 16.374,8.816 16.374,9.509C16.374,10.202 15.812,10.764 15.119,10.764C14.426,10.764 13.864,10.202 13.864,9.509C13.864,8.816 14.426,8.254 15.119,8.254Z" style="fill:none;stroke:rgb(128,192,242);stroke-opacity:0.18;stroke-width:0.43px;"/>
    </g>
    <g transform="matrix(4.69649,0,0,4.69649,228.994,255.341)">
        <path d="M15.119,6.999C16.504,6.999 17.629,8.124 17.629,9.509C17.629,10.895 16.504,12.019 15.119,12.019C13.733,12.019 12.609,10.895 12.609,9.509C12.609,8.124 13.733,6.999 15.119,6.999ZM15.119,8.254C15.812,8.254 16.374,8.816 16.374,9.509C16.374,10.202 15.812,10.764 15.119,10.764C14.426,10.764 13.864,10.202 13.864,9.509C13.864,8.816 14.426,8.254 15.119,8.254Z" style="fill:none;stroke:rgb(128,192,242);stroke-opacity:0.18;stroke-width:0.43px;"/>
    </g>
    <g transform="matrix(4.69649,0,0,4.69649,-71.006,255.341)">
        <path d="M15.119,6.999C16.504,6.999 17.629,8.124 17.629,9.509C17.629,10.895 16.504,12.019 15.119,12.019C13.733,12.019 12.609,10.895 12.609,9.509C12.609,8.124 13.733,6.999 15.119,6.999ZM15.119,8.254C15.812,8.254 16.374,8.816 16.374,9.509C16.374,10.202 15.812,10.764 15.119,10.764C14.426,10.764 13.864,10.202 13.864,9.509C13.864,8.816 14.426,8.254 15.119,8.254Z" style="fill:none;stroke:rgb(128,192,242);stroke-opacity:0.18;stroke-width:0.43px;"/>
    </g>
    <g transform="matrix(4.69649,0,0,4.69649,-7.74536,84.0888)">
        <path d="M47.822,5.327C48.828,5.327 49.645,6.144 49.645,7.15C49.645,8.156 48.828,8.973 47.822,8.973C46.816,8.973 45.999,8.156 45.999,7.15C45.999,6.144 46.816,5.327 47.822,5.327ZM47.822,6.239C48.325,6.239 48.733,6.647 48.733,7.15C48.733,7.653 48.325,8.062 47.822,8.062C47.319,8.062 46.91,7.653 46.91,7.15C46.91,6.647 47.319,6.239 47.822,6.239Z" style="fill:none;stroke:rgb(216,48,29);stroke-opacity:0.18;stroke-width:0.43px;"/>
    </g>
    <g transform="matrix(4.69649,0,0,4.69649,-17.2705,43.1322)">
        <path d="M26.635,24.546C27.522,24.546 28.242,25.266 28.242,26.153C28.242,27.041 27.522,27.761 26.635,27.761C25.748,27.761 25.027,27.041 25.027,26.153C25.027,25.266 25.748,24.546 26.635,24.546ZM26.635,25.35C27.079,25.35 27.439,25.71 27.439,26.153C27.439,26.597 27.079,26.957 26.635,26.957C26.191,26.957 25.831,26.597 25.831,26.153C25.831,25.71 26.191,25.35 26.635,25.35Z" style="fill:none;stroke:rgb(128,192,242);stroke-opacity:0.18;stroke-width:0.43px;"/>
    </g>
    <g transform="matrix(4.69649,0,0,4.69649,-61.562,37.5427)">
        <path d="M50.063,21.809C51.224,21.809 52.167,22.752 52.167,23.913C52.167,25.074 51.224,26.016 50.063,26.016C48.902,26.016 47.96,25.074 47.96,23.913C47.96,22.752 48.902,21.809 50.063,21.809ZM50.063,22.861C50.644,22.861 51.115,23.332 51.115,23.913C51.115,24.493 50.644,24.964 50.063,24.964C49.483,24.964 49.011,24.493 49.011,23.913C49.011,23.332 49.483,22.861 50.063,22.861Z" style="fill:none;stroke:rgb(247,228,51);stroke-opacity:0.18;stroke-width:0.43px;"/>
    </g>
    <g transform="matrix(4.69649,0,0,4.69649,-8.25023,104.685)">
        <path d="M57.185,21.932C58.244,21.932 59.104,22.792 59.104,23.851C59.104,24.91 58.244,25.769 57.185,25.769C56.126,25.769 55.267,24.91 55.267,23.851C55.267,22.792 56.126,21.932 57.185,21.932ZM57.185,22.892C57.715,22.892 58.144,23.321 58.144,23.851C58.144,24.38 57.715,24.81 57.185,24.81C56.656,24.81 56.226,24.38 56.226,23.851C56.226,23.321 56.656,22.892 57.185,22.892Z" style="fill:none;stroke:rgb(238,32,159);stroke-opacity:0.18;stroke-width:0.43px;"/>
    </g>
    <g transform="matrix(4.31468,0,0,4.31468,33.3008,112.451)">
        <path d="M29.757,34.657C31.093,34.657 32.178,35.742 32.178,37.079C32.178,38.415 31.093,39.5 29.757,39.5C28.42,39.5 27.335,38.415 27.335,37.079C27.335,35.742 28.42,34.657 29.757,34.657ZM29.757,35.868C30.425,35.868 30.967,36.41 30.967,37.079C30.967,37.747 30.425,38.289 29.757,38.289C29.088,38.289 28.546,37.747 28.546,37.079C28.546,36.41 29.088,35.868 29.757,35.868Z" style="fill:none;stroke:rgb(238,32,159);stroke-opacity:0.18;stroke-width:0.46px;"/>
    </g>
    <g transform="matrix(5.05668,0,0,5.05668,-34.424,90.3234)">
        <path d="M55.064,32.275C54.909,32.26 54.752,32.26 54.597,32.275L54.52,32.65C54.371,32.673 54.225,32.712 54.085,32.767L53.831,32.481C53.688,32.545 53.553,32.623 53.426,32.714L53.546,33.077C53.429,33.171 53.322,33.278 53.228,33.396L52.865,33.275C52.774,33.402 52.696,33.538 52.631,33.68L52.917,33.934C52.862,34.074 52.823,34.22 52.801,34.369L52.426,34.446C52.411,34.602 52.411,34.758 52.426,34.914L52.801,34.991C52.823,35.14 52.862,35.286 52.917,35.426L52.631,35.68C52.696,35.822 52.774,35.958 52.865,36.085L53.228,35.964C53.322,36.082 53.429,36.188 53.546,36.283L53.426,36.646C53.553,36.736 53.688,36.815 53.831,36.879L54.085,36.593C54.225,36.648 54.371,36.687 54.52,36.71L54.597,37.085C54.752,37.1 54.909,37.1 55.064,37.085L55.141,36.71C55.29,36.687 55.436,36.648 55.577,36.593L55.831,36.879C55.973,36.815 56.108,36.736 56.235,36.646L56.115,36.283C56.232,36.188 56.339,36.082 56.433,35.964L56.796,36.085C56.887,35.958 56.965,35.822 57.03,35.68L56.744,35.426C56.799,35.286 56.838,35.14 56.861,34.991L57.235,34.914C57.25,34.758 57.25,34.602 57.235,34.446L56.861,34.369C56.838,34.22 56.799,34.074 56.744,33.934L57.03,33.68C56.965,33.538 56.887,33.402 56.796,33.275L56.433,33.396C56.339,33.278 56.232,33.171 56.115,33.077L56.235,32.714C56.108,32.623 55.973,32.545 55.831,32.481L55.577,32.767C55.436,32.712 55.29,32.673 55.141,32.65L55.064,32.275ZM54.831,34.197C55.097,34.197 55.314,34.413 55.314,34.68C55.314,34.947 55.097,35.163 54.831,35.163C54.564,35.163 54.347,34.947 54.347,34.68C54.347,34.413 54.564,34.197 54.831,34.197Z" style="fill:none;stroke:rgb(247,228,51);stroke-opacity:0.18;stroke-width:0.4px;"/>
    </g>
    <g transform="matrix(3.08148,0,0,3.08148,-69.4447,126.625)">
        <path d="M66.196,12.124C65.993,12.104 65.788,12.104 65.585,12.124L65.484,12.613C65.29,12.643 65.099,12.694 64.916,12.766L64.584,12.392C64.398,12.476 64.221,12.579 64.055,12.697L64.212,13.172C64.059,13.295 63.919,13.434 63.796,13.588L63.322,13.43C63.203,13.596 63.101,13.774 63.016,13.959L63.39,14.291C63.319,14.475 63.267,14.665 63.238,14.86L62.748,14.961C62.728,15.164 62.728,15.368 62.748,15.571L63.238,15.672C63.267,15.867 63.319,16.057 63.39,16.241L63.016,16.573C63.101,16.758 63.203,16.936 63.322,17.102L63.796,16.944C63.919,17.098 64.059,17.237 64.212,17.36L64.055,17.835C64.221,17.953 64.398,18.056 64.584,18.14L64.916,17.766C65.099,17.838 65.29,17.889 65.484,17.919L65.585,18.408C65.788,18.428 65.993,18.428 66.196,18.408L66.296,17.919C66.491,17.889 66.682,17.838 66.865,17.766L67.197,18.14C67.383,18.056 67.56,17.953 67.726,17.835L67.568,17.36C67.722,17.237 67.862,17.098 67.985,16.944L68.459,17.102C68.578,16.936 68.68,16.758 68.764,16.573L68.391,16.241C68.462,16.057 68.513,15.867 68.543,15.672L69.033,15.571C69.052,15.368 69.052,15.164 69.033,14.961L68.543,14.86C68.513,14.665 68.462,14.475 68.391,14.291L68.764,13.959C68.68,13.774 68.578,13.596 68.459,13.43L67.985,13.588C67.862,13.434 67.722,13.295 67.568,13.172L67.726,12.697C67.56,12.579 67.383,12.476 67.197,12.392L66.865,12.766C66.682,12.694 66.491,12.643 66.296,12.613L66.196,12.124ZM65.89,14.635C66.239,14.635 66.522,14.918 66.522,15.266C66.522,15.614 66.239,15.897 65.89,15.897C65.542,15.897 65.259,15.614 65.259,15.266C65.259,14.918 65.542,14.635 65.89,14.635Z" style="fill:none;stroke:rgb(245,145,19);stroke-opacity:0.18;stroke-width:0.65px;"/>
    </g>
    <g transform="matrix(4.69649,0,0,4.69649,-15.2705,43.1322)">
        <path d="M18.358,36.138C18.178,36.121 17.997,36.121 17.817,36.138L17.728,36.572C17.555,36.599 17.386,36.644 17.224,36.707L16.93,36.376C16.765,36.451 16.608,36.542 16.461,36.647L16.601,37.067C16.465,37.176 16.341,37.3 16.232,37.436L15.812,37.296C15.707,37.443 15.616,37.6 15.541,37.764L15.873,38.058C15.809,38.221 15.764,38.39 15.738,38.562L15.304,38.651C15.286,38.831 15.286,39.012 15.304,39.192L15.738,39.281C15.764,39.454 15.809,39.623 15.873,39.785L15.541,40.079C15.616,40.244 15.707,40.401 15.812,40.548L16.232,40.408C16.341,40.544 16.465,40.668 16.601,40.777L16.461,41.197C16.608,41.302 16.765,41.393 16.93,41.468L17.224,41.136C17.386,41.2 17.555,41.245 17.728,41.271L17.817,41.705C17.997,41.723 18.178,41.723 18.358,41.705L18.447,41.271C18.619,41.245 18.788,41.2 18.951,41.136L19.245,41.468C19.409,41.393 19.566,41.302 19.713,41.197L19.573,40.777C19.709,40.668 19.833,40.544 19.942,40.408L20.362,40.548C20.467,40.401 20.558,40.244 20.633,40.079L20.302,39.785C20.365,39.623 20.41,39.454 20.437,39.281L20.871,39.192C20.888,39.012 20.888,38.831 20.871,38.651L20.437,38.562C20.41,38.39 20.365,38.221 20.302,38.058L20.633,37.764C20.558,37.6 20.467,37.443 20.362,37.296L19.942,37.436C19.833,37.3 19.709,37.176 19.573,37.067L19.713,36.647C19.566,36.542 19.409,36.451 19.245,36.376L18.951,36.707C18.788,36.644 18.619,36.599 18.447,36.572L18.358,36.138ZM18.087,38.363C18.396,38.363 18.646,38.613 18.646,38.922C18.646,39.231 18.396,39.481 18.087,39.481C17.778,39.481 17.528,39.231 17.528,38.922C17.528,38.613 17.778,38.363 18.087,38.363Z" style="fill:none;stroke:rgb(247,228,51);stroke-opacity:0.18;stroke-width:0.43px;"/>
    </g>
    <g transform="matrix(0.926735,0.375717,-0.375717,0.926735,68.6362,76.403)">
        <path d="M125.066,98.834C125.066,97.617 126.054,96.629 127.271,96.629C128.488,96.629 129.476,97.617 129.476,98.834C130.085,97.78 131.435,97.419 132.489,98.027C133.543,98.636 133.904,99.985 133.296,101.039C134.35,100.431 135.7,100.793 136.308,101.847C136.917,102.901 136.555,104.25 135.501,104.859C136.718,104.859 137.706,105.847 137.706,107.064C137.706,108.281 136.718,109.269 135.501,109.269C136.555,109.878 136.917,111.227 136.308,112.281C135.7,113.335 134.35,113.697 133.296,113.089C133.904,114.143 133.543,115.492 132.489,116.101C131.435,116.709 130.085,116.348 129.476,115.294C129.476,116.511 128.488,117.499 127.271,117.499C126.054,117.499 125.066,116.511 125.066,115.294C124.458,116.348 123.108,116.709 122.054,116.101C121,115.492 120.638,114.143 121.247,113.089C120.193,113.697 118.843,113.335 118.234,112.281C117.626,111.227 117.988,109.878 119.042,109.269C117.825,109.269 116.836,108.281 116.836,107.064C116.836,105.847 117.825,104.859 119.042,104.859C117.988,104.25 117.626,102.901 118.234,101.847C118.843,100.793 120.193,100.431 121.247,101.039C120.638,99.985 121,98.636 122.054,98.027C123.108,97.419 124.458,97.78 125.066,98.834Z" style="fill:none;stroke:rgb(216,48,29);stroke-opacity:0.18;stroke-width:2px;"/>
    </g>
    <g transform="matrix(0.848238,0,0,0.848238,156.474,-12.9374)">
        <path d="M44.45,85.527C44.45,84.316 45.434,83.332 46.645,83.332C47.856,83.332 48.839,84.316 48.839,85.527C49.445,84.478 50.788,84.118 51.837,84.723C52.886,85.329 53.246,86.672 52.64,87.721C53.689,87.116 55.032,87.475 55.638,88.524C56.243,89.573 55.883,90.916 54.834,91.522C56.046,91.522 57.029,92.505 57.029,93.716C57.029,94.928 56.046,95.911 54.834,95.911C55.883,96.516 56.243,97.86 55.638,98.909C55.032,99.957 53.689,100.317 52.64,99.712C53.246,100.761 52.886,102.104 51.837,102.709C50.788,103.315 49.445,102.955 48.839,101.906C48.839,103.117 47.856,104.101 46.645,104.101C45.434,104.101 44.45,103.117 44.45,101.906C43.845,102.955 42.501,103.315 41.453,102.709C40.404,102.104 40.044,100.761 40.649,99.712C39.6,100.317 38.257,99.957 37.652,98.909C37.046,97.86 37.406,96.516 38.455,95.911C37.244,95.911 36.26,94.928 36.26,93.716C36.26,92.505 37.244,91.522 38.455,91.522C37.406,90.916 37.046,89.573 37.652,88.524C38.257,87.475 39.6,87.116 40.649,87.721C40.044,86.672 40.404,85.329 41.453,84.723C42.501,84.118 43.845,84.478 44.45,85.527Z" style="fill:none;stroke:rgb(245,145,19);stroke-opacity:0.18;stroke-width:2.36px;"/>
    </g>
    <g transform="matrix(1,0,0,1,-0.814806,98.0767)">
        <path d="M204.295,55.939C204.295,55.133 204.949,54.478 205.755,54.478C206.561,54.478 207.216,55.133 207.216,55.939C207.619,55.241 208.513,55.001 209.211,55.404C209.909,55.807 210.148,56.701 209.745,57.399C210.443,56.996 211.337,57.236 211.74,57.934C212.143,58.632 211.904,59.526 211.206,59.929C212.012,59.929 212.666,60.584 212.666,61.39C212.666,62.196 212.012,62.85 211.206,62.85C211.904,63.253 212.143,64.147 211.74,64.845C211.337,65.543 210.443,65.783 209.745,65.38C210.148,66.078 209.909,66.972 209.211,67.375C208.513,67.778 207.619,67.538 207.216,66.84C207.216,67.646 206.561,68.301 205.755,68.301C204.949,68.301 204.295,67.646 204.295,66.84C203.892,67.538 202.998,67.778 202.299,67.375C201.601,66.972 201.362,66.078 201.765,65.38C201.067,65.783 200.173,65.543 199.77,64.845C199.367,64.147 199.606,63.253 200.304,62.85C199.498,62.85 198.844,62.196 198.844,61.39C198.844,60.584 199.498,59.929 200.304,59.929C199.606,59.526 199.367,58.632 199.77,57.934C200.173,57.236 201.067,56.996 201.765,57.399C201.362,56.701 201.601,55.807 202.299,55.404C202.998,55.001 203.892,55.241 204.295,55.939Z" style="fill:none;stroke:rgb(35,129,29);stroke-opacity:0.18;stroke-width:2px;"/>
    </g>
    <g transform="matrix(1,0,0,1,13.1978,103.781)">
        <path d="M247.284,55.177C247.284,53.679 248.501,52.463 249.999,52.463C251.497,52.463 252.714,53.679 252.714,55.177C253.463,53.88 255.125,53.435 256.422,54.184C257.72,54.933 258.165,56.595 257.416,57.892C258.713,57.143 260.375,57.588 261.124,58.886C261.873,60.183 261.428,61.845 260.13,62.594C261.629,62.594 262.845,63.81 262.845,65.309C262.845,66.807 261.629,68.023 260.13,68.023C261.428,68.772 261.873,70.434 261.124,71.732C260.375,73.029 258.713,73.474 257.416,72.725C258.165,74.023 257.72,75.684 256.422,76.434C255.125,77.183 253.463,76.737 252.714,75.44C252.714,76.938 251.497,78.155 249.999,78.155C248.501,78.155 247.284,76.938 247.284,75.44C246.535,76.737 244.874,77.183 243.576,76.434C242.279,75.684 241.833,74.023 242.583,72.725C241.285,73.474 239.623,73.029 238.874,71.732C238.125,70.434 238.57,68.772 239.868,68.023C238.37,68.023 237.153,66.807 237.153,65.309C237.153,63.81 238.37,62.594 239.868,62.594C238.57,61.845 238.125,60.183 238.874,58.886C239.623,57.588 241.285,57.143 242.583,57.892C241.833,56.595 242.279,54.933 243.576,54.184C244.874,53.435 246.535,53.88 247.284,55.177Z" style="fill:none;stroke:rgb(216,48,29);stroke-opacity:0.18;stroke-width:2px;"/>
    </g>
    <g transform="matrix(0.416429,0,0,0.37561,159.303,144.484)">
        <path d="M243.834,56.823C244.611,54.331 247.111,52.463 249.999,52.463C252.887,52.463 255.387,54.331 256.164,56.823C258.774,56.792 261.324,58.593 262.216,61.339C263.109,64.085 262.104,67.041 259.974,68.55C260.81,71.022 259.886,74.004 257.55,75.701C255.214,77.399 252.092,77.356 249.999,75.797C247.906,77.356 244.785,77.399 242.448,75.701C240.112,74.004 239.188,71.022 240.024,68.55C237.894,67.041 236.89,64.085 237.782,61.339C238.674,58.593 241.224,56.792 243.834,56.823Z" style="fill:none;stroke:rgb(216,48,29);stroke-opacity:0.18;stroke-width:5.04px;"/>
    </g>
    <g transform="matrix(1,0,0,1,-249.999,34.6914)">
        <path d="M247.284,55.177C247.284,53.679 248.501,52.463 249.999,52.463C251.497,52.463 252.714,53.679 252.714,55.177C253.463,53.88 255.125,53.435 256.422,54.184C257.72,54.933 258.165,56.595 257.416,57.892C258.713,57.143 260.375,57.588 261.124,58.886C261.873,60.183 261.428,61.845 260.13,62.594C261.629,62.594 262.845,63.81 262.845,65.309C262.845,66.807 261.629,68.023 260.13,68.023C261.428,68.772 261.873,70.434 261.124,71.732C260.375,73.029 258.713,73.474 257.416,72.725C258.165,74.023 257.72,75.684 256.422,76.434C255.125,77.183 253.463,76.737 252.714,75.44C252.714,76.938 251.497,78.155 249.999,78.155C248.501,78.155 247.284,76.938 247.284,75.44C246.535,76.737 244.874,77.183 243.576,76.434C242.279,75.684 241.833,74.023 242.583,72.725C241.285,73.474 239.623,73.029 238.874,71.732C238.125,70.434 238.57,68.772 239.868,68.023C238.37,68.023 237.153,66.807 237.153,65.309C237.153,63.81 238.37,62.594 239.868,62.594C238.57,61.845 238.125,60.183 238.874,58.886C239.623,57.588 241.285,57.143 242.583,57.892C241.833,56.595 242.279,54.933 243.576,54.184C244.874,53.435 246.535,53.88 247.284,55.177Z" style="fill:none;stroke:rgb(128,192,242);stroke-opacity:0.18;stroke-width:2px;"/>
    </g>
    <g transform="matrix(1,0,0,1,50.0009,34.6914)">
        <path d="M247.284,55.177C247.284,53.679 248.501,52.463 249.999,52.463C251.497,52.463 252.714,53.679 252.714,55.177C253.463,53.88 255.125,53.435 256.422,54.184C257.72,54.933 258.165,56.595 257.416,57.892C258.713,57.143 260.375,57.588 261.124,58.886C261.873,60.183 261.428,61.845 260.13,62.594C261.629,62.594 262.845,63.81 262.845,65.309C262.845,66.807 261.629,68.023 260.13,68.023C261.428,68.772 261.873,70.434 261.124,71.732C260.375,73.029 258.713,73.474 257.416,72.725C258.165,74.023 257.72,75.684 256.422,76.434C255.125,77.183 253.463,76.737 252.714,75.44C252.714,76.938 251.497,78.155 249.999,78.155C248.501,78.155 247.284,76.938 247.284,75.44C246.535,76.737 244.874,77.183 243.576,76.434C242.279,75.684 241.833,74.023 242.583,72.725C241.285,73.474 239.623,73.029 238.874,71.732C238.125,70.434 238.57,68.772 239.868,68.023C238.37,68.023 237.153,66.807 237.153,65.309C237.153,63.81 238.37,62.594 239.868,62.594C238.57,61.845 238.125,60.183 238.874,58.886C239.623,57.588 241.285,57.143 242.583,57.892C241.833,56.595 242.279,54.933 243.576,54.184C244.874,53.435 246.535,53.88 247.284,55.177Z" style="fill:none;stroke:rgb(128,192,242);stroke-opacity:0.18;stroke-width:2px;"/>
    </g>
    <g transform="matrix(1,0,0,1,13.1978,103.781)">
        <path d="M222.722,40.769C222.722,39.795 223.513,39.003 224.487,39.003C225.462,39.003 226.253,39.795 226.253,40.769C226.74,39.925 227.821,39.636 228.665,40.123C229.509,40.61 229.799,41.691 229.311,42.535C230.155,42.048 231.236,42.337 231.723,43.181C232.211,44.025 231.921,45.106 231.077,45.593C232.052,45.593 232.843,46.384 232.843,47.359C232.843,48.333 232.052,49.125 231.077,49.125C231.921,49.612 232.211,50.693 231.723,51.537C231.236,52.381 230.155,52.67 229.311,52.183C229.799,53.027 229.509,54.108 228.665,54.595C227.821,55.082 226.74,54.793 226.253,53.949C226.253,54.923 225.462,55.714 224.487,55.714C223.513,55.714 222.722,54.923 222.722,53.949C222.234,54.793 221.154,55.082 220.31,54.595C219.466,54.108 219.176,53.027 219.663,52.183C218.819,52.67 217.739,52.381 217.251,51.537C216.764,50.693 217.054,49.612 217.898,49.125C216.923,49.125 216.132,48.333 216.132,47.359C216.132,46.384 216.923,45.593 217.898,45.593C217.054,45.106 216.764,44.025 217.251,43.181C217.739,42.337 218.819,42.048 219.663,42.535C219.176,41.691 219.466,40.61 220.31,40.123C221.154,39.636 222.234,39.925 222.722,40.769Z" style="fill:none;stroke:rgb(238,32,159);stroke-opacity:0.18;stroke-width:2px;"/>
    </g>
    <g transform="matrix(1,0,0,1,13.9237,121.431)">
        <path d="M107.909,121.229C107.909,120.246 108.707,119.448 109.689,119.448C110.672,119.448 111.47,120.246 111.47,121.229C111.962,120.378 113.052,120.086 113.903,120.577C114.754,121.069 115.046,122.159 114.555,123.01C115.406,122.518 116.496,122.81 116.987,123.662C117.479,124.513 117.187,125.603 116.336,126.094C117.318,126.094 118.116,126.892 118.116,127.875C118.116,128.858 117.318,129.656 116.336,129.656C117.187,130.147 117.479,131.237 116.987,132.088C116.496,132.94 115.406,133.232 114.555,132.74C115.046,133.591 114.754,134.681 113.903,135.173C113.052,135.664 111.962,135.372 111.47,134.521C111.47,135.504 110.672,136.302 109.689,136.302C108.707,136.302 107.909,135.504 107.909,134.521C107.417,135.372 106.327,135.664 105.476,135.173C104.625,134.681 104.333,133.591 104.824,132.74C103.973,133.232 102.883,132.94 102.392,132.088C101.9,131.237 102.192,130.147 103.043,129.656C102.061,129.656 101.263,128.858 101.263,127.875C101.263,126.892 102.061,126.094 103.043,126.094C102.192,125.603 101.9,124.513 102.392,123.662C102.883,122.81 103.973,122.518 104.824,123.01C104.333,122.159 104.625,121.069 105.476,120.577C106.327,120.086 107.417,120.378 107.909,121.229Z" style="fill:none;stroke:rgb(216,48,29);stroke-opacity:0.18;stroke-width:2px;"/>
    </g>
    <g transform="matrix(1,0,0,1,0.482839,8.08728)">
        <path d="M31.878,71.395C31.878,70.576 32.543,69.912 33.362,69.912C34.181,69.912 34.845,70.576 34.845,71.395C35.255,70.686 36.163,70.443 36.872,70.852C37.581,71.262 37.824,72.17 37.415,72.879C38.124,72.469 39.032,72.713 39.442,73.422C39.851,74.131 39.608,75.039 38.899,75.449C39.717,75.449 40.382,76.113 40.382,76.932C40.382,77.751 39.717,78.416 38.899,78.416C39.608,78.825 39.851,79.733 39.442,80.443C39.032,81.152 38.124,81.395 37.415,80.986C37.824,81.695 37.581,82.603 36.872,83.012C36.163,83.422 35.255,83.178 34.845,82.469C34.845,83.288 34.181,83.953 33.362,83.953C32.543,83.953 31.878,83.288 31.878,82.469C31.469,83.178 30.561,83.422 29.851,83.012C29.142,82.603 28.899,81.695 29.308,80.986C28.599,81.395 27.691,81.152 27.282,80.443C26.872,79.733 27.116,78.825 27.825,78.416C27.006,78.416 26.341,77.751 26.341,76.932C26.341,76.113 27.006,75.449 27.825,75.449C27.116,75.039 26.872,74.131 27.282,73.422C27.691,72.713 28.599,72.469 29.308,72.879C28.899,72.17 29.142,71.262 29.851,70.852C30.561,70.443 31.469,70.686 31.878,71.395Z" style="fill:none;stroke:rgb(238,32,159);stroke-opacity:0.18;stroke-width:2px;"/>
    </g>
    <g transform="matrix(1,0,0,1,6.01059,4.57524)">
        <path d="M148.583,13.164C148.583,12.33 149.26,11.654 150.093,11.654C150.926,11.654 151.603,12.33 151.603,13.164C152.02,12.442 152.944,12.194 153.666,12.611C154.387,13.028 154.635,13.952 154.218,14.674C154.94,14.257 155.864,14.505 156.281,15.226C156.697,15.948 156.45,16.872 155.728,17.289C156.561,17.289 157.238,17.965 157.238,18.799C157.238,19.632 156.561,20.309 155.728,20.309C156.45,20.725 156.697,21.65 156.281,22.371C155.864,23.093 154.94,23.341 154.218,22.924C154.635,23.646 154.387,24.57 153.666,24.987C152.944,25.403 152.02,25.156 151.603,24.434C151.603,25.267 150.926,25.944 150.093,25.944C149.26,25.944 148.583,25.267 148.583,24.434C148.166,25.156 147.242,25.403 146.52,24.987C145.799,24.57 145.551,23.646 145.968,22.924C145.246,23.341 144.322,23.093 143.905,22.371C143.489,21.65 143.736,20.725 144.458,20.309C143.625,20.309 142.948,19.632 142.948,18.799C142.948,17.965 143.625,17.289 144.458,17.289C143.736,16.872 143.489,15.948 143.905,15.226C144.322,14.505 145.246,14.257 145.968,14.674C145.551,13.952 145.799,13.028 146.52,12.611C147.242,12.194 148.166,12.442 148.583,13.164Z" style="fill:none;stroke:rgb(235,198,145);stroke-opacity:0.18;stroke-width:2px;"/>
    </g>
    <g transform="matrix(1,0,0,1,19.3122,66.1136)">
        <path d="M50.132,98.806L33.96,98.806L38.003,90.398L46.089,90.398L50.132,98.806Z" style="fill:none;stroke:rgb(191,132,93);stroke-opacity:0.18;stroke-width:2px;"/>
    </g>
    <g transform="matrix(0.994298,-0.106633,0.106633,0.994298,14.2745,128.897)">
        <path d="M202.555,71.624L180.797,71.624L186.236,64.596L197.116,64.596L202.555,71.624Z" style="fill:none;stroke:rgb(35,129,29);stroke-opacity:0.18;stroke-width:2px;"/>
    </g>
    <g transform="matrix(1.3089,-0.140372,0.140372,1.3089,21.5108,131.99)">
        <path d="M202.555,71.624L180.797,71.624L186.236,64.596L197.116,64.596L202.555,71.624Z" style="fill:none;stroke:rgb(238,32,159);stroke-opacity:0.18;stroke-width:1.52px;"/>
    </g>
    <g transform="matrix(1.3089,-0.140372,0.140372,1.3089,-63.1402,-17.7765)">
        <path d="M202.555,71.624L180.797,71.624L186.236,64.596L197.116,64.596L202.555,71.624Z" style="fill:none;stroke:rgb(35,129,29);stroke-opacity:0.18;stroke-width:1.52px;"/>
    </g>
    <g transform="matrix(1.21465,-0.507496,0.507496,1.21465,-121.275,271.249)">
        <path d="M202.555,71.624L180.797,71.624L186.236,64.596L197.116,64.596L202.555,71.624Z" style="fill:none;stroke:rgb(160,27,225);stroke-opacity:0.18;stroke-width:1.52px;"/>
    </g>
    <g transform="matrix(0.123276,0.992372,-0.992372,0.123276,134.191,124.476)">
        <path d="M42.646,102.69L14.304,102.69L21.39,92.629L35.561,92.629L42.646,102.69Z" style="fill:none;stroke:rgb(216,48,29);stroke-opacity:0.18;stroke-width:2px;"/>
    </g>
    <g transform="matrix(1,0,0,1,28.3325,124.666)">
        <path d="M238.49,126.315L230.315,126.315L232.359,107.123L236.446,107.123L238.49,126.315Z" style="fill:none;stroke:rgb(216,48,29);stroke-opacity:0.18;stroke-width:2px;"/>
    </g>
    <g transform="matrix(0.851979,0,0,0.851979,21.7664,55.1476)">
        <path d="M238.49,126.315L230.315,126.315L232.359,107.123L236.446,107.123L238.49,126.315Z" style="fill:none;stroke:rgb(245,145,19);stroke-opacity:0.18;stroke-width:2.35px;"/>
    </g>
    <g transform="matrix(0.723244,0.450318,-0.645065,1.03602,-14.9751,-143.39)">
        <path d="M238.49,126.315L230.315,126.315L232.359,107.123L236.446,107.123L238.49,126.315Z" style="fill:none;stroke:rgb(128,192,242);stroke-opacity:0.18;stroke-width:1.9px;"/>
    </g>
    <g transform="matrix(0.858994,-0.511986,0.511986,0.858994,-44.9139,164.58)">
        <path d="M179.537,95.601C179.537,94.479 178.626,93.568 177.504,93.568L166.424,93.568C165.302,93.568 164.391,94.479 164.391,95.601L164.391,99.666C164.391,100.788 165.302,101.699 166.424,101.699L169.314,101.699L167.42,105.184L171.585,101.699L177.504,101.699C178.626,101.699 179.537,100.788 179.537,99.666L179.537,95.601Z" style="fill:none;stroke:rgb(247,228,51);stroke-opacity:0.18;stroke-width:2px;"/>
    </g>
    <g transform="matrix(1,0,0,1,-3,1)">
        <path d="M46.944,50.235C48.117,48.563 50.464,48.563 51.638,49.399C52.811,50.235 52.811,51.908 51.638,53.58C50.816,54.834 48.704,56.089 46.944,56.925C45.183,56.089 43.071,54.834 42.249,53.58C41.076,51.908 41.076,50.235 42.249,49.399C43.423,48.563 45.77,48.563 46.944,50.235Z" style="fill:none;stroke:rgb(160,27,225);stroke-opacity:0.18;stroke-width:2px;"/>
    </g>
    <g transform="matrix(0.931882,-0.362761,0.362761,0.931882,-52.3506,45.0065)">
        <path d="M46.944,50.235C48.117,48.563 50.464,48.563 51.638,49.399C52.811,50.235 52.811,51.908 51.638,53.58C50.816,54.834 48.704,56.089 46.944,56.925C45.183,56.089 43.071,54.834 42.249,53.58C41.076,51.908 41.076,50.235 42.249,49.399C43.423,48.563 45.77,48.563 46.944,50.235Z" style="fill:none;stroke:rgb(160,27,225);stroke-opacity:0.18;stroke-width:2px;"/>
    </g>
    <g transform="matrix(1,0,0,1,13.2322,-39.4543)">
        <path d="M46.944,50.235C48.117,48.563 50.464,48.563 51.638,49.399C52.811,50.235 52.811,51.908 51.638,53.58C50.816,54.834 48.704,56.089 46.944,56.925C45.183,56.089 43.071,54.834 42.249,53.58C41.076,51.908 41.076,50.235 42.249,49.399C43.423,48.563 45.77,48.563 46.944,50.235Z" style="fill:none;stroke:rgb(128,192,242);stroke-opacity:0.18;stroke-width:2px;"/>
    </g>
    <g transform="matrix(0.926879,-0.375359,0.375359,0.926879,-15.2298,223.289)">
        <path d="M252.976,155.957C252.976,154.59 251.866,153.48 250.499,153.48L233.742,153.48C232.375,153.48 231.265,154.59 231.265,155.957L231.265,160.91C231.265,162.277 232.375,163.386 233.742,163.386L238.321,163.386L235.607,167.632L241.578,163.386L250.499,163.386C251.866,163.386 252.976,162.277 252.976,160.91L252.976,155.957Z" style="fill:none;stroke:rgb(128,192,242);stroke-opacity:0.18;stroke-width:2px;"/>
    </g>
    <g transform="matrix(1,0,0,1,0,-4)">
        <path d="M56.882,110.564C56.882,109.415 55.949,108.482 54.8,108.482L46.956,108.482C45.806,108.482 44.873,109.415 44.873,110.564L44.873,114.729C44.873,115.878 45.806,116.811 46.956,116.811L48.776,116.811L47.275,120.38L50.578,116.811L54.8,116.811C55.949,116.811 56.882,115.878 56.882,114.729L56.882,110.564Z" style="fill:none;stroke:rgb(247,228,51);stroke-opacity:0.18;stroke-width:2px;"/>
    </g>
    <path d="M197.789,20.456C197.789,19.231 196.794,18.236 195.569,18.236L181.349,18.236C180.123,18.236 179.128,19.231 179.128,20.456L179.128,24.897C179.128,26.123 180.123,27.118 181.349,27.118L185.193,27.118L182.86,30.924L187.992,27.118L195.569,27.118C196.794,27.118 197.789,26.123 197.789,24.897L197.789,20.456Z" style="fill:none;stroke:rgb(238,32,159);stroke-opacity:0.18;stroke-width:2px;"/>
    <g transform="matrix(1,0,0,1,-21.4726,45.7083)">
        <path d="M146.735,34.397C146.735,33.158 145.729,32.152 144.49,32.152L135.941,32.152C134.702,32.152 133.696,33.158 133.696,34.397L133.696,38.888C133.696,40.127 134.702,41.133 135.941,41.133L137.934,41.133L136.304,44.982L139.89,41.133L144.49,41.133C145.729,41.133 146.735,40.127 146.735,38.888L146.735,34.397Z" style="fill:none;stroke:rgb(35,129,29);stroke-opacity:0.18;stroke-width:2px;"/>
    </g>
    <g transform="matrix(1,0,0,1,-3.58267,23.09)">
        <path d="M106.607,252.523C106.607,250.815 105.22,249.429 103.512,249.429L91.542,249.429C89.834,249.429 88.447,250.815 88.447,252.523L88.447,258.712C88.447,260.42 89.834,261.806 91.542,261.806L94.349,261.806L92.079,267.111L97.073,261.806L103.512,261.806C105.22,261.806 106.607,260.42 106.607,258.712L106.607,252.523Z" style="fill:none;stroke:rgb(216,48,29);stroke-opacity:0.18;stroke-width:2px;"/>
    </g>
    <g transform="matrix(1,0,0,1,-47.527,41.7302)">
        <path d="M106.607,252.523C106.607,250.815 105.22,249.429 103.512,249.429L91.542,249.429C89.834,249.429 88.447,250.815 88.447,252.523L88.447,258.712C88.447,260.42 89.834,261.806 91.542,261.806L94.349,261.806L92.079,267.111L97.073,261.806L103.512,261.806C105.22,261.806 106.607,260.42 106.607,258.712L106.607,252.523Z" style="fill:none;stroke:rgb(238,32,159);stroke-opacity:0.18;stroke-width:2px;"/>
    </g>
    <g transform="matrix(1,0,0,1,-47.527,-258.27)">
        <path d="M106.607,252.523C106.607,250.815 105.22,249.429 103.512,249.429L91.542,249.429C89.834,249.429 88.447,250.815 88.447,252.523L88.447,258.712C88.447,260.42 89.834,261.806 91.542,261.806L94.349,261.806L92.079,267.111L97.073,261.806L103.512,261.806C105.22,261.806 106.607,260.42 106.607,258.712L106.607,252.523Z" style="fill:none;stroke:rgb(238,32,159);stroke-opacity:0.18;stroke-width:2px;"/>
    </g>
    <g transform="matrix(1,0,0,1,-3.58267,23.09)">
        <path d="M79.382,252.359C79.382,251.01 78.287,249.915 76.938,249.915L65.996,249.915C64.648,249.915 63.553,251.01 63.553,252.359L63.553,257.247C63.553,258.595 64.648,259.69 65.996,259.69L68.697,259.69L66.719,263.88L71.072,259.69L76.938,259.69C78.287,259.69 79.382,258.595 79.382,257.247L79.382,252.359Z" style="fill:none;stroke:rgb(238,32,159);stroke-opacity:0.18;stroke-width:2px;"/>
    </g>
    <path d="M35.266,200.007C35.266,198.33 33.904,196.968 32.227,196.968L22.27,196.968C20.593,196.968 19.231,198.33 19.231,200.007L19.231,206.086C19.231,207.764 20.593,209.126 22.27,209.126L24.442,209.126L22.438,214.336L26.848,209.126L32.227,209.126C33.904,209.126 35.266,207.764 35.266,206.086L35.266,200.007Z" style="fill:none;stroke:rgb(35,129,29);stroke-opacity:0.18;stroke-width:2px;"/>
    <g transform="matrix(1.09357,0.180464,-0.180464,1.09357,1.1138,-38.7783)">
        <path d="M207.654,87.207C207.654,85.681 206.415,84.442 204.889,84.442L194.019,84.442C192.493,84.442 191.254,85.681 191.254,87.207L191.254,92.736C191.254,94.262 192.493,95.501 194.019,95.501L196.584,95.501L194.534,100.241L199.044,95.501L204.889,95.501C206.415,95.501 207.654,94.262 207.654,92.736L207.654,87.207Z" style="fill:none;stroke:rgb(216,48,29);stroke-opacity:0.18;stroke-width:1.8px;"/>
    </g>
    <g transform="matrix(1,0,0,1,1,0)">
        <path d="M22.044,121.232C16.535,121.232 12.062,126.489 12.062,132.964C12.062,139.439 16.535,144.696 22.044,144.696C20.391,141.959 19.05,137.644 19.05,132.964C19.05,128.284 20.391,123.969 22.044,121.232Z" style="fill:none;stroke:rgb(247,228,51);stroke-opacity:0.18;stroke-width:2px;"/>
    </g>
    <g transform="matrix(-0.735687,-0.677321,0.677321,-0.735687,58.2266,189.588)">
        <path d="M77.581,68.116C70.858,68.116 65.401,74.263 65.401,81.836C65.401,89.408 70.858,95.556 77.581,95.556C75.564,92.355 73.927,87.309 73.927,81.836C73.927,76.363 75.564,71.317 77.581,68.116Z" style="fill:none;stroke:rgb(216,48,29);stroke-opacity:0.18;stroke-width:2px;"/>
    </g>
    <g transform="matrix(0.905946,0.568409,-0.486193,0.774909,39.4732,-63.0694)">
        <path d="M128.768,40.978C122.038,40.978 116.575,47.408 116.575,55.328C116.575,63.248 122.038,69.678 128.768,69.678C126.749,66.329 125.11,61.052 125.11,55.328C125.11,49.604 126.749,44.326 128.768,40.978Z" style="fill:none;stroke:rgb(247,228,51);stroke-opacity:0.18;stroke-width:2.01px;"/>
    </g>
    <g transform="matrix(0.969046,-0.246881,0.246881,0.969046,-0.341108,51.3331)">
        <path d="M233.453,11.492C226.246,11.492 220.396,16.447 220.396,22.551C220.396,28.655 226.246,33.61 233.453,33.61C231.291,31.03 229.536,26.963 229.536,22.551C229.536,18.14 231.291,14.072 233.453,11.492Z" style="fill:none;stroke:rgb(148,224,92);stroke-opacity:0.18;stroke-width:2px;"/>
    </g>
    <g transform="matrix(-0.178121,0.984009,-0.984009,-0.178121,399.318,-160.399)">
        <path d="M259.4,83.856C252.572,83.856 247.028,89.405 247.028,96.238C247.028,103.072 252.572,108.621 259.4,108.621C257.352,105.731 255.689,101.178 255.689,96.238C255.689,91.299 257.352,86.745 259.4,83.856Z" style="fill:none;stroke:rgb(247,228,51);stroke-opacity:0.18;stroke-width:2px;"/>
    </g>
    <g transform="matrix(-0.727336,0.686281,-0.686281,-0.727336,483.43,238.432)">
        <path d="M194.349,203.083C188.686,203.083 184.087,208.535 184.087,215.251C184.087,221.967 188.686,227.419 194.349,227.419C192.65,224.58 191.271,220.105 191.271,215.251C191.271,210.397 192.65,205.922 194.349,203.083Z" style="fill:none;stroke:rgb(160,27,225);stroke-opacity:0.18;stroke-width:2px;"/>
    </g>
    <g transform="matrix(-0.723134,0.28316,-0.28316,-0.723134,416.726,361.994)">
        <path d="M194.349,203.083C188.686,203.083 184.087,208.535 184.087,215.251C184.087,221.967 188.686,227.419 194.349,227.419C192.65,224.58 191.271,220.105 191.271,215.251C191.271,210.397 192.65,205.922 194.349,203.083Z" style="fill:none;stroke:rgb(216,48,29);stroke-opacity:0.18;stroke-width:2.58px;"/>
    </g>
    <g transform="matrix(-0.502033,-0.864848,0.864848,-0.502033,32.5438,481.998)">
        <path d="M194.349,203.083C188.686,203.083 184.087,208.535 184.087,215.251C184.087,221.967 188.686,227.419 194.349,227.419C192.65,224.58 191.271,220.105 191.271,215.251C191.271,210.397 192.65,205.922 194.349,203.083Z" style="fill:none;stroke:rgb(35,129,29);stroke-opacity:0.18;stroke-width:2px;"/>
    </g>
    <g transform="matrix(-0.727336,0.686281,-0.686281,-0.727336,584.08,202.688)">
        <path d="M194.349,203.083C188.686,203.083 184.087,208.535 184.087,215.251C184.087,221.967 188.686,227.419 194.349,227.419C192.65,224.58 191.271,220.105 191.271,215.251C191.271,210.397 192.65,205.922 194.349,203.083Z" style="fill:none;stroke:rgb(238,32,159);stroke-opacity:0.18;stroke-width:2px;"/>
    </g>
    <g transform="matrix(-0.727336,0.686281,-0.686281,-0.727336,284.08,202.688)">
        <path d="M194.349,203.083C188.686,203.083 184.087,208.535 184.087,215.251C184.087,221.967 188.686,227.419 194.349,227.419C192.65,224.58 191.271,220.105 191.271,215.251C191.271,210.397 192.65,205.922 194.349,203.083Z" style="fill:none;stroke:rgb(238,32,159);stroke-opacity:0.18;stroke-width:2px;"/>
    </g>
    <g transform="matrix(-0.747381,0.664396,-0.664396,-0.747381,334.006,386.977)">
        <path d="M93.434,246.368C85.731,246.368 79.477,251.126 79.477,256.987C79.477,262.848 85.731,267.606 93.434,267.606C91.123,265.128 89.247,261.223 89.247,256.987C89.247,252.751 91.123,248.846 93.434,246.368Z" style="fill:none;stroke:rgb(245,145,19);stroke-opacity:0.18;stroke-width:2px;"/>
    </g>
    <g transform="matrix(1.11554,0,0,1.11554,-0.829558,-32.8718)">
        <path d="M19.111,266.347C12.526,266.347 7.18,270.417 7.18,275.43C7.18,280.443 12.526,284.513 19.111,284.513C17.135,282.393 15.531,279.053 15.531,275.43C15.531,271.806 17.135,268.466 19.111,266.347Z" style="fill:none;stroke:rgb(245,145,19);stroke-opacity:0.18;stroke-width:1.79px;"/>
    </g>
    <path d="M61.868,124.58C54.834,124.58 49.123,129.171 49.123,134.825C49.123,140.479 54.834,145.069 61.868,145.069C59.757,142.679 58.044,138.912 58.044,134.825C58.044,130.738 59.757,126.971 61.868,124.58Z" style="fill:none;stroke:rgb(160,27,225);stroke-opacity:0.18;stroke-width:2px;"/>
    <g transform="matrix(0.978641,0.205575,-0.205575,0.978641,29.2304,-28.7705)">
        <path d="M153.072,121.179C154.975,117.775 158.782,117.775 160.685,119.477C162.589,121.179 162.589,124.583 160.685,127.987C159.353,130.54 155.927,133.093 153.072,134.795C150.217,133.093 146.791,130.54 145.458,127.987C143.555,124.583 143.555,121.179 145.458,119.477C147.362,117.775 151.168,117.775 153.072,121.179Z" style="fill:none;stroke:rgb(191,132,93);stroke-opacity:0.18;stroke-width:2px;"/>
    </g>
    <g transform="matrix(1,0,0,1,-3.64456,0.0669033)">
        <path d="M145.454,64.464C147.379,61.004 151.228,61.004 153.153,62.734C155.078,64.464 155.078,67.924 153.153,71.384C151.806,73.978 148.341,76.573 145.454,78.303C142.567,76.573 139.103,73.978 137.755,71.384C135.831,67.924 135.831,64.464 137.755,62.734C139.68,61.004 143.529,61.004 145.454,64.464Z" style="fill:none;stroke:rgb(235,198,145);stroke-opacity:0.18;stroke-width:2px;"/>
    </g>
    <g transform="matrix(1.04501,0,0,1,-4.7761,0)">
        <path d="M99.118,64.549C100.588,61.353 103.53,61.353 105,62.951C106.471,64.549 106.471,67.745 105,70.941C103.971,73.338 101.324,75.735 99.118,77.333C96.912,75.735 94.265,73.338 93.235,70.941C91.764,67.745 91.764,64.549 93.235,62.951C94.706,61.353 97.647,61.353 99.118,64.549Z" style="fill:none;stroke:rgb(238,32,159);stroke-opacity:0.18;stroke-width:1.96px;"/>
    </g>
    <path d="M228.933,88.397C230.91,84.771 234.866,84.771 236.844,86.584C238.822,88.397 238.822,92.023 236.844,95.649C235.46,98.368 231.899,101.087 228.933,102.9C225.966,101.087 222.406,98.368 221.021,95.649C219.043,92.023 219.043,88.397 221.021,86.584C222.999,84.771 226.955,84.771 228.933,88.397Z" style="fill:none;stroke:rgb(35,129,29);stroke-opacity:0.18;stroke-width:2px;"/>
    <g transform="matrix(1,0,0,1,-5,1)">
        <path d="M254.493,18.737C256.327,15.359 259.995,15.359 261.828,17.048C263.662,18.737 263.662,22.114 261.828,25.492C260.545,28.025 257.244,30.558 254.493,32.247C251.742,30.558 248.441,28.025 247.158,25.492C245.324,22.114 245.324,18.737 247.158,17.048C248.991,15.359 252.659,15.359 254.493,18.737Z" style="fill:none;stroke:rgb(35,129,29);stroke-opacity:0.18;stroke-width:2px;"/>
    </g>
    <g transform="matrix(0.937839,-0.34707,0.34707,0.937839,7.59071,103.596)">
        <path d="M287.422,24.4C289.564,20.929 293.848,20.929 295.991,22.664C298.133,24.4 298.133,27.871 295.991,31.343C294.491,33.946 290.635,36.549 287.422,38.285C284.209,36.549 280.353,33.946 278.853,31.343C276.711,27.871 276.711,24.4 278.853,22.664C280.996,20.929 285.28,20.929 287.422,24.4Z" style="fill:none;stroke:rgb(160,27,225);stroke-opacity:0.18;stroke-width:2px;"/>
    </g>
    <g transform="matrix(1,0,0,1,37,-2)">
        <path d="M165.652,5.913C167.066,3.566 169.892,3.566 171.306,4.739C172.719,5.913 172.719,8.26 171.306,10.608C170.316,12.368 167.772,14.129 165.652,15.302C163.532,14.129 160.988,12.368 159.998,10.608C158.585,8.26 158.585,5.913 159.998,4.739C161.412,3.566 164.239,3.566 165.652,5.913Z" style="fill:none;stroke:rgb(128,192,242);stroke-opacity:0.18;stroke-width:2px;"/>
    </g>
    <g transform="matrix(0.829073,0,0,0.829073,44.4686,36.7423)">
        <path d="M287.63,133.97C289.425,130.431 293.016,130.431 294.811,132.201C296.606,133.97 296.606,137.509 294.811,141.049C293.554,143.703 290.323,146.357 287.63,148.127C284.937,146.357 281.706,143.703 280.45,141.049C278.655,137.509 278.655,133.97 280.45,132.201C282.245,130.431 285.835,130.431 287.63,133.97Z" style="fill:none;stroke:rgb(245,145,19);stroke-opacity:0.18;stroke-width:2.41px;"/>
    </g>
    <g transform="matrix(0.945524,-0.325553,0.325553,0.945524,-65.4874,37.9254)">
        <path d="M119.445,197.975C121.344,194.009 125.142,194.009 127.041,195.992C128.94,197.975 128.94,201.941 127.041,205.906C125.712,208.881 122.294,211.855 119.445,213.838C116.597,211.855 113.179,208.881 111.849,205.906C109.95,201.941 109.95,197.975 111.849,195.992C113.748,194.009 117.546,194.009 119.445,197.975Z" style="fill:none;stroke:rgb(35,129,29);stroke-opacity:0.18;stroke-width:2px;"/>
    </g>
    <g transform="matrix(0.961332,-0.275392,0.275392,0.961332,-61.559,19.5796)">
        <path d="M38.943,223.308C40.775,219.513 44.438,219.513 46.269,221.41C48.101,223.308 48.101,227.103 46.269,230.898C44.987,233.744 41.691,236.591 38.943,238.488C36.196,236.591 32.899,233.744 31.617,230.898C29.785,227.103 29.785,223.308 31.617,221.41C33.448,219.513 37.112,219.513 38.943,223.308Z" style="fill:none;stroke:rgb(247,228,51);stroke-opacity:0.18;stroke-width:2px;"/>
    </g>
    <g transform="matrix(0.981456,0.191687,-0.191687,0.981456,52.9767,1.98357)">
        <path d="M36.91,267.471C38.574,263.918 41.9,263.918 43.564,265.694C45.227,267.471 45.227,271.023 43.564,274.576C42.399,277.24 39.405,279.905 36.91,281.681C34.415,279.905 31.421,277.24 30.256,274.576C28.593,271.023 28.593,267.471 30.256,265.694C31.92,263.918 35.247,263.918 36.91,267.471Z" style="fill:none;stroke:rgb(216,48,29);stroke-opacity:0.18;stroke-width:2px;"/>
    </g>
    <g transform="matrix(0.972476,-0.233002,0.233002,0.972476,-27.8771,23.1752)">
        <path d="M78.753,133.006C81.018,128.534 85.548,128.534 87.813,130.77C90.077,133.006 90.077,137.478 87.813,141.95C86.227,145.304 82.15,148.657 78.753,150.893C75.356,148.657 71.279,145.304 69.694,141.95C67.429,137.478 67.429,133.006 69.694,130.77C71.959,128.534 76.488,128.534 78.753,133.006Z" style="fill:none;stroke:rgb(216,48,29);stroke-opacity:0.18;stroke-width:2px;"/>
    </g>
    <g transform="matrix(0.455341,-0.109098,0.109098,0.455341,30.1284,85.9021)">
        <path d="M78.753,139.49C81.018,128.534 85.548,128.534 87.813,130.77C90.077,133.006 90.077,137.478 87.813,141.95C86.227,145.304 82.15,148.657 78.753,150.893C75.356,148.657 71.279,145.304 69.694,141.95C67.429,137.478 67.429,133.006 69.694,130.77C71.959,128.534 76.488,128.534 78.753,139.49Z" style="fill:none;stroke:rgb(216,48,29);stroke-opacity:0.18;stroke-width:4.27px;"/>
    </g>
    <g transform="matrix(0.976405,0.215947,-0.215947,0.976405,34.2082,-22.8248)">
        <path d="M121.554,137.717L128.603,142.838L125.91,151.125L117.197,151.125L114.504,142.838L121.554,137.717Z" style="fill:none;stroke:rgb(216,48,29);stroke-opacity:0.18;stroke-width:2px;"/>
    </g>
    <g transform="matrix(0.976405,0.215947,-0.215947,0.976405,105.134,21.8699)">
        <path d="M121.554,137.717L128.603,142.838L125.91,151.125L117.197,151.125L114.504,142.838L121.554,137.717Z" style="fill:none;stroke:rgb(160,27,225);stroke-opacity:0.18;stroke-width:2px;"/>
    </g>
    <g transform="matrix(0.976405,0.215947,-0.215947,0.976405,61.8225,31.0607)">
        <path d="M121.554,137.717L128.603,142.838L125.91,151.125L117.197,151.125L114.504,142.838L121.554,137.717Z" style="fill:none;stroke:rgb(128,192,242);stroke-opacity:0.18;stroke-width:2px;"/>
    </g>
    <g transform="matrix(1.07126,0.236926,-0.236926,1.07126,121.338,54.3844)">
        <path d="M121.554,137.717L128.603,142.838L125.91,151.125L117.197,151.125L114.504,142.838L121.554,137.717Z" style="fill:none;stroke:rgb(191,132,93);stroke-opacity:0.18;stroke-width:1.82px;"/>
    </g>
    <g transform="matrix(1.16098,-0.362378,0.362378,1.16098,-93.0866,-33.8941)">
        <path d="M22.413,242.792L28.869,247.482L26.403,255.072L18.423,255.072L15.957,247.482L22.413,242.792Z" style="fill:none;stroke:rgb(160,27,225);stroke-opacity:0.18;stroke-width:1.64px;"/>
    </g>
    <path d="M-0.002,243.39L8.434,249.519L5.211,259.436L-5.216,259.436L-8.438,249.519L-0.002,243.39Z" style="fill:none;stroke:rgb(245,145,19);stroke-opacity:0.18;stroke-width:2px;"/>
    <g transform="matrix(1,0,0,1,300.002,0)">
        <path d="M-0.002,243.39L8.434,249.519L5.211,259.436L-5.216,259.436L-8.438,249.519L-0.002,243.39Z" style="fill:none;stroke:rgb(245,145,19);stroke-opacity:0.18;stroke-width:2px;"/>
    </g>
    <g transform="matrix(1,0,0,1,0,-2)">
        <path d="M171.234,203.101C168.157,203.101 165.662,205.596 165.662,208.673C165.662,211.748 168.159,214.244 171.234,214.244C174.311,214.244 176.805,211.75 176.805,208.673L171.234,208.673L171.234,203.101Z" style="fill:none;stroke:rgb(128,192,242);stroke-opacity:0.18;stroke-width:2px;"/>
    </g>
    <g transform="matrix(-0.847137,-0.531374,0.531374,-0.847137,158.153,534.8)">
        <path d="M171.234,203.101C168.157,203.101 165.662,205.596 165.662,208.673C165.662,211.748 168.159,214.244 171.234,214.244C174.311,214.244 176.805,211.75 176.805,208.673L171.234,208.673L171.234,203.101Z" style="fill:none;stroke:rgb(148,224,92);stroke-opacity:0.18;stroke-width:2px;"/>
    </g>
    <g transform="matrix(0.160172,0.987089,-0.987089,0.160172,389.221,-12.1148)">
        <path d="M171.234,203.101C168.157,203.101 165.662,205.596 165.662,208.673C165.662,211.748 168.159,214.244 171.234,214.244C174.311,214.244 176.805,211.75 176.805,208.673L171.234,208.673L171.234,203.101Z" style="fill:none;stroke:rgb(235,198,145);stroke-opacity:0.18;stroke-width:2px;"/>
    </g>
    <g transform="matrix(0.160172,0.987089,-0.987089,0.160172,408.456,20.1844)">
        <path d="M171.234,203.101C168.157,203.101 165.662,205.596 165.662,208.673C165.662,211.748 168.159,214.244 171.234,214.244C174.311,214.244 176.805,211.75 176.805,208.673L171.234,208.673L171.234,203.101Z" style="fill:none;stroke:rgb(238,32,159);stroke-opacity:0.18;stroke-width:2px;"/>
    </g>
    <path d="M281.745,210.648C278.582,210.648 276.017,213.212 276.017,216.375C276.017,219.536 278.584,222.103 281.745,222.103C284.908,222.103 287.472,219.538 287.472,216.375L281.745,216.375L281.745,210.648Z" style="fill:none;stroke:rgb(128,192,242);stroke-opacity:0.18;stroke-width:2px;"/>
    <g transform="matrix(1,0,0,1,0,2.18662)">
        <path d="M177.336,289.796C172.908,289.796 169.318,293.386 169.318,297.813C169.318,302.238 172.911,305.83 177.336,305.83C181.763,305.83 185.353,302.241 185.353,297.813L177.336,297.813L177.336,289.796Z" style="fill:none;stroke:rgb(148,224,92);stroke-opacity:0.18;stroke-width:2px;"/>
    </g>
    <g transform="matrix(1,0,0,1,0,-297.813)">
        <path d="M177.336,289.796C172.908,289.796 169.318,293.386 169.318,297.813C169.318,302.238 172.911,305.83 177.336,305.83C181.763,305.83 185.353,302.241 185.353,297.813L177.336,297.813L177.336,289.796Z" style="fill:none;stroke:rgb(148,224,92);stroke-opacity:0.18;stroke-width:2px;"/>
    </g>
    <path d="M25.727,4.069L31.474,9.816L25.727,15.563L19.98,9.816L25.727,4.069Z" style="fill:none;stroke:rgb(238,32,159);stroke-opacity:0.18;stroke-width:2px;"/>
    <path d="M82.6,3.49L87.829,8.719L82.6,13.947L77.372,8.719L82.6,3.49Z" style="fill:none;stroke:rgb(128,192,242);stroke-opacity:0.18;stroke-width:2px;"/>
    <g transform="matrix(1.7996,0,0,1,-190.874,0)">
        <path d="M233.753,67.637L238.713,72.597L233.753,77.557L228.794,72.597L233.753,67.637Z" style="fill:none;stroke:rgb(160,27,225);stroke-opacity:0.18;stroke-width:1.37px;"/>
    </g>
    <path d="M181.419,82.115L187.795,88.491L181.419,94.866L175.044,88.491L181.419,82.115Z" style="fill:none;stroke:rgb(160,27,225);stroke-opacity:0.18;stroke-width:2px;"/>
    <path d="M283.594,73.376L287.952,77.734L283.594,82.093L279.235,77.734L283.594,73.376Z" style="fill:none;stroke:rgb(216,48,29);stroke-opacity:0.18;stroke-width:2px;"/>
    <g transform="matrix(1,0,0,1,-171.195,190.025)">
        <path d="M283.594,73.376L287.952,77.734L283.594,82.093L279.235,77.734L283.594,73.376Z" style="fill:none;stroke:rgb(238,32,159);stroke-opacity:0.18;stroke-width:2px;"/>
    </g>
    <g transform="matrix(1,0,0,1,0,4)">
        <path d="M273.767,5.616L279.286,11.135L273.767,16.654L268.248,11.135L273.767,5.616Z" style="fill:none;stroke:rgb(247,228,51);stroke-opacity:0.18;stroke-width:2px;"/>
    </g>
    <g transform="matrix(1,0,0,1,-157.037,7.83356)">
        <path d="M273.767,5.616L279.286,11.135L273.767,16.654L268.248,11.135L273.767,5.616Z" style="fill:none;stroke:rgb(245,145,19);stroke-opacity:0.18;stroke-width:2px;"/>
    </g>
    <g transform="matrix(0.805577,0,0,0.805577,-119.587,-1.96282)">
        <path d="M273.767,5.616L279.286,11.135L273.767,16.654L268.248,11.135L273.767,5.616Z" style="fill:none;stroke:rgb(235,198,145);stroke-opacity:0.18;stroke-width:2.48px;"/>
    </g>
    <g transform="matrix(1.36277,0,0,2.81023,-43.9233,-223.82)">
        <path d="M115.052,118.997L133.186,123.021L115.052,127.044L96.919,123.021L115.052,118.997Z" style="fill:none;stroke:rgb(247,228,51);stroke-opacity:0.18;stroke-width:0.91px;"/>
    </g>
    <g transform="matrix(0.790957,0,0,1.47363,21.4965,-59.5859)">
        <path d="M115.052,118.997L133.186,123.021L115.052,127.044L96.919,123.021L115.052,118.997Z" style="fill:none;stroke:rgb(247,228,51);stroke-opacity:0.18;stroke-width:1.69px;"/>
    </g>
    <g transform="matrix(1,0,0,1,-9.49023,4.93913)">
        <path d="M253.764,92.175C251.973,93.905 250.967,96.25 250.967,98.696C250.967,103.786 255.245,107.918 260.515,107.918C265.785,107.918 270.063,103.786 270.063,98.696C270.063,96.25 269.057,93.905 267.267,92.175L263.891,95.436C264.786,96.301 265.289,97.473 265.289,98.696C265.289,101.241 263.15,103.307 260.515,103.307C257.88,103.307 255.741,101.241 255.741,98.696C255.741,97.473 256.244,96.301 257.139,95.436L253.764,92.175Z" style="fill:none;stroke:rgb(148,224,92);stroke-opacity:0.18;stroke-width:2px;"/>
    </g>
    <path d="M173.228,100.059C177.504,100.059 180.976,103.474 180.976,107.681C180.976,111.887 177.504,115.302 173.228,115.302C168.952,115.302 165.48,111.887 165.48,107.681C165.48,103.474 168.952,100.059 173.228,100.059ZM173.228,103.87C175.366,103.87 177.102,105.577 177.102,107.681C177.102,109.784 175.366,111.492 173.228,111.492C171.09,111.492 169.354,109.784 169.354,107.681C169.354,105.577 171.09,103.87 173.228,103.87Z" style="fill:none;stroke:rgb(191,132,93);stroke-opacity:0.18;stroke-width:2px;"/>
    <g transform="matrix(1.19321,0,0,1.19321,-52.3434,-24.8749)">
        <path d="M281.86,114.747L286.063,117.801L283.961,120.693L287.362,121.798L285.756,126.739L282.356,125.634L282.356,129.21L277.161,129.21L277.161,125.634L273.76,126.739L272.155,121.798L275.555,120.693L273.454,117.801L277.657,114.747L279.758,117.64L281.86,114.747Z" style="fill:none;stroke:rgb(35,129,29);stroke-opacity:0.18;stroke-width:1.68px;"/>
    </g>
    <g transform="matrix(0.969049,-0.246867,0.246867,0.969049,-212.261,-5.45538)">
        <path d="M281.86,114.747L286.063,117.801L283.961,120.693L287.362,121.798L285.756,126.739L282.356,125.634L282.356,129.21L277.161,129.21L277.161,125.634L273.76,126.739L272.155,121.798L275.555,120.693L273.454,117.801L277.657,114.747L279.758,117.64L281.86,114.747Z" style="fill:none;stroke:rgb(247,228,51);stroke-opacity:0.18;stroke-width:2px;"/>
    </g>
    <g transform="matrix(0.844026,-0.215017,0.215017,0.844026,-6.50744,152.362)">
        <path d="M281.86,114.747L286.063,117.801L283.961,120.693L287.362,121.798L285.756,126.739L282.356,125.634L282.356,129.21L277.161,129.21L277.161,125.634L273.76,126.739L272.155,121.798L275.555,120.693L273.454,117.801L277.657,114.747L279.758,117.64L281.86,114.747Z" style="fill:none;stroke:rgb(235,198,145);stroke-opacity:0.18;stroke-width:2.3px;"/>
    </g>
    <g transform="matrix(1,0,0,1,0,0.915642)">
        <path d="M249.384,284.681L254.789,288.608L252.087,292.328L256.459,293.749L254.395,300.103L250.022,298.682L250.022,303.28L243.341,303.28L243.341,298.682L238.968,300.103L236.904,293.749L241.277,292.328L238.574,288.608L243.979,284.681L246.682,288.401L249.384,284.681Z" style="fill:none;stroke:rgb(148,224,92);stroke-opacity:0.18;stroke-width:2px;"/>
    </g>
    <g transform="matrix(1,0,0,1,0,-294.084)">
        <path d="M249.384,284.681L254.789,288.608L252.087,292.328L256.459,293.749L254.395,300.103L250.022,298.682L250.022,303.28L243.341,303.28L243.341,298.682L238.968,300.103L236.904,293.749L241.277,292.328L238.574,288.608L243.979,284.681L246.682,288.401L249.384,284.681Z" style="fill:none;stroke:rgb(148,224,92);stroke-opacity:0.18;stroke-width:2px;"/>
    </g>
    <path d="M184.02,213.578C184.02,213.578 179.27,217.857 179.27,219.691C179.27,222.312 181.398,224.44 184.02,224.44C186.641,224.44 188.769,222.312 188.769,219.691C188.769,217.857 184.02,213.578 184.02,213.578Z" style="fill:none;stroke:rgb(148,224,92);stroke-opacity:0.18;stroke-width:2px;"/>
    <path d="M279.931,234.036C279.931,234.036 275.788,239.738 275.788,242.181C275.788,244.468 277.645,246.324 279.931,246.324C282.218,246.324 284.074,244.468 284.074,242.181C284.074,239.738 279.931,234.036 279.931,234.036Z" style="fill:none;stroke:rgb(238,32,159);stroke-opacity:0.18;stroke-width:2px;"/>
    <g transform="matrix(1,0,0,1,-5.37066,-144.458)">
        <path d="M279.931,234.036C279.931,234.036 275.788,239.738 275.788,242.181C275.788,244.468 277.645,246.324 279.931,246.324C282.218,246.324 284.074,244.468 284.074,242.181C284.074,239.738 279.931,234.036 279.931,234.036Z" style="fill:none;stroke:rgb(238,32,159);stroke-opacity:0.18;stroke-width:2px;"/>
    </g>
    <g transform="matrix(0.996839,-0.0794465,0.0794465,0.996839,-31.1238,-81.3555)">
        <path d="M279.931,234.036C279.931,234.036 275.788,239.738 275.788,242.181C275.788,244.468 277.645,246.324 279.931,246.324C282.218,246.324 284.074,244.468 284.074,242.181C284.074,239.738 279.931,234.036 279.931,234.036Z" style="fill:none;stroke:rgb(247,228,51);stroke-opacity:0.18;stroke-width:2px;"/>
    </g>
    <g transform="matrix(0.957319,0.289032,-0.289032,0.957319,91.9929,-48.0901)">
        <path d="M202.557,286.257C202.557,286.257 198.885,291.485 198.885,293.726C198.885,295.753 200.53,297.398 202.557,297.398C204.584,297.398 206.229,295.753 206.229,293.726C206.229,291.485 202.557,286.257 202.557,286.257Z" style="fill:none;stroke:rgb(148,224,92);stroke-opacity:0.18;stroke-width:2px;"/>
    </g>
    <g transform="matrix(1.22028,0.368426,-0.368426,1.22028,2.65576,-153.105)">
        <path d="M202.557,286.257C202.557,286.257 198.885,291.485 198.885,293.726C198.885,295.753 200.53,297.398 202.557,297.398C204.584,297.398 206.229,295.753 206.229,293.726C206.229,291.485 202.557,286.257 202.557,286.257Z" style="fill:none;stroke:rgb(35,129,29);stroke-opacity:0.18;stroke-width:1.57px;"/>
    </g>
    <g transform="matrix(1.11526,0,0,0.726682,-28.3063,-0.542488)">
        <rect x="262.948" y="-9.089" width="15.513" height="14.167" style="fill:none;stroke:rgb(245,145,19);stroke-opacity:0.18;stroke-width:2.12px;"/>
    </g>
    <g transform="matrix(1.11526,0,0,0.726682,-28.3063,299.458)">
        <rect x="262.948" y="-9.089" width="15.513" height="14.167" style="fill:none;stroke:rgb(245,145,19);stroke-opacity:0.18;stroke-width:2.12px;"/>
    </g>
</svg>
