<?xml version="1.0" encoding="UTF-8" standalone="no"?><!DOCTYPE svg PUBLIC "-//W3C//DTD SVG 1.1//EN" "http://www.w3.org/Graphics/SVG/1.1/DTD/svg11.dtd"><svg width="100%" height="100%" viewBox="0 0 300 300" version="1.1" xmlns="http://www.w3.org/2000/svg" xmlns:xlink="http://www.w3.org/1999/xlink" xml:space="preserve" xmlns:serif="http://www.serif.com/" style="fill-rule:evenodd;clip-rule:evenodd;stroke-linecap:round;stroke-linejoin:round;stroke-miterlimit:1.5;"><path d="M217.629,277.772l13.003,14.663l-16.104,4.688l3.101,-19.351Z" style="fill:none;stroke:#fff;stroke-opacity:0.04;stroke-width:2px;"/><path d="M232.373,34.416l1.216,21.912l-17.769,-7.503l16.553,-14.409Z" style="fill:none;stroke:#fff;stroke-opacity:0.04;stroke-width:2px;"/><path d="M170.716,233.891l-1.895,18.834l-14.31,-9.049l16.205,-9.785Z" style="fill:none;stroke:#fff;stroke-opacity:0.04;stroke-width:2px;"/><path d="M223.605,193.36c5.089,0 9.221,4.132 9.221,9.222c0,5.09 -4.132,9.222 -9.221,9.222c-5.09,-0 -9.222,-4.132 -9.222,-9.222c-0,-5.09 4.132,-9.222 9.222,-9.222Zm-0,4.611c2.544,0 4.61,2.066 4.61,4.611c0,2.545 -2.066,4.611 -4.61,4.611c-2.545,-0 -4.611,-2.066 -4.611,-4.611c-0,-2.545 2.066,-4.611 4.611,-4.611Z" style="fill:none;stroke:#fff;stroke-opacity:0.04;stroke-width:2px;"/><path d="M34.71,124.329c4.03,0 7.302,3.272 7.302,7.302c0,4.031 -3.272,7.303 -7.302,7.303c-4.03,-0 -7.302,-3.272 -7.302,-7.303c0,-4.03 3.272,-7.302 7.302,-7.302Zm0,3.651c2.015,0 3.651,1.636 3.651,3.651c0,2.016 -1.636,3.652 -3.651,3.652c-2.015,-0 -3.651,-1.636 -3.651,-3.652c0,-2.015 1.636,-3.651 3.651,-3.651Z" style="fill:none;stroke:#fff;stroke-opacity:0.04;stroke-width:2px;"/><path d="M0,133.537c4.03,-0 7.302,3.272 7.302,7.302c0,4.03 -3.272,7.302 -7.302,7.302c-4.03,0 -7.302,-3.272 -7.302,-7.302c-0,-4.03 3.272,-7.302 7.302,-7.302Zm0,3.651c2.015,0 3.651,1.636 3.651,3.651c0,2.015 -1.636,3.651 -3.651,3.651c-2.015,0 -3.651,-1.636 -3.651,-3.651c-0,-2.015 1.636,-3.651 3.651,-3.651Z" style="fill:none;stroke:#fff;stroke-opacity:0.04;stroke-width:2px;"/><path d="M300,133.537c4.03,-0 7.302,3.272 7.302,7.302c0,4.03 -3.272,7.302 -7.302,7.302c-4.03,0 -7.302,-3.272 -7.302,-7.302c-0,-4.03 3.272,-7.302 7.302,-7.302Zm0,3.651c2.015,0 3.651,1.636 3.651,3.651c0,2.015 -1.636,3.651 -3.651,3.651c-2.015,0 -3.651,-1.636 -3.651,-3.651c-0,-2.015 1.636,-3.651 3.651,-3.651Z" style="fill:none;stroke:#fff;stroke-opacity:0.04;stroke-width:2px;"/><path d="M72.295,100.764c5.23,0 9.476,4.246 9.476,9.476c-0,5.229 -4.246,9.475 -9.476,9.475c-5.229,0 -9.475,-4.246 -9.475,-9.475c-0,-5.23 4.246,-9.476 9.475,-9.476Zm0,4.738c2.615,-0 4.738,2.123 4.738,4.738c0,2.614 -2.123,4.737 -4.738,4.737c-2.615,0 -4.737,-2.123 -4.737,-4.737c-0,-2.615 2.122,-4.738 4.737,-4.738Z" style="fill:none;stroke:#fff;stroke-opacity:0.04;stroke-width:2px;"/><path d="M189.579,229.956c5.637,0 10.213,4.577 10.213,10.214c0,5.636 -4.576,10.213 -10.213,10.213c-5.637,-0 -10.213,-4.577 -10.213,-10.213c-0,-5.637 4.576,-10.214 10.213,-10.214Zm-0,5.107c2.818,-0 5.106,2.288 5.106,5.107c0,2.818 -2.288,5.106 -5.106,5.106c-2.819,0 -5.107,-2.288 -5.107,-5.106c0,-2.819 2.288,-5.107 5.107,-5.107Z" style="fill:none;stroke:#fff;stroke-opacity:0.04;stroke-width:2px;"/><path d="M68.975,247.723c5.037,-0 9.127,4.089 9.127,9.127c-0,5.037 -4.09,9.126 -9.127,9.126c-5.037,0 -9.127,-4.089 -9.127,-9.126c0,-5.038 4.09,-9.127 9.127,-9.127Zm0,4.563c2.519,0 4.563,2.045 4.563,4.564c0,2.518 -2.044,4.563 -4.563,4.563c-2.519,-0 -4.563,-2.045 -4.563,-4.563c-0,-2.519 2.044,-4.564 4.563,-4.564Z" style="fill:none;stroke:#fff;stroke-opacity:0.04;stroke-width:2px;"/><path d="M232.607,170.871l10.853,5.799l-8.98,6.363l-1.873,-12.162Z" style="fill:none;stroke:#fff;stroke-opacity:0.04;stroke-width:2px;"/><path d="M102.76,216.131l1.808,7.712l7.794,3.247l-7.256,3.682l-0.605,7.782l-6.293,-5.437l-8.168,1.562l3.367,-7.041l-4.443,-6.817l8.374,1.085l5.422,-5.775Z" style="fill:none;stroke:#fff;stroke-opacity:0.04;stroke-width:2px;"/><path d="M248.179,40.27l8.538,0.269l5.558,-7.212l1.81,8.586l7.937,2.802l-7.419,5.038l-0.653,8.944l-6.395,-5.473l-8.341,2.726l3.467,-8.42l-4.502,-7.26Z" style="fill:none;stroke:#fff;stroke-opacity:0.04;stroke-width:2px;"/><path d="M252.602,230.689l-3.667,5.913l2.824,6.857l-6.793,-2.219l-5.209,4.457l-0.532,-7.285l-6.043,-4.102l6.465,-2.283l1.474,-6.993l4.527,5.874l6.954,-0.219Z" style="fill:none;stroke:#fff;stroke-opacity:0.04;stroke-width:2px;"/><path d="M177.203,278.815l4.654,-7.505l-3.584,-8.703l8.621,2.817l6.612,-5.657l0.674,9.246l7.67,5.207l-8.205,2.897l-1.871,8.875l-5.745,-7.456l-8.826,0.279Z" style="fill:none;stroke:#fff;stroke-opacity:0.04;stroke-width:2px;"/><path d="M110.774,306.535l4.654,-7.505l-3.584,-8.703l8.622,2.817l6.611,-5.657l0.675,9.246l7.669,5.207l-8.204,2.897l-1.871,8.875l-5.746,-7.456l-8.826,0.279Z" style="fill:none;stroke:#fff;stroke-opacity:0.04;stroke-width:2px;"/><path d="M110.774,6.535l4.654,-7.505l-3.584,-8.703l8.622,2.817l6.611,-5.657l0.675,9.246l7.669,5.207l-8.204,2.897l-1.871,8.875l-5.746,-7.456l-8.826,0.279Z" style="fill:none;stroke:#fff;stroke-opacity:0.04;stroke-width:2px;"/><path d="M-6.318,227.799l4.654,-7.504l-3.584,-8.704l8.621,2.818l6.612,-5.657l0.674,9.245l7.67,5.208l-8.205,2.896l-1.871,8.876l-5.745,-7.456l-8.826,0.278Z" style="fill:none;stroke:#fff;stroke-opacity:0.04;stroke-width:2px;"/><path d="M293.682,227.799l4.654,-7.504l-3.584,-8.704l8.621,2.818l6.612,-5.657l0.674,9.245l7.67,5.208l-8.205,2.896l-1.871,8.876l-5.745,-7.456l-8.826,0.278Z" style="fill:none;stroke:#fff;stroke-opacity:0.04;stroke-width:2px;"/><path d="M86.424,91.728l8.224,0.259l5.354,-6.948l1.744,8.271l7.645,2.699l-7.147,4.853l-0.629,8.615l-6.16,-5.271l-8.034,2.625l3.339,-8.11l-4.336,-6.993Z" style="fill:none;stroke:#fff;stroke-opacity:0.04;stroke-width:2px;"/><path d="M157.693,106.411l-8.503,-5.273l-9.863,4.061l3.193,-9.77l-6.41,-7.491l10.476,-0.765l5.901,-8.691l3.282,9.297l10.057,2.12l-8.448,6.511l0.315,10.001Z" style="fill:none;stroke:#fff;stroke-opacity:0.04;stroke-width:2px;"/><path d="M153.146,98.346l-3.286,-2.038l-3.812,1.569l1.234,-3.775l-2.477,-2.895l4.048,-0.295l2.281,-3.359l1.268,3.593l3.887,0.819l-3.265,2.516l0.122,3.865Z" style="fill:none;stroke:#fff;stroke-opacity:0.04;stroke-width:2px;"/><path d="M42.795,189.524l7.681,2.32l6.795,-5.192l-0.445,8.229l6.52,4.472l-7.956,2.766l-2.766,7.956l-4.472,-6.519l-8.23,0.445l5.193,-6.796l-2.32,-7.681Z" style="fill:none;stroke:#fff;stroke-opacity:0.04;stroke-width:2px;"/><path d="M163.911,38.655l9.464,9.699l-11.545,3.692l2.081,-13.391Z" style="fill:none;stroke:#fff;stroke-opacity:0.04;stroke-width:2px;"/><path d="M166.882,169.537l1.82,22.31l-18.575,-7.468l16.755,-14.842Z" style="fill:none;stroke:#fff;stroke-opacity:0.04;stroke-width:2px;"/><path d="M239.223,119.029l7.25,14.501l-14.501,-0l7.251,-14.501Z" style="fill:none;stroke:#fff;stroke-opacity:0.04;stroke-width:2px;"/><path d="M72.621,15.893l1.033,19.254l-15.816,-6.876l14.783,-12.378Z" style="fill:none;stroke:#fff;stroke-opacity:0.04;stroke-width:2px;"/><path d="M15.106,19.936l0.917,17.091l-14.039,-6.103l13.122,-10.988Z" style="fill:none;stroke:#fff;stroke-opacity:0.04;stroke-width:2px;"/><path d="M19.457,54.006l17.645,9.593l-14.733,10.279l-2.912,-19.872Z" style="fill:none;stroke:#fff;stroke-opacity:0.04;stroke-width:2px;"/><path d="M26.021,159.258l-12.792,-4.583l-4.583,12.792l12.792,4.583l4.583,-12.792Z" style="fill:none;stroke:#fff;stroke-opacity:0.04;stroke-width:2px;"/><path d="M209.009,128.066l-9.472,9.944l9.944,9.472l9.472,-9.944l-9.944,-9.472Z" style="fill:none;stroke:#fff;stroke-opacity:0.04;stroke-width:2px;"/><path d="M92.307,171.49l-4.416,-12.083l-12.083,4.416l4.416,12.083l12.083,-4.416Z" style="fill:none;stroke:#fff;stroke-opacity:0.04;stroke-width:2px;"/><path d="M143.004,23.538l-11.699,-4.191l-4.191,11.7l11.699,4.191l4.191,-11.7Z" style="fill:none;stroke:#fff;stroke-opacity:0.04;stroke-width:2px;"/><path d="M60.664,56.887l8.123,-6.305l-6.305,-8.122l-8.123,6.305l6.305,8.122Z" style="fill:none;stroke:#fff;stroke-opacity:0.04;stroke-width:2px;"/><circle cx="62.915" cy="176.115" r="3.911" style="fill:none;stroke:#fff;stroke-opacity:0.04;stroke-width:2px;"/><circle cx="26.002" cy="183.653" r="3.911" style="fill:none;stroke:#fff;stroke-opacity:0.04;stroke-width:2px;"/><circle cx="9.951" cy="196.848" r="3.911" style="fill:none;stroke:#fff;stroke-opacity:0.04;stroke-width:2px;"/><circle cx="41.368" cy="258.302" r="3.911" style="fill:none;stroke:#fff;stroke-opacity:0.04;stroke-width:2px;"/><circle cx="51.483" cy="244.543" r="4.667" style="fill:none;stroke:#fff;stroke-opacity:0.04;stroke-width:2px;"/><circle cx="50.152" cy="69.337" r="3.599" style="fill:none;stroke:#fff;stroke-opacity:0.04;stroke-width:2px;"/><circle cx="26.364" cy="292.568" r="3.599" style="fill:none;stroke:#fff;stroke-opacity:0.04;stroke-width:2px;"/><circle cx="76.164" cy="292.206" r="3.599" style="fill:none;stroke:#fff;stroke-opacity:0.04;stroke-width:2px;"/><circle cx="174.498" cy="128.181" r="3.599" style="fill:none;stroke:#fff;stroke-opacity:0.04;stroke-width:2px;"/><circle cx="143.79" cy="143.957" r="3.599" style="fill:none;stroke:#fff;stroke-opacity:0.04;stroke-width:2px;"/><circle cx="254.97" cy="145.564" r="3.599" style="fill:none;stroke:#fff;stroke-opacity:0.04;stroke-width:2px;"/><ellipse cx="194.125" cy="147.034" rx="3.227" ry="2.859" style="fill:none;stroke:#fff;stroke-opacity:0.04;stroke-width:2px;"/><ellipse cx="189.358" cy="164.263" rx="3.227" ry="2.859" style="fill:none;stroke:#fff;stroke-opacity:0.04;stroke-width:2px;"/><ellipse cx="216.668" cy="220.576" rx="3.227" ry="2.859" style="fill:none;stroke:#fff;stroke-opacity:0.04;stroke-width:2px;"/><ellipse cx="281.518" cy="179.52" rx="3.227" ry="2.859" style="fill:none;stroke:#fff;stroke-opacity:0.04;stroke-width:2px;"/><ellipse cx="210.764" cy="78.938" rx="3.227" ry="2.859" style="fill:none;stroke:#fff;stroke-opacity:0.04;stroke-width:2px;"/><ellipse cx="282.11" cy="257.849" rx="3.227" ry="2.859" style="fill:none;stroke:#fff;stroke-opacity:0.04;stroke-width:2px;"/><ellipse cx="266.727" cy="263.094" rx="3.227" ry="2.859" style="fill:none;stroke:#fff;stroke-opacity:0.04;stroke-width:2px;"/><ellipse cx="256.807" cy="88.296" rx="3.227" ry="2.859" style="fill:none;stroke:#fff;stroke-opacity:0.04;stroke-width:2px;"/><ellipse cx="290.879" cy="275.784" rx="3.227" ry="2.859" style="fill:none;stroke:#fff;stroke-opacity:0.04;stroke-width:2px;"/><ellipse cx="284.761" cy="284.662" rx="3.227" ry="2.859" style="fill:none;stroke:#fff;stroke-opacity:0.04;stroke-width:2px;"/><circle cx="77.757" cy="58.094" r="4.843" style="fill:none;stroke:#fff;stroke-opacity:0.04;stroke-width:2px;"/><circle cx="212.543" cy="30.628" r="4.057" style="fill:none;stroke:#fff;stroke-opacity:0.04;stroke-width:2px;"/><circle cx="146.196" cy="47.22" r="5.063" style="fill:none;stroke:#fff;stroke-opacity:0.04;stroke-width:2px;"/><ellipse cx="28.829" cy="106.573" rx="7.229" ry="7.364" style="fill:none;stroke:#fff;stroke-opacity:0.04;stroke-width:2px;"/><circle cx="240.48" cy="191.054" r="4.057" style="fill:none;stroke:#fff;stroke-opacity:0.04;stroke-width:2px;"/><circle cx="19.152" cy="45.624" r="3.383" style="fill:none;stroke:#fff;stroke-opacity:0.04;stroke-width:2px;"/><circle cx="111.67" cy="33.215" r="3.383" style="fill:none;stroke:#fff;stroke-opacity:0.04;stroke-width:2px;"/><circle cx="153.625" cy="7.132" r="3.383" style="fill:none;stroke:#fff;stroke-opacity:0.04;stroke-width:2px;"/><circle cx="104.976" cy="49.122" r="3.383" style="fill:none;stroke:#fff;stroke-opacity:0.04;stroke-width:2px;"/><circle cx="263.907" cy="116.407" r="3.383" style="fill:none;stroke:#fff;stroke-opacity:0.04;stroke-width:2px;"/><circle cx="255.188" cy="126.226" r="3.383" style="fill:none;stroke:#fff;stroke-opacity:0.04;stroke-width:2px;"/><circle cx="118.473" cy="281.323" r="3.383" style="fill:none;stroke:#fff;stroke-opacity:0.04;stroke-width:2px;"/><circle cx="242.432" cy="210.928" r="3.383" style="fill:none;stroke:#fff;stroke-opacity:0.04;stroke-width:2px;"/><circle cx="168.307" cy="224.202" r="3.383" style="fill:none;stroke:#fff;stroke-opacity:0.04;stroke-width:2px;"/><circle cx="181.004" cy="178.737" r="3.383" style="fill:none;stroke:#fff;stroke-opacity:0.04;stroke-width:2px;"/><circle cx="204.514" cy="261.459" r="3.383" style="fill:none;stroke:#fff;stroke-opacity:0.04;stroke-width:2px;"/><circle cx="142.514" cy="243.459" r="3.383" style="fill:none;stroke:#fff;stroke-opacity:0.04;stroke-width:2px;"/><circle cx="161.754" cy="292.913" r="3.383" style="fill:none;stroke:#fff;stroke-opacity:0.04;stroke-width:2px;"/><circle cx="136.861" cy="292.718" r="3.383" style="fill:none;stroke:#fff;stroke-opacity:0.04;stroke-width:2px;"/><circle cx="124.784" cy="228.867" r="3.383" style="fill:none;stroke:#fff;stroke-opacity:0.04;stroke-width:2px;"/><circle cx="99.973" cy="294.081" r="3.383" style="fill:none;stroke:#fff;stroke-opacity:0.04;stroke-width:2px;"/><circle cx="95.974" cy="23.555" r="8.659" style="fill:none;stroke:#fff;stroke-opacity:0.04;stroke-width:2px;"/><circle cx="123.26" cy="102.318" r="5.413" style="fill:none;stroke:#fff;stroke-opacity:0.04;stroke-width:2px;"/><circle cx="215.901" cy="62.42" r="4.545" style="fill:none;stroke:#fff;stroke-opacity:0.04;stroke-width:2px;"/><circle cx="103.199" cy="143.853" r="4.545" style="fill:none;stroke:#fff;stroke-opacity:0.04;stroke-width:2px;"/><circle cx="192.354" cy="121.301" r="8.231" style="fill:none;stroke:#fff;stroke-opacity:0.04;stroke-width:2px;"/><path d="M83.166,182.773c6.738,0 12.21,5.472 12.21,12.211c-0,6.738 -5.472,12.21 -12.21,12.21c-6.739,-0 -12.21,-5.472 -12.21,-12.21c-0,-6.739 5.471,-12.211 12.21,-12.211Zm-0,6.106c3.369,-0 6.105,2.735 6.105,6.105c-0,3.369 -2.736,6.105 -6.105,6.105c-3.37,-0 -6.105,-2.736 -6.105,-6.105c-0,-3.37 2.735,-6.105 6.105,-6.105Z" style="fill:none;stroke:#fff;stroke-opacity:0.04;stroke-width:2px;"/><path d="M34.636,20.796c6.507,0 11.789,5.283 11.789,11.79c0,6.507 -5.282,11.79 -11.789,11.79c-6.507,-0 -11.79,-5.283 -11.79,-11.79c0,-6.507 5.283,-11.79 11.79,-11.79Zm-0,5.895c3.253,0 5.895,2.642 5.895,5.895c-0,3.254 -2.642,5.895 -5.895,5.895c-3.254,-0 -5.895,-2.641 -5.895,-5.895c-0,-3.253 2.641,-5.895 5.895,-5.895Z" style="fill:none;stroke:#fff;stroke-opacity:0.04;stroke-width:2px;"/><path d="M-5,45.817c6.507,-0 11.79,5.282 11.79,11.789c-0,6.507 -5.283,11.79 -11.79,11.79c-6.507,-0 -11.79,-5.283 -11.79,-11.79c0,-6.507 5.283,-11.789 11.79,-11.789Zm-0,5.894c3.253,0 5.895,2.642 5.895,5.895c-0,3.254 -2.642,5.895 -5.895,5.895c-3.253,0 -5.895,-2.641 -5.895,-5.895c0,-3.253 2.642,-5.895 5.895,-5.895Z" style="fill:none;stroke:#fff;stroke-opacity:0.04;stroke-width:2px;"/><path d="M295,45.817c6.507,-0 11.79,5.282 11.79,11.789c-0,6.507 -5.283,11.79 -11.79,11.79c-6.507,-0 -11.79,-5.283 -11.79,-11.79c0,-6.507 5.283,-11.789 11.79,-11.789Zm0,5.894c3.253,0 5.895,2.642 5.895,5.895c-0,3.254 -2.642,5.895 -5.895,5.895c-3.253,0 -5.895,-2.641 -5.895,-5.895c0,-3.253 2.642,-5.895 5.895,-5.895Z" style="fill:none;stroke:#fff;stroke-opacity:0.04;stroke-width:2px;"/><path d="M170.211,57.97c5.939,0 10.761,4.857 10.761,10.839c0,5.982 -4.822,10.838 -10.761,10.838c-5.94,0 -10.762,-4.856 -10.762,-10.838c0,-5.982 4.822,-10.839 10.762,-10.839Zm-0,5.42c2.969,-0 5.38,2.428 5.38,5.419c0,2.991 -2.411,5.419 -5.38,5.419c-2.97,-0 -5.381,-2.428 -5.381,-5.419c0,-2.991 2.411,-5.419 5.381,-5.419Z" style="fill:none;stroke:#fff;stroke-opacity:0.04;stroke-width:2px;"/><path d="M0,-11.79c6.507,0 11.79,5.283 11.79,11.79c-0,6.507 -5.283,11.79 -11.79,11.79c-6.507,-0 -11.79,-5.283 -11.79,-11.79c0,-6.507 5.283,-11.79 11.79,-11.79Zm0,5.895c3.253,0 5.895,2.642 5.895,5.895c-0,3.253 -2.642,5.895 -5.895,5.895c-3.253,-0 -5.895,-2.642 -5.895,-5.895c0,-3.253 2.642,-5.895 5.895,-5.895Z" style="fill:none;stroke:#fff;stroke-opacity:0.04;stroke-width:2px;"/><path d="M300,-11.79c6.507,0 11.79,5.283 11.79,11.79c-0,6.507 -5.283,11.79 -11.79,11.79c-6.507,-0 -11.79,-5.283 -11.79,-11.79c0,-6.507 5.283,-11.79 11.79,-11.79Zm0,5.895c3.253,0 5.895,2.642 5.895,5.895c-0,3.253 -2.642,5.895 -5.895,5.895c-3.253,-0 -5.895,-2.642 -5.895,-5.895c0,-3.253 2.642,-5.895 5.895,-5.895Z" style="fill:none;stroke:#fff;stroke-opacity:0.04;stroke-width:2px;"/><path d="M300,288.21c6.507,0 11.79,5.283 11.79,11.79c-0,6.507 -5.283,11.79 -11.79,11.79c-6.507,-0 -11.79,-5.283 -11.79,-11.79c0,-6.507 5.283,-11.79 11.79,-11.79Zm0,5.895c3.253,0 5.895,2.642 5.895,5.895c-0,3.253 -2.642,5.895 -5.895,5.895c-3.253,-0 -5.895,-2.642 -5.895,-5.895c0,-3.253 2.642,-5.895 5.895,-5.895Z" style="fill:none;stroke:#fff;stroke-opacity:0.04;stroke-width:2px;"/><path d="M0,288.21c6.507,0 11.79,5.283 11.79,11.79c-0,6.507 -5.283,11.79 -11.79,11.79c-6.507,-0 -11.79,-5.283 -11.79,-11.79c0,-6.507 5.283,-11.79 11.79,-11.79Zm0,5.895c3.253,0 5.895,2.642 5.895,5.895c-0,3.253 -2.642,5.895 -5.895,5.895c-3.253,-0 -5.895,-2.642 -5.895,-5.895c0,-3.253 2.642,-5.895 5.895,-5.895Z" style="fill:none;stroke:#fff;stroke-opacity:0.04;stroke-width:2px;"/><path d="M216.849,109.108c4.725,-0 8.562,3.836 8.562,8.561c-0,4.725 -3.837,8.561 -8.562,8.561c-4.725,0 -8.561,-3.836 -8.561,-8.561c0,-4.725 3.836,-8.561 8.561,-8.561Zm0,4.281c2.363,-0 4.281,1.918 4.281,4.28c-0,2.363 -1.918,4.281 -4.281,4.281c-2.362,-0 -4.28,-1.918 -4.28,-4.281c-0,-2.362 1.918,-4.28 4.28,-4.28Z" style="fill:none;stroke:#fff;stroke-opacity:0.04;stroke-width:2px;"/><path d="M107.82,158.411c4.167,0 7.55,3.383 7.55,7.55c-0,4.167 -3.383,7.55 -7.55,7.55c-4.167,-0 -7.55,-3.383 -7.55,-7.55c0,-4.167 3.383,-7.55 7.55,-7.55Zm0,3.775c2.083,0 3.775,1.692 3.775,3.775c-0,2.084 -1.692,3.775 -3.775,3.775c-2.083,0 -3.775,-1.691 -3.775,-3.775c0,-2.083 1.692,-3.775 3.775,-3.775Z" style="fill:none;stroke:#fff;stroke-opacity:0.04;stroke-width:2px;"/><path d="M173.559,139.969c5.452,-0 9.879,4.427 9.879,9.879c-0,5.452 -4.427,9.879 -9.879,9.879c-5.452,-0 -9.879,-4.427 -9.879,-9.879c-0,-5.452 4.427,-9.879 9.879,-9.879Zm-0,4.939c2.726,0 4.939,2.214 4.939,4.94c0,2.726 -2.213,4.939 -4.939,4.939c-2.726,0 -4.94,-2.213 -4.94,-4.939c0,-2.726 2.214,-4.94 4.94,-4.94Z" style="fill:none;stroke:#fff;stroke-opacity:0.04;stroke-width:2px;"/><path d="M260.319,207.689c4.974,0 9.011,4.038 9.011,9.011c0,4.973 -4.037,9.011 -9.011,9.011c-4.973,-0 -9.01,-4.038 -9.01,-9.011c-0,-4.973 4.037,-9.011 9.01,-9.011Zm0,4.506c2.487,-0 4.506,2.018 4.506,4.505c-0,2.487 -2.019,4.505 -4.506,4.505c-2.486,0 -4.505,-2.018 -4.505,-4.505c0,-2.487 2.019,-4.505 4.505,-4.505Z" style="fill:none;stroke:#fff;stroke-opacity:0.04;stroke-width:2px;"/><path d="M161.691,261.986c5.766,-0 10.448,4.681 10.448,10.448c-0,5.766 -4.682,10.447 -10.448,10.447c-5.766,0 -10.448,-4.681 -10.448,-10.447c0,-5.767 4.682,-10.448 10.448,-10.448Zm-0,5.224c2.883,-0 5.224,2.341 5.224,5.224c-0,2.883 -2.341,5.223 -5.224,5.223c-2.883,0 -5.224,-2.34 -5.224,-5.223c0,-2.883 2.341,-5.224 5.224,-5.224Z" style="fill:none;stroke:#fff;stroke-opacity:0.04;stroke-width:2px;"/><path d="M244.018,253.529c-0.786,-0.077 -1.578,-0.077 -2.363,-0l-0.39,1.895c-0.753,0.115 -1.491,0.313 -2.201,0.589l-1.284,-1.446c-0.719,0.327 -1.405,0.723 -2.047,1.182l0.61,1.835c-0.594,0.477 -1.135,1.017 -1.611,1.612l-1.836,-0.611c-0.459,0.643 -0.855,1.328 -1.181,2.047l1.446,1.284c-0.277,0.71 -0.475,1.449 -0.59,2.202l-1.895,0.389c-0.076,0.786 -0.076,1.577 0,2.363l1.895,0.389c0.115,0.754 0.313,1.492 0.59,2.202l-1.446,1.284c0.326,0.719 0.722,1.405 1.181,2.047l1.836,-0.61c0.476,0.594 1.017,1.135 1.611,1.611l-0.61,1.836c0.642,0.459 1.328,0.854 2.047,1.181l1.284,-1.446c0.71,0.277 1.448,0.475 2.201,0.59l0.39,1.895c0.785,0.076 1.577,0.076 2.363,-0l0.389,-1.895c0.753,-0.115 1.491,-0.313 2.201,-0.59l1.285,1.446c0.719,-0.327 1.404,-0.722 2.046,-1.181l-0.61,-1.836c0.595,-0.476 1.135,-1.017 1.612,-1.611l1.835,0.61c0.459,-0.642 0.855,-1.328 1.182,-2.047l-1.447,-1.284c0.277,-0.71 0.475,-1.448 0.59,-2.202l1.895,-0.389c0.076,-0.786 0.076,-1.577 0,-2.363l-1.895,-0.389c-0.115,-0.753 -0.313,-1.492 -0.59,-2.202l1.447,-1.284c-0.327,-0.719 -0.723,-1.404 -1.182,-2.047l-1.835,0.611c-0.477,-0.595 -1.017,-1.135 -1.612,-1.612l0.61,-1.835c-0.642,-0.459 -1.327,-0.855 -2.046,-1.182l-1.285,1.446c-0.71,-0.276 -1.448,-0.474 -2.201,-0.589l-0.389,-1.895Zm-1.182,9.716c1.349,0 2.444,1.095 2.444,2.444c-0,1.348 -1.095,2.443 -2.444,2.443c-1.348,0 -2.443,-1.095 -2.443,-2.443c-0,-1.349 1.095,-2.444 2.443,-2.444Z" style="fill:none;stroke:#fff;stroke-opacity:0.04;stroke-width:2px;"/><path d="M134.536,163.984c-0.626,-0.061 -1.256,-0.061 -1.882,0l-0.31,1.509c-0.6,0.092 -1.187,0.249 -1.753,0.47l-1.023,-1.152c-0.572,0.26 -1.118,0.575 -1.629,0.941l0.486,1.462c-0.474,0.379 -0.904,0.809 -1.284,1.283l-1.461,-0.486c-0.366,0.511 -0.681,1.057 -0.941,1.629l1.152,1.023c-0.221,0.566 -0.378,1.154 -0.47,1.753l-1.509,0.31c-0.061,0.626 -0.061,1.256 -0,1.882l1.509,0.31c0.092,0.6 0.249,1.188 0.47,1.753l-1.152,1.023c0.26,0.572 0.575,1.118 0.941,1.63l1.461,-0.486c0.38,0.473 0.81,0.903 1.284,1.283l-0.486,1.461c0.511,0.366 1.057,0.681 1.629,0.941l1.023,-1.151c0.566,0.22 1.153,0.378 1.753,0.469l0.31,1.509c0.626,0.061 1.256,0.061 1.882,0l0.31,-1.509c0.6,-0.091 1.188,-0.249 1.753,-0.469l1.023,1.151c0.572,-0.26 1.118,-0.575 1.629,-0.941l-0.486,-1.461c0.474,-0.38 0.904,-0.81 1.284,-1.283l1.461,0.486c0.366,-0.512 0.681,-1.058 0.941,-1.63l-1.151,-1.023c0.22,-0.565 0.377,-1.153 0.469,-1.753l1.509,-0.31c0.061,-0.626 0.061,-1.256 0,-1.882l-1.509,-0.31c-0.092,-0.599 -0.249,-1.187 -0.469,-1.753l1.151,-1.023c-0.26,-0.572 -0.575,-1.118 -0.941,-1.629l-1.461,0.486c-0.38,-0.474 -0.81,-0.904 -1.284,-1.283l0.486,-1.462c-0.511,-0.366 -1.057,-0.681 -1.629,-0.941l-1.023,1.152c-0.565,-0.221 -1.153,-0.378 -1.753,-0.47l-0.31,-1.509Zm-0.941,7.737c1.074,0 1.946,0.872 1.946,1.946c-0,1.074 -0.872,1.946 -1.946,1.946c-1.074,-0 -1.946,-0.872 -1.946,-1.946c0,-1.074 0.872,-1.946 1.946,-1.946Z" style="fill:none;stroke:#fff;stroke-opacity:0.04;stroke-width:2px;"/><path d="M70.946,212.856c-0.845,-0.082 -1.696,-0.082 -2.541,0l-0.418,2.037c-0.81,0.124 -1.603,0.337 -2.367,0.634l-1.38,-1.555c-0.773,0.352 -1.51,0.777 -2.2,1.271l0.656,1.973c-0.64,0.512 -1.221,1.093 -1.733,1.732l-1.973,-0.656c-0.493,0.691 -0.919,1.428 -1.27,2.2l1.555,1.381c-0.298,0.763 -0.511,1.557 -0.634,2.367l-2.037,0.418c-0.082,0.845 -0.082,1.696 -0,2.54l2.037,0.419c0.123,0.81 0.336,1.603 0.634,2.366l-1.555,1.381c0.351,0.773 0.777,1.51 1.27,2.2l1.973,-0.656c0.512,0.639 1.093,1.22 1.733,1.733l-0.656,1.973c0.69,0.493 1.427,0.919 2.2,1.27l1.38,-1.555c0.764,0.298 1.557,0.51 2.367,0.634l0.418,2.037c0.845,0.082 1.696,0.082 2.541,0l0.418,-2.037c0.81,-0.124 1.604,-0.336 2.367,-0.634l1.381,1.555c0.772,-0.351 1.509,-0.777 2.2,-1.27l-0.656,-1.973c0.639,-0.513 1.22,-1.094 1.732,-1.733l1.973,0.656c0.494,-0.69 0.919,-1.427 1.27,-2.2l-1.554,-1.381c0.297,-0.763 0.51,-1.556 0.634,-2.366l2.037,-0.419c0.082,-0.844 0.082,-1.695 -0,-2.54l-2.037,-0.418c-0.124,-0.81 -0.337,-1.604 -0.634,-2.367l1.554,-1.381c-0.351,-0.772 -0.776,-1.509 -1.27,-2.2l-1.973,0.656c-0.512,-0.639 -1.093,-1.22 -1.732,-1.732l0.656,-1.973c-0.691,-0.494 -1.428,-0.919 -2.2,-1.271l-1.381,1.555c-0.763,-0.297 -1.557,-0.51 -2.367,-0.634l-0.418,-2.037Zm-1.27,10.445c1.449,0 2.626,1.177 2.626,2.627c0,1.45 -1.177,2.627 -2.626,2.627c-1.45,-0 -2.627,-1.177 -2.627,-2.627c-0,-1.45 1.177,-2.627 2.627,-2.627Z" style="fill:none;stroke:#fff;stroke-opacity:0.04;stroke-width:2px;"/><path d="M147.406,214.986c0.457,-1.128 1.744,-1.673 2.872,-1.215c1.128,0.457 1.672,1.744 1.215,2.872c0.96,-0.749 2.347,-0.577 3.095,0.383c0.748,0.96 0.576,2.347 -0.384,3.095c1.205,-0.168 2.32,0.675 2.488,1.88c0.168,1.205 -0.674,2.32 -1.88,2.488c1.128,0.458 1.673,1.745 1.216,2.872c-0.458,1.128 -1.745,1.673 -2.873,1.215c0.749,0.96 0.577,2.347 -0.383,3.095c-0.96,0.748 -2.347,0.577 -3.095,-0.383c0.168,1.205 -0.675,2.32 -1.88,2.488c-1.205,0.168 -2.32,-0.674 -2.488,-1.88c-0.458,1.128 -1.744,1.672 -2.872,1.215c-1.128,-0.457 -1.673,-1.744 -1.215,-2.872c-0.96,0.748 -2.347,0.576 -3.095,-0.384c-0.748,-0.96 -0.576,-2.346 0.383,-3.094c-1.205,0.167 -2.32,-0.675 -2.488,-1.88c-0.168,-1.206 0.675,-2.321 1.88,-2.489c-1.128,-0.457 -1.672,-1.744 -1.215,-2.872c0.457,-1.128 1.744,-1.672 2.872,-1.215c-0.748,-0.96 -0.576,-2.346 0.384,-3.095c0.96,-0.748 2.346,-0.576 3.095,0.384c-0.168,-1.205 0.674,-2.32 1.879,-2.488c1.206,-0.168 2.321,0.674 2.489,1.88Z" style="fill:none;stroke:#fff;stroke-opacity:0.04;stroke-width:2px;"/><path d="M194.178,59.61c-0,-1.028 0.834,-1.862 1.861,-1.862c1.028,0 1.862,0.834 1.862,1.862c0.513,-0.89 1.653,-1.195 2.543,-0.682c0.889,0.514 1.195,1.653 0.681,2.543c0.89,-0.514 2.029,-0.208 2.543,0.681c0.513,0.89 0.208,2.029 -0.682,2.543c1.028,-0 1.862,0.834 1.862,1.861c-0,1.028 -0.834,1.862 -1.862,1.862c0.89,0.513 1.195,1.653 0.682,2.543c-0.514,0.889 -1.653,1.195 -2.543,0.681c0.514,0.89 0.208,2.029 -0.681,2.543c-0.89,0.513 -2.03,0.208 -2.543,-0.682c-0,1.028 -0.834,1.862 -1.862,1.862c-1.027,-0 -1.861,-0.834 -1.861,-1.862c-0.514,0.89 -1.653,1.195 -2.543,0.682c-0.889,-0.514 -1.195,-1.653 -0.681,-2.543c-0.89,0.514 -2.029,0.208 -2.543,-0.681c-0.514,-0.89 -0.208,-2.03 0.681,-2.543c-1.027,-0 -1.861,-0.834 -1.861,-1.862c0,-1.027 0.834,-1.861 1.861,-1.861c-0.889,-0.514 -1.195,-1.653 -0.681,-2.543c0.514,-0.889 1.653,-1.195 2.543,-0.681c-0.514,-0.89 -0.208,-2.029 0.681,-2.543c0.89,-0.513 2.029,-0.208 2.543,0.682Z" style="fill:none;stroke:#fff;stroke-opacity:0.04;stroke-width:2px;"/><path d="M203.48,154.016c-0,-0.806 0.654,-1.461 1.46,-1.461c0.806,0 1.461,0.655 1.461,1.461c0.403,-0.698 1.297,-0.938 1.995,-0.535c0.698,0.403 0.938,1.297 0.534,1.995c0.699,-0.403 1.593,-0.163 1.996,0.535c0.403,0.698 0.163,1.592 -0.535,1.995c0.806,-0 1.46,0.654 1.46,1.46c0,0.806 -0.654,1.461 -1.46,1.461c0.698,0.403 0.938,1.297 0.535,1.995c-0.403,0.698 -1.297,0.938 -1.996,0.535c0.404,0.698 0.164,1.592 -0.534,1.995c-0.698,0.403 -1.592,0.163 -1.995,-0.535c-0,0.806 -0.655,1.461 -1.461,1.461c-0.806,-0 -1.46,-0.655 -1.46,-1.461c-0.403,0.698 -1.297,0.938 -1.995,0.535c-0.698,-0.403 -0.938,-1.297 -0.535,-1.995c-0.698,0.403 -1.592,0.163 -1.995,-0.535c-0.403,-0.698 -0.164,-1.592 0.535,-1.995c-0.807,-0 -1.461,-0.655 -1.461,-1.461c0,-0.806 0.654,-1.46 1.461,-1.46c-0.699,-0.403 -0.938,-1.297 -0.535,-1.995c0.403,-0.698 1.297,-0.938 1.995,-0.535c-0.403,-0.698 -0.163,-1.592 0.535,-1.995c0.698,-0.403 1.592,-0.163 1.995,0.535Z" style="fill:none;stroke:#fff;stroke-opacity:0.04;stroke-width:2px;"/><path d="M260.482,158.958c0,-1.498 1.217,-2.715 2.715,-2.715c1.498,0 2.715,1.217 2.715,2.715c0.749,-1.297 2.41,-1.743 3.708,-0.994c1.297,0.75 1.743,2.411 0.994,3.709c1.297,-0.749 2.959,-0.304 3.708,0.993c0.749,1.298 0.304,2.96 -0.994,3.709c1.498,-0 2.715,1.216 2.715,2.714c-0,1.499 -1.217,2.715 -2.715,2.715c1.298,0.749 1.743,2.411 0.994,3.708c-0.749,1.298 -2.411,1.743 -3.708,0.994c0.749,1.297 0.303,2.959 -0.994,3.708c-1.298,0.749 -2.959,0.304 -3.708,-0.993c-0,1.498 -1.217,2.714 -2.715,2.714c-1.498,0 -2.715,-1.216 -2.715,-2.714c-0.749,1.297 -2.41,1.742 -3.708,0.993c-1.298,-0.749 -1.743,-2.411 -0.994,-3.708c-1.297,0.749 -2.959,0.304 -3.708,-0.994c-0.749,-1.297 -0.304,-2.959 0.994,-3.708c-1.499,0 -2.715,-1.216 -2.715,-2.715c0,-1.498 1.216,-2.714 2.715,-2.714c-1.298,-0.749 -1.743,-2.411 -0.994,-3.709c0.749,-1.297 2.411,-1.742 3.708,-0.993c-0.749,-1.298 -0.304,-2.959 0.994,-3.709c1.298,-0.749 2.959,-0.303 3.708,0.994Z" style="fill:none;stroke:#fff;stroke-opacity:0.04;stroke-width:2px;"/><path d="M260.842,165.827c0.324,-0.936 1.365,-1.638 2.567,-1.638c1.203,0 2.244,0.702 2.568,1.638c1.087,-0.011 2.148,0.665 2.52,1.696c0.372,1.032 -0.047,2.142 -0.934,2.709c0.348,0.929 -0.036,2.049 -1.009,2.686c-0.973,0.638 -2.273,0.622 -3.145,0.036c-0.871,0.586 -2.171,0.602 -3.144,-0.036c-0.973,-0.637 -1.358,-1.757 -1.01,-2.686c-0.887,-0.567 -1.305,-1.677 -0.933,-2.709c0.371,-1.031 1.433,-1.707 2.52,-1.696Z" style="fill:none;stroke:#fff;stroke-opacity:0.04;stroke-width:2px;"/><path d="M-2.715,89.869c0,-1.499 1.217,-2.715 2.715,-2.715c1.498,0 2.715,1.216 2.715,2.715c0.749,-1.298 2.41,-1.743 3.708,-0.994c1.297,0.749 1.743,2.411 0.994,3.708c1.297,-0.749 2.959,-0.303 3.708,0.994c0.749,1.298 0.304,2.959 -0.994,3.708c1.499,0 2.715,1.217 2.715,2.715c-0,1.498 -1.216,2.715 -2.715,2.715c1.298,0.749 1.743,2.41 0.994,3.708c-0.749,1.297 -2.411,1.743 -3.708,0.994c0.749,1.297 0.303,2.959 -0.994,3.708c-1.298,0.749 -2.959,0.304 -3.708,-0.994c-0,1.499 -1.217,2.715 -2.715,2.715c-1.498,-0 -2.715,-1.216 -2.715,-2.715c-0.749,1.298 -2.41,1.743 -3.708,0.994c-1.297,-0.749 -1.743,-2.411 -0.994,-3.708c-1.297,0.749 -2.959,0.303 -3.708,-0.994c-0.749,-1.298 -0.304,-2.959 0.994,-3.708c-1.499,-0 -2.715,-1.217 -2.715,-2.715c0,-1.498 1.216,-2.715 2.715,-2.715c-1.298,-0.749 -1.743,-2.41 -0.994,-3.708c0.749,-1.297 2.411,-1.743 3.708,-0.994c-0.749,-1.297 -0.303,-2.959 0.994,-3.708c1.298,-0.749 2.959,-0.304 3.708,0.994Z" style="fill:none;stroke:#fff;stroke-opacity:0.04;stroke-width:2px;"/><path d="M297.285,89.869c0,-1.499 1.217,-2.715 2.715,-2.715c1.498,0 2.715,1.216 2.715,2.715c0.749,-1.298 2.41,-1.743 3.708,-0.994c1.297,0.749 1.743,2.411 0.994,3.708c1.297,-0.749 2.959,-0.303 3.708,0.994c0.749,1.298 0.304,2.959 -0.994,3.708c1.499,0 2.715,1.217 2.715,2.715c-0,1.498 -1.216,2.715 -2.715,2.715c1.298,0.749 1.743,2.41 0.994,3.708c-0.749,1.297 -2.411,1.743 -3.708,0.994c0.749,1.297 0.303,2.959 -0.994,3.708c-1.298,0.749 -2.959,0.304 -3.708,-0.994c-0,1.499 -1.217,2.715 -2.715,2.715c-1.498,-0 -2.715,-1.216 -2.715,-2.715c-0.749,1.298 -2.41,1.743 -3.708,0.994c-1.297,-0.749 -1.743,-2.411 -0.994,-3.708c-1.297,0.749 -2.959,0.303 -3.708,-0.994c-0.749,-1.298 -0.304,-2.959 0.994,-3.708c-1.499,-0 -2.715,-1.217 -2.715,-2.715c0,-1.498 1.216,-2.715 2.715,-2.715c-1.298,-0.749 -1.743,-2.41 -0.994,-3.708c0.749,-1.297 2.411,-1.743 3.708,-0.994c-0.749,-1.297 -0.303,-2.959 0.994,-3.708c1.298,-0.749 2.959,-0.304 3.708,0.994Z" style="fill:none;stroke:#fff;stroke-opacity:0.04;stroke-width:2px;"/><path d="M235.919,144.55c0,-0.975 0.792,-1.766 1.766,-1.766c0.975,0 1.766,0.791 1.766,1.766c0.487,-0.844 1.568,-1.134 2.412,-0.646c0.844,0.487 1.133,1.568 0.646,2.412c0.844,-0.488 1.925,-0.198 2.412,0.646c0.487,0.844 0.198,1.925 -0.646,2.412c0.974,-0 1.766,0.791 1.766,1.766c-0,0.974 -0.792,1.765 -1.766,1.765c0.844,0.488 1.133,1.568 0.646,2.412c-0.487,0.844 -1.568,1.134 -2.412,0.647c0.487,0.844 0.198,1.924 -0.646,2.412c-0.844,0.487 -1.925,0.197 -2.412,-0.647c-0,0.975 -0.791,1.766 -1.766,1.766c-0.974,0 -1.766,-0.791 -1.766,-1.766c-0.487,0.844 -1.568,1.134 -2.412,0.647c-0.843,-0.488 -1.133,-1.568 -0.646,-2.412c-0.844,0.487 -1.925,0.197 -2.412,-0.647c-0.487,-0.844 -0.197,-1.924 0.646,-2.412c-0.974,0 -1.765,-0.791 -1.765,-1.765c-0,-0.975 0.791,-1.766 1.765,-1.766c-0.843,-0.487 -1.133,-1.568 -0.646,-2.412c0.487,-0.844 1.568,-1.134 2.412,-0.646c-0.487,-0.844 -0.197,-1.925 0.646,-2.412c0.844,-0.488 1.925,-0.198 2.412,0.646Z" style="fill:none;stroke:#fff;stroke-opacity:0.04;stroke-width:2px;"/><path d="M121.832,242.66c0,-0.982 0.798,-1.78 1.781,-1.78c0.983,-0 1.781,0.798 1.781,1.78c0.491,-0.851 1.581,-1.143 2.433,-0.651c0.851,0.491 1.143,1.581 0.651,2.432c0.852,-0.491 1.942,-0.199 2.433,0.652c0.491,0.851 0.199,1.941 -0.652,2.433c0.983,-0 1.781,0.798 1.781,1.78c0,0.983 -0.798,1.781 -1.781,1.781c0.851,0.492 1.143,1.582 0.652,2.433c-0.491,0.851 -1.581,1.143 -2.433,0.652c0.492,0.851 0.2,1.941 -0.651,2.432c-0.852,0.492 -1.942,0.2 -2.433,-0.651c-0,0.982 -0.798,1.78 -1.781,1.78c-0.983,0 -1.781,-0.798 -1.781,-1.78c-0.491,0.851 -1.581,1.143 -2.432,0.651c-0.851,-0.491 -1.144,-1.581 -0.652,-2.432c-0.851,0.491 -1.941,0.199 -2.433,-0.652c-0.491,-0.851 -0.199,-1.941 0.652,-2.433c-0.983,0 -1.781,-0.798 -1.781,-1.781c0,-0.982 0.798,-1.78 1.781,-1.78c-0.851,-0.492 -1.143,-1.582 -0.652,-2.433c0.492,-0.851 1.582,-1.143 2.433,-0.652c-0.492,-0.851 -0.199,-1.941 0.652,-2.432c0.851,-0.492 1.941,-0.2 2.432,0.651Z" style="fill:none;stroke:#fff;stroke-opacity:0.04;stroke-width:2px;"/><path d="M32.361,79.483c-0,-0.819 0.665,-1.484 1.484,-1.484c0.818,-0 1.483,0.665 1.483,1.484c0.41,-0.71 1.318,-0.953 2.027,-0.544c0.709,0.41 0.952,1.318 0.543,2.027c0.709,-0.409 1.617,-0.166 2.027,0.543c0.409,0.709 0.166,1.617 -0.544,2.027c0.819,-0 1.484,0.665 1.484,1.484c0,0.818 -0.665,1.483 -1.484,1.483c0.71,0.41 0.953,1.318 0.544,2.027c-0.41,0.709 -1.318,0.952 -2.027,0.543c0.409,0.709 0.166,1.617 -0.543,2.027c-0.709,0.409 -1.617,0.166 -2.027,-0.544c0,0.819 -0.665,1.484 -1.483,1.484c-0.819,0 -1.484,-0.665 -1.484,-1.484c-0.41,0.71 -1.318,0.953 -2.027,0.544c-0.709,-0.41 -0.952,-1.318 -0.543,-2.027c-0.709,0.409 -1.617,0.166 -2.027,-0.543c-0.409,-0.709 -0.166,-1.617 0.544,-2.027c-0.819,0 -1.484,-0.665 -1.484,-1.483c-0,-0.819 0.665,-1.484 1.484,-1.484c-0.71,-0.41 -0.953,-1.318 -0.544,-2.027c0.41,-0.709 1.318,-0.952 2.027,-0.543c-0.409,-0.709 -0.166,-1.617 0.543,-2.027c0.709,-0.409 1.617,-0.166 2.027,0.544Z" style="fill:none;stroke:#fff;stroke-opacity:0.04;stroke-width:2px;"/><path d="M154.594,17.739c-0,-0.833 0.676,-1.51 1.51,-1.51c0.833,0 1.51,0.677 1.51,1.51c0.416,-0.722 1.34,-0.969 2.062,-0.553c0.722,0.417 0.969,1.341 0.553,2.063c0.721,-0.417 1.646,-0.169 2.062,0.553c0.417,0.721 0.169,1.645 -0.552,2.062c0.833,0 1.51,0.677 1.51,1.51c-0,0.833 -0.677,1.51 -1.51,1.51c0.721,0.417 0.969,1.341 0.552,2.063c-0.416,0.721 -1.341,0.969 -2.062,0.552c0.416,0.722 0.169,1.646 -0.553,2.063c-0.722,0.417 -1.646,0.169 -2.062,-0.553c-0,0.834 -0.677,1.51 -1.51,1.51c-0.834,0 -1.51,-0.676 -1.51,-1.51c-0.417,0.722 -1.341,0.97 -2.063,0.553c-0.722,-0.417 -0.969,-1.341 -0.553,-2.063c-0.721,0.417 -1.646,0.169 -2.062,-0.552c-0.417,-0.722 -0.169,-1.646 0.552,-2.063c-0.833,-0 -1.509,-0.677 -1.509,-1.51c-0,-0.833 0.676,-1.51 1.509,-1.51c-0.721,-0.417 -0.969,-1.341 -0.552,-2.062c0.416,-0.722 1.341,-0.97 2.062,-0.553c-0.416,-0.722 -0.169,-1.646 0.553,-2.063c0.722,-0.416 1.646,-0.169 2.063,0.553Z" style="fill:none;stroke:#fff;stroke-opacity:0.04;stroke-width:2px;"/><path d="M69.445,164.919l-16.172,0l4.043,-8.407l8.086,-0l4.043,8.407Z" style="fill:none;stroke:#fff;stroke-opacity:0.04;stroke-width:2px;"/><path d="M223.312,178.514l-21.634,2.321l4.659,-7.569l10.817,-1.16l6.158,6.408Z" style="fill:none;stroke:#fff;stroke-opacity:0.04;stroke-width:2px;"/><path d="M296.69,197.306l-28.48,3.054l6.133,-9.963l14.24,-1.527l8.107,8.436Z" style="fill:none;stroke:#fff;stroke-opacity:0.04;stroke-width:2px;"/><path d="M212.039,47.54l-28.48,3.054l6.133,-9.964l14.24,-1.527l8.107,8.437Z" style="fill:none;stroke:#fff;stroke-opacity:0.04;stroke-width:2px;"/><path d="M161.108,255.452l-26.429,11.042l3.04,-11.298l13.215,-5.521l10.174,5.777Z" style="fill:none;stroke:#fff;stroke-opacity:0.04;stroke-width:2px;"/><path d="M37.542,179.456l-3.494,-28.126l10.858,5.791l1.747,14.063l-9.111,8.272Z" style="fill:none;stroke:#fff;stroke-opacity:0.04;stroke-width:2px;"/><path d="M266.823,250.981l-8.176,-0l2.044,-19.191l4.088,-0l2.044,19.191Z" style="fill:none;stroke:#fff;stroke-opacity:0.04;stroke-width:2px;"/><path d="M224.955,162.765l-6.965,-0l1.741,-16.35l3.483,-0l1.741,16.35Z" style="fill:none;stroke:#fff;stroke-opacity:0.04;stroke-width:2px;"/><path d="M76.031,94.871l-5.913,-3.682l13.857,-18.961l2.957,1.84l-10.901,20.803Z" style="fill:none;stroke:#fff;stroke-opacity:0.04;stroke-width:2px;"/><path d="M158.254,154.78c-0.575,-0.963 -1.824,-1.279 -2.787,-0.705l-9.518,5.673c-0.964,0.574 -1.28,1.823 -0.705,2.787l2.081,3.492c0.574,0.963 1.823,1.279 2.787,0.705l2.482,-1.479l0.158,3.962l1.793,-5.126l5.085,-3.03c0.963,-0.574 1.279,-1.823 0.705,-2.787l-2.081,-3.492Z" style="fill:none;stroke:#fff;stroke-opacity:0.04;stroke-width:2px;"/><path d="M43.944,51.235c1.173,-1.672 3.52,-1.672 4.694,-0.836c1.173,0.836 1.173,2.509 -0,4.181c-0.822,1.254 -2.934,2.509 -4.694,3.345c-1.761,-0.836 -3.873,-2.091 -4.695,-3.345c-1.173,-1.672 -1.173,-3.345 0,-4.181c1.174,-0.836 3.521,-0.836 4.695,0.836Z" style="fill:none;stroke:#fff;stroke-opacity:0.04;stroke-width:2px;"/><path d="M9.619,74.791c0.487,-1.984 2.674,-2.836 4.071,-2.482c1.397,0.353 2.004,1.911 1.517,3.896c-0.311,1.466 -1.824,3.402 -3.162,4.819c-1.943,-0.14 -4.367,-0.543 -5.587,-1.414c-1.701,-1.132 -2.307,-2.691 -1.517,-3.896c0.79,-1.205 2.978,-2.056 4.678,-0.923Z" style="fill:none;stroke:#fff;stroke-opacity:0.04;stroke-width:2px;"/><path d="M60.176,10.781c1.173,-1.672 3.52,-1.672 4.694,-0.836c1.174,0.836 1.174,2.508 0,4.181c-0.821,1.254 -2.934,2.508 -4.694,3.344c-1.76,-0.836 -3.873,-2.09 -4.694,-3.344c-1.174,-1.673 -1.174,-3.345 -0,-4.181c1.173,-0.836 3.52,-0.836 4.694,0.836Z" style="fill:none;stroke:#fff;stroke-opacity:0.04;stroke-width:2px;"/><path d="M277.788,272.885c-0.513,-1.267 -1.958,-1.879 -3.225,-1.366l-15.532,6.29c-1.267,0.513 -1.879,1.958 -1.366,3.225l1.859,4.591c0.513,1.267 1.958,1.879 3.225,1.366l4.245,-1.719l-0.922,4.954l3.94,-6.176l8.27,-3.349c1.266,-0.513 1.879,-1.958 1.365,-3.225l-1.859,-4.591Z" style="fill:none;stroke:#fff;stroke-opacity:0.04;stroke-width:2px;"/><path d="M56.882,106.564c0,-1.149 -0.933,-2.082 -2.082,-2.082l-7.844,-0c-1.15,-0 -2.083,0.933 -2.083,2.082l0,4.165c0,1.149 0.933,2.082 2.083,2.082l1.82,-0l-1.501,3.569l3.303,-3.569l4.222,-0c1.149,-0 2.082,-0.933 2.082,-2.082l0,-4.165Z" style="fill:none;stroke:#fff;stroke-opacity:0.04;stroke-width:2px;"/><path d="M197.789,20.456c0,-1.225 -0.995,-2.22 -2.22,-2.22l-14.22,-0c-1.226,-0 -2.221,0.995 -2.221,2.22l0,4.441c0,1.226 0.995,2.221 2.221,2.221l3.844,-0l-2.333,3.806l5.132,-3.806l7.577,-0c1.225,-0 2.22,-0.995 2.22,-2.221l0,-4.441Z" style="fill:none;stroke:#fff;stroke-opacity:0.04;stroke-width:2px;"/><path d="M125.263,80.105c-0,-1.239 -1.006,-2.245 -2.246,-2.245l-8.549,0c-1.239,0 -2.245,1.006 -2.245,2.245l0,4.491c0,1.239 1.006,2.245 2.245,2.245l1.993,0l-1.63,3.849l3.586,-3.849l4.6,0c1.24,0 2.246,-1.006 2.246,-2.245l-0,-4.491Z" style="fill:none;stroke:#fff;stroke-opacity:0.04;stroke-width:2px;"/><path d="M103.024,275.613c-0,-1.708 -1.387,-3.094 -3.094,-3.094l-11.971,-0c-1.708,-0 -3.094,1.386 -3.094,3.094l-0,6.189c-0,1.708 1.386,3.094 3.094,3.094l2.807,0l-2.269,5.305l4.993,-5.305l6.44,0c1.707,0 3.094,-1.386 3.094,-3.094l-0,-6.189Z" style="fill:none;stroke:#fff;stroke-opacity:0.04;stroke-width:2px;"/><path d="M59.08,294.253c-0,-1.708 -1.387,-3.094 -3.095,-3.094l-11.97,-0c-1.708,-0 -3.095,1.386 -3.095,3.094l0,6.189c0,1.708 1.387,3.095 3.095,3.095l2.807,-0l-2.27,5.304l4.994,-5.304l6.439,-0c1.708,-0 3.095,-1.387 3.095,-3.095l-0,-6.189Z" style="fill:none;stroke:#fff;stroke-opacity:0.04;stroke-width:2px;"/><path d="M59.08,-5.747c-0,-1.708 -1.387,-3.094 -3.095,-3.094l-11.97,-0c-1.708,-0 -3.095,1.386 -3.095,3.094l0,6.189c0,1.708 1.387,3.095 3.095,3.095l2.807,-0l-2.27,5.304l4.994,-5.304l6.439,-0c1.708,-0 3.095,-1.387 3.095,-3.095l-0,-6.189Z" style="fill:none;stroke:#fff;stroke-opacity:0.04;stroke-width:2px;"/><path d="M75.799,275.449c0,-1.349 -1.095,-2.444 -2.443,-2.444l-10.942,0c-1.349,0 -2.444,1.095 -2.444,2.444l0,4.888c0,1.348 1.095,2.443 2.444,2.443l2.701,0l-1.979,4.19l4.353,-4.19l5.867,0c1.348,0 2.443,-1.095 2.443,-2.443l0,-4.888Z" style="fill:none;stroke:#fff;stroke-opacity:0.04;stroke-width:2px;"/><path d="M35.266,200.007c0,-1.677 -1.362,-3.039 -3.039,-3.039l-9.957,-0c-1.677,-0 -3.039,1.362 -3.039,3.039l-0,6.079c-0,1.678 1.362,3.04 3.039,3.04l2.172,-0l-2.004,5.21l4.41,-5.21l5.379,-0c1.677,-0 3.039,-1.362 3.039,-3.04l0,-6.079Z" style="fill:none;stroke:#fff;stroke-opacity:0.04;stroke-width:2px;"/><path d="M212.459,94.062c0.276,-1.669 -0.855,-3.247 -2.524,-3.523l-11.887,-1.961c-1.669,-0.276 -3.247,0.856 -3.523,2.524l-0.998,6.047c-0.275,1.669 0.856,3.248 2.525,3.523l2.805,0.463l-3.097,4.813l5.787,-4.369l6.392,1.055c1.669,0.275 3.247,-0.856 3.522,-2.525l0.998,-6.047Z" style="fill:none;stroke:#fff;stroke-opacity:0.04;stroke-width:2px;"/><path d="M23.044,121.232c-5.509,-0 -9.982,5.257 -9.982,11.732c0,6.475 4.473,11.732 9.982,11.732c-1.653,-2.737 -2.994,-7.052 -2.994,-11.732c-0,-4.68 1.341,-8.995 2.994,-11.732Z" style="fill:none;stroke:#fff;stroke-opacity:0.04;stroke-width:2px;"/><path d="M47.288,86.93c4.945,4.553 13.124,3.726 18.253,-1.845c5.129,-5.57 5.278,-13.79 0.333,-18.343c-0.685,3.721 -2.898,8.542 -6.605,12.569c-3.707,4.026 -8.329,6.629 -11.981,7.619Z" style="fill:none;stroke:#fff;stroke-opacity:0.04;stroke-width:2px;"/><path d="M136.206,41.877c-6.096,-3.825 -14.171,-1.947 -18.022,4.19c-3.851,6.137 -2.027,14.225 4.069,18.05c-0.201,-3.742 0.88,-8.763 3.663,-13.199c2.783,-4.436 6.834,-7.594 10.29,-9.041Z" style="fill:none;stroke:#fff;stroke-opacity:0.04;stroke-width:2px;"/><path d="M228.722,4.834c-6.983,1.779 -11.429,8.026 -9.922,13.941c1.507,5.914 8.4,9.272 15.383,7.493c-2.732,-1.967 -5.437,-5.475 -6.526,-9.75c-1.089,-4.275 -0.392,-8.649 1.065,-11.684Z" style="fill:none;stroke:#fff;stroke-opacity:0.04;stroke-width:2px;"/><path d="M270.598,79.917c1.216,-6.719 -3.256,-13.163 -9.981,-14.38c-6.724,-1.217 -13.171,3.25 -14.388,9.969c3.208,-1.501 7.985,-2.327 12.846,-1.447c4.86,0.88 9.045,3.327 11.523,5.858Z" style="fill:none;stroke:#fff;stroke-opacity:0.04;stroke-width:2px;"/><path d="M202.7,224.101c4.12,-3.887 3.722,-11.008 -0.887,-15.893c-4.608,-4.884 -11.695,-5.694 -15.814,-1.807c3.184,0.899 7.259,3.207 10.59,6.737c3.331,3.531 5.399,7.732 6.111,10.963Z" style="fill:none;stroke:#fff;stroke-opacity:0.04;stroke-width:2px;"/><path d="M218.68,270.17c4.096,-1.604 5.877,-6.848 3.976,-11.705c-1.902,-4.856 -6.771,-7.497 -10.867,-5.893c2.033,1.572 4.298,4.417 5.672,7.927c1.375,3.51 1.644,7.137 1.219,9.671Z" style="fill:none;stroke:#fff;stroke-opacity:0.04;stroke-width:2px;"/><path d="M110.61,211.961c2.843,4.898 9.867,6.138 15.675,2.766c5.808,-3.371 8.215,-10.086 5.372,-14.984c-1.603,2.895 -4.78,6.335 -8.978,8.771c-4.198,2.437 -8.761,3.491 -12.069,3.447Z" style="fill:none;stroke:#fff;stroke-opacity:0.04;stroke-width:2px;"/><path d="M303.351,188.356c4.119,-3.886 3.722,-11.008 -0.887,-15.892c-4.609,-4.885 -11.695,-5.695 -15.815,-1.808c3.185,0.899 7.259,3.207 10.59,6.737c3.331,3.531 5.399,7.732 6.112,10.963Z" style="fill:none;stroke:#fff;stroke-opacity:0.04;stroke-width:2px;"/><path d="M3.351,188.356c4.119,-3.886 3.722,-11.008 -0.887,-15.892c-4.609,-4.885 -11.695,-5.695 -15.815,-1.808c3.185,0.899 7.259,3.207 10.59,6.737c3.331,3.531 5.399,7.732 6.112,10.963Z" style="fill:none;stroke:#fff;stroke-opacity:0.04;stroke-width:2px;"/><path d="M100.49,264.924c5.757,-5.118 7.269,-12.83 3.375,-17.21c-3.894,-4.38 -11.729,-3.782 -17.486,1.336c3.373,0.317 7.37,1.989 10.185,5.155c2.814,3.166 4.006,7.331 3.926,10.719Z" style="fill:none;stroke:#fff;stroke-opacity:0.04;stroke-width:2px;"/><path d="M20.489,264.248c-7.345,-0 -13.309,4.54 -13.309,10.132c0,5.592 5.964,10.133 13.309,10.133c-2.204,-2.365 -3.993,-6.091 -3.993,-10.133c0,-4.042 1.789,-7.768 3.993,-10.132Z" style="fill:none;stroke:#fff;stroke-opacity:0.04;stroke-width:2px;"/><path d="M61.868,124.58c-7.034,0 -12.745,4.591 -12.745,10.245c0,5.654 5.711,10.244 12.745,10.244c-2.111,-2.39 -3.824,-6.157 -3.824,-10.244c0,-4.087 1.713,-7.854 3.824,-10.245Z" style="fill:none;stroke:#fff;stroke-opacity:0.04;stroke-width:2px;"/><path d="M154.121,121.288c2.563,-2.94 6.288,-2.158 7.801,-0.101c1.513,2.057 0.813,5.388 -1.749,8.329c-1.829,2.224 -5.707,4.018 -8.851,5.097c-2.444,-2.253 -5.272,-5.455 -6.051,-8.228c-1.163,-3.722 -0.463,-7.054 1.749,-8.328c2.213,-1.275 5.939,-0.492 7.101,3.231Z" style="fill:none;stroke:#fff;stroke-opacity:0.04;stroke-width:2px;"/><path d="M141.809,64.531c1.925,-3.46 5.775,-3.46 7.699,-1.73c1.925,1.73 1.925,5.19 0,8.649c-1.347,2.595 -4.811,5.19 -7.699,6.92c-2.887,-1.73 -6.351,-4.325 -7.698,-6.92c-1.925,-3.459 -1.925,-6.919 -0,-8.649c1.924,-1.73 5.774,-1.73 7.698,1.73Z" style="fill:none;stroke:#fff;stroke-opacity:0.04;stroke-width:2px;"/><path d="M98.803,64.549c1.537,-3.196 4.611,-3.196 6.148,-1.598c1.536,1.598 1.536,4.794 -0,7.99c-1.076,2.397 -3.843,4.794 -6.148,6.392c-2.305,-1.598 -5.071,-3.995 -6.147,-6.392c-1.537,-3.196 -1.537,-6.392 -0,-7.99c1.537,-1.598 4.61,-1.598 6.147,1.598Z" style="fill:none;stroke:#fff;stroke-opacity:0.04;stroke-width:2px;"/><path d="M228.933,88.397c1.977,-3.626 5.933,-3.626 7.911,-1.813c1.978,1.813 1.978,5.439 0,9.065c-1.384,2.719 -4.945,5.438 -7.911,7.251c-2.967,-1.813 -6.527,-4.532 -7.912,-7.251c-1.978,-3.626 -1.978,-7.252 0,-9.065c1.978,-1.813 5.934,-1.813 7.912,1.813Z" style="fill:none;stroke:#fff;stroke-opacity:0.04;stroke-width:2px;"/><path d="M249.493,19.737c1.834,-3.378 5.502,-3.378 7.335,-1.689c1.834,1.689 1.834,5.066 0,8.444c-1.283,2.533 -4.584,5.066 -7.335,6.755c-2.751,-1.689 -6.052,-4.222 -7.335,-6.755c-1.834,-3.378 -1.834,-6.755 -0,-8.444c1.833,-1.689 5.501,-1.689 7.335,1.689Z" style="fill:none;stroke:#fff;stroke-opacity:0.04;stroke-width:2px;"/><path d="M285.615,26.724c0.804,-3.999 4.822,-5.486 7.433,-4.602c2.612,0.884 3.817,4.14 3.012,8.139c-0.502,2.962 -3.215,6.742 -5.626,9.485c-3.616,-0.513 -8.136,-1.616 -10.446,-3.537c-3.213,-2.512 -4.418,-5.768 -3.012,-8.139c1.407,-2.371 5.425,-3.858 8.639,-1.346Z" style="fill:none;stroke:#fff;stroke-opacity:0.04;stroke-width:2px;"/><path d="M202.652,3.913c1.414,-2.347 4.24,-2.347 5.654,-1.174c1.413,1.174 1.413,3.521 -0,5.869c-0.99,1.76 -3.534,3.521 -5.654,4.694c-2.12,-1.173 -4.664,-2.934 -5.654,-4.694c-1.413,-2.348 -1.413,-4.695 0,-5.869c1.414,-1.173 4.241,-1.173 5.654,1.174Z" style="fill:none;stroke:#fff;stroke-opacity:0.04;stroke-width:2px;"/><path d="M282.935,147.813c1.488,-2.934 4.465,-2.934 5.953,-1.467c1.488,1.467 1.488,4.402 0,7.336c-1.042,2.2 -3.721,4.401 -5.953,5.868c-2.233,-1.467 -4.911,-3.668 -5.953,-5.868c-1.489,-2.934 -1.489,-5.869 -0,-7.336c1.488,-1.467 4.465,-1.467 5.953,1.467Z" style="fill:none;stroke:#fff;stroke-opacity:0.04;stroke-width:2px;"/><path d="M111.902,186.23c0.505,-4.368 4.096,-5.605 6.537,-4.348c2.441,1.256 3.732,5.006 3.228,9.374c-0.289,3.245 -2.553,7.17 -4.601,9.972c-3.338,-0.947 -7.539,-2.647 -9.764,-5.026c-3.086,-3.132 -4.377,-6.881 -3.227,-9.374c1.15,-2.493 4.741,-3.73 7.827,-0.598Z" style="fill:none;stroke:#fff;stroke-opacity:0.04;stroke-width:2px;"/><path d="M37.375,223.528c0.716,-4.153 4.238,-5.162 6.521,-3.842c2.283,1.32 3.328,4.968 2.613,9.121c-0.449,3.089 -2.834,6.734 -4.953,9.314c-3.164,-1.067 -7.117,-2.896 -9.133,-5.279c-2.806,-3.144 -3.851,-6.792 -2.613,-9.121c1.238,-2.328 4.76,-3.337 7.565,-0.193Z" style="fill:none;stroke:#fff;stroke-opacity:0.04;stroke-width:2px;"/><path d="M37.932,271.569c2.313,-3.167 5.578,-2.53 6.87,-0.467c1.293,2.062 0.612,5.548 -1.702,8.716c-1.654,2.392 -5.103,4.433 -7.892,5.698c-2.109,-2.221 -4.537,-5.41 -5.169,-8.249c-0.951,-3.805 -0.27,-7.292 1.703,-8.716c1.973,-1.425 5.238,-0.787 6.19,3.018Z" style="fill:none;stroke:#fff;stroke-opacity:0.04;stroke-width:2px;"/><path d="M79.699,134.171c1.161,-4.877 5.566,-5.932 8.289,-4.285c2.724,1.646 3.766,5.995 2.605,10.871c-0.76,3.631 -3.943,7.843 -6.726,10.809c-3.825,-1.383 -8.571,-3.695 -10.894,-6.587c-3.245,-3.821 -4.286,-8.17 -2.605,-10.872c1.682,-2.702 6.087,-3.757 9.331,0.064Z" style="fill:none;stroke:#fff;stroke-opacity:0.04;stroke-width:2px;"/><path d="M81.206,140.826c-0.164,-5.236 1.899,-5.73 3.174,-4.959c1.275,0.771 1.763,2.807 1.22,5.091c-0.356,1.7 -1.847,3.672 -3.15,5.06c-1.791,-0.647 -4.013,-1.73 -5.101,-3.084c-1.519,-1.789 -2.007,-3.825 -1.219,-5.09c0.787,-1.265 2.85,-1.76 5.076,2.982Z" style="fill:none;stroke:#fff;stroke-opacity:0.04;stroke-width:2px;"/><path d="M123.154,137.892l5.777,6.523l-4.418,7.51l-8.508,-1.882l-0.84,-8.673l7.989,-3.478Z" style="fill:none;stroke:#fff;stroke-opacity:0.04;stroke-width:2px;"/><path d="M194.08,182.586l5.777,6.523l-4.419,7.51l-8.507,-1.881l-0.84,-8.673l7.989,-3.479Z" style="fill:none;stroke:#fff;stroke-opacity:0.04;stroke-width:2px;"/><path d="M150.769,191.777l5.777,6.523l-4.419,7.51l-8.508,-1.881l-0.839,-8.673l7.989,-3.479Z" style="fill:none;stroke:#fff;stroke-opacity:0.04;stroke-width:2px;"/><path d="M218.925,230.714l6.339,7.157l-4.848,8.24l-9.335,-2.065l-0.921,-9.515l8.765,-3.817Z" style="fill:none;stroke:#fff;stroke-opacity:0.04;stroke-width:2px;"/><path d="M20.917,239.861l9.195,3.106l-0.113,9.704l-9.264,2.892l-5.614,-7.917l5.796,-7.785Z" style="fill:none;stroke:#fff;stroke-opacity:0.04;stroke-width:2px;"/><path d="M-0.002,243.39l8.436,6.129l-3.223,9.917l-10.427,-0l-3.222,-9.917l8.436,-6.129Z" style="fill:none;stroke:#fff;stroke-opacity:0.04;stroke-width:2px;"/><path d="M300,243.39l8.436,6.129l-3.223,9.917l-10.426,-0l-3.223,-9.917l8.436,-6.129Z" style="fill:none;stroke:#fff;stroke-opacity:0.04;stroke-width:2px;"/><path d="M171.234,201.101c-3.077,0 -5.572,2.495 -5.572,5.572c0,3.075 2.497,5.571 5.572,5.571c3.077,0 5.571,-2.494 5.571,-5.571l-5.571,-0l-0,-5.572Z" style="fill:none;stroke:#fff;stroke-opacity:0.04;stroke-width:2px;"/><path d="M121.017,271.756c2.607,1.635 6.046,0.847 7.681,-1.759c1.634,-2.605 0.845,-6.047 -1.76,-7.681c-2.606,-1.635 -6.045,-0.847 -7.68,1.76l4.72,2.96l-2.961,4.72Z" style="fill:none;stroke:#fff;stroke-opacity:0.04;stroke-width:2px;"/><path d="M216.169,189.439c-0.493,-3.037 -3.355,-5.1 -6.392,-4.607c-3.035,0.493 -5.099,3.357 -4.607,6.392c0.493,3.037 3.355,5.1 6.392,4.607l-0.893,-5.499l5.5,-0.893Z" style="fill:none;stroke:#fff;stroke-opacity:0.04;stroke-width:2px;"/><path d="M235.404,221.738c-0.493,-3.037 -3.355,-5.099 -6.392,-4.607c-3.035,0.493 -5.1,3.357 -4.607,6.392c0.493,3.037 3.354,5.1 6.392,4.607l-0.893,-5.499l5.5,-0.893Z" style="fill:none;stroke:#fff;stroke-opacity:0.04;stroke-width:2px;"/><path d="M281.745,210.648c-3.163,0 -5.728,2.564 -5.728,5.727c0,3.161 2.567,5.728 5.728,5.728c3.163,-0 5.727,-2.565 5.727,-5.728l-5.727,0l-0,-5.727Z" style="fill:none;stroke:#fff;stroke-opacity:0.04;stroke-width:2px;"/><path d="M177.336,291.983c-4.428,-0 -8.018,3.589 -8.018,8.017c0,4.425 3.593,8.017 8.018,8.017c4.427,0 8.017,-3.589 8.017,-8.017l-8.017,0l-0,-8.017Z" style="fill:none;stroke:#fff;stroke-opacity:0.04;stroke-width:2px;"/><path d="M177.336,-8.017c-4.428,-0 -8.018,3.589 -8.018,8.017c0,4.425 3.593,8.017 8.018,8.017c4.427,0 8.017,-3.589 8.017,-8.017l-8.017,0l-0,-8.017Z" style="fill:none;stroke:#fff;stroke-opacity:0.04;stroke-width:2px;"/><path d="M25.727,4.069l5.747,5.747l-5.747,5.747l-5.747,-5.747l5.747,-5.747Z" style="fill:none;stroke:#fff;stroke-opacity:0.04;stroke-width:2px;"/><path d="M82.6,3.49l5.229,5.229l-5.229,5.228l-5.228,-5.228l5.228,-5.229Z" style="fill:none;stroke:#fff;stroke-opacity:0.04;stroke-width:2px;"/><path d="M229.788,67.637l8.925,4.96l-8.925,4.96l-8.926,-4.96l8.926,-4.96Z" style="fill:none;stroke:#fff;stroke-opacity:0.04;stroke-width:2px;"/><path d="M181.419,82.115l6.376,6.376l-6.376,6.375l-6.375,-6.375l6.375,-6.376Z" style="fill:none;stroke:#fff;stroke-opacity:0.04;stroke-width:2px;"/><path d="M283.594,73.376l4.358,4.358l-4.358,4.359l-4.359,-4.359l4.359,-4.358Z" style="fill:none;stroke:#fff;stroke-opacity:0.04;stroke-width:2px;"/><path d="M112.398,263.401l4.359,4.359l-4.359,4.358l-4.358,-4.358l4.358,-4.359Z" style="fill:none;stroke:#fff;stroke-opacity:0.04;stroke-width:2px;"/><path d="M273.767,9.616l5.519,5.519l-5.519,5.519l-5.519,-5.519l5.519,-5.519Z" style="fill:none;stroke:#fff;stroke-opacity:0.04;stroke-width:2px;"/><path d="M116.73,13.45l5.519,5.518l-5.519,5.519l-5.519,-5.519l5.519,-5.518Z" style="fill:none;stroke:#fff;stroke-opacity:0.04;stroke-width:2px;"/><path d="M100.953,2.562l4.446,4.445l-4.446,4.446l-4.445,-4.446l4.445,-4.445Z" style="fill:none;stroke:#fff;stroke-opacity:0.04;stroke-width:2px;"/><path d="M112.867,110.589l24.711,11.307l-24.711,11.306l-24.712,-11.306l24.712,-11.307Z" style="fill:none;stroke:#fff;stroke-opacity:0.04;stroke-width:2px;"/><path d="M112.498,115.772l14.343,5.929l-14.343,5.929l-14.343,-5.929l14.343,-5.929Z" style="fill:none;stroke:#fff;stroke-opacity:0.04;stroke-width:2px;"/><path d="M244.273,97.115c-1.79,1.729 -2.796,4.075 -2.796,6.52c-0,5.09 4.278,9.222 9.548,9.222c5.27,0 9.548,-4.132 9.548,-9.222c-0,-2.445 -1.006,-4.791 -2.797,-6.52l-3.375,3.26c0.895,0.865 1.398,2.038 1.398,3.26c-0,2.545 -2.139,4.611 -4.774,4.611c-2.635,0 -4.774,-2.066 -4.774,-4.611c-0,-1.222 0.503,-2.395 1.398,-3.26l-3.376,-3.26Z" style="fill:none;stroke:#fff;stroke-opacity:0.04;stroke-width:2px;"/><path d="M173.228,100.059c4.276,-0 7.748,3.415 7.748,7.622c0,4.206 -3.472,7.621 -7.748,7.621c-4.276,0 -7.748,-3.415 -7.748,-7.621c-0,-4.207 3.472,-7.622 7.748,-7.622Zm0,3.811c2.138,-0 3.874,1.707 3.874,3.811c0,2.103 -1.736,3.811 -3.874,3.811c-2.138,-0 -3.874,-1.708 -3.874,-3.811c-0,-2.104 1.736,-3.811 3.874,-3.811Z" style="fill:none;stroke:#fff;stroke-opacity:0.04;stroke-width:2px;"/><path d="M283.973,112.042l5.016,3.644l-2.508,3.451l4.057,1.318l-1.915,5.896l-4.058,-1.318l0,4.266l-6.199,-0l0,-4.266l-4.057,1.318l-1.916,-5.896l4.058,-1.318l-2.508,-3.451l5.015,-3.644l2.508,3.451l2.507,-3.451Z" style="fill:none;stroke:#fff;stroke-opacity:0.04;stroke-width:2px;"/><path d="M89.202,36.158l4.827,1.922l-1.322,3.322l3.568,0.231l-0.336,5.184l-3.568,-0.231l0.882,3.465l-5.034,1.282l-0.883,-3.464l-3.022,1.91l-2.776,-4.392l3.023,-1.91l-2.751,-2.284l3.319,-3.997l2.751,2.284l1.322,-3.322Z" style="fill:none;stroke:#fff;stroke-opacity:0.04;stroke-width:2px;"/><path d="M256.062,188.607l4.204,1.674l-1.152,2.893l3.108,0.201l-0.293,4.516l-3.107,-0.201l0.768,3.017l-4.385,1.117l-0.768,-3.017l-2.633,1.663l-2.417,-3.825l2.632,-1.664l-2.396,-1.989l2.891,-3.481l2.396,1.989l1.152,-2.893Z" style="fill:none;stroke:#fff;stroke-opacity:0.04;stroke-width:2px;"/><path d="M249.384,285.597l5.405,3.927l-2.702,3.72l4.372,1.421l-2.064,6.354l-4.373,-1.421l0,4.598l-6.681,-0l0,-4.598l-4.373,1.421l-2.064,-6.354l4.373,-1.421l-2.703,-3.72l5.405,-3.927l2.703,3.72l2.702,-3.72Z" style="fill:none;stroke:#fff;stroke-opacity:0.04;stroke-width:2px;"/><path d="M249.384,-9.403l5.405,3.927l-2.702,3.72l4.372,1.421l-2.064,6.354l-4.373,-1.421l0,4.598l-6.681,-0l0,-4.598l-4.373,1.421l-2.064,-6.354l4.373,-1.421l-2.703,-3.72l5.405,-3.927l2.703,3.72l2.702,-3.72Z" style="fill:none;stroke:#fff;stroke-opacity:0.04;stroke-width:2px;"/><path d="M184.02,213.578c-0,0 -4.75,4.279 -4.75,6.113c0,2.621 2.128,4.749 4.75,4.749c2.621,0 4.749,-2.128 4.749,-4.749c-0,-1.834 -4.749,-6.113 -4.749,-6.113Z" style="fill:none;stroke:#fff;stroke-opacity:0.04;stroke-width:2px;"/><path d="M279.931,234.036c0,-0 -4.143,5.702 -4.143,8.145c0,2.287 1.857,4.143 4.143,4.143c2.287,0 4.143,-1.856 4.143,-4.143c0,-2.443 -4.143,-8.145 -4.143,-8.145Z" style="fill:none;stroke:#fff;stroke-opacity:0.04;stroke-width:2px;"/><path d="M274.561,89.578c-0,0 -4.143,5.702 -4.143,8.146c-0,2.286 1.856,4.143 4.143,4.143c2.286,-0 4.143,-1.857 4.143,-4.143c-0,-2.444 -4.143,-8.146 -4.143,-8.146Z" style="fill:none;stroke:#fff;stroke-opacity:0.04;stroke-width:2px;"/><path d="M266.516,129.701c-0,-0 -3.677,6.013 -3.483,8.449c0.182,2.279 2.18,3.982 4.459,3.801c2.28,-0.182 3.983,-2.18 3.801,-4.46c-0.194,-2.435 -4.777,-7.79 -4.777,-7.79Z" style="fill:none;stroke:#fff;stroke-opacity:0.04;stroke-width:2px;"/><path d="M203.167,284.495c-0,-0 -5.027,3.944 -5.674,6.089c-0.586,1.94 0.514,3.991 2.454,4.576c1.94,0.586 3.991,-0.513 4.577,-2.454c0.647,-2.145 -1.357,-8.211 -1.357,-8.211Z" style="fill:none;stroke:#fff;stroke-opacity:0.04;stroke-width:2px;"/><path d="M144.368,270.837c-0,0 -6.407,5.027 -7.233,7.762c-0.747,2.473 0.655,5.087 3.128,5.834c2.473,0.746 5.087,-0.655 5.834,-3.129c0.826,-2.734 -1.729,-10.467 -1.729,-10.467Z" style="fill:none;stroke:#fff;stroke-opacity:0.04;stroke-width:2px;"/><rect x="264.948" y="-7.147" width="17.301" height="10.295" style="fill:none;stroke:#fff;stroke-opacity:0.04;stroke-width:2px;"/><rect x="264.948" y="292.853" width="17.301" height="10.295" style="fill:none;stroke:#fff;stroke-opacity:0.04;stroke-width:2px;"/></svg>