<?xml version="1.0" encoding="UTF-8" standalone="no"?>
<!-- Created with Inkscape (http://www.inkscape.org/) -->

<svg
   width="44mm"
   height="44mm"
   viewBox="0 0 44 44"
   version="1.1"
   id="svg1232"
   xmlns="http://www.w3.org/2000/svg"
   xmlns:svg="http://www.w3.org/2000/svg">
  <defs
     id="defs1229" />
  <g
     id="layer1"
     transform="translate(-14.029297,-65.218748)">
    <ellipse
       style="fill:#ffffff;fill-opacity:1;stroke:#000000;stroke-width:2;stroke-miterlimit:4.6;stroke-dasharray:none;stroke-opacity:1"
       id="path1353"
       cx="11.512573"
       cy="165.8759"
       rx="53.596043"
       ry="22.702253"
       transform="rotate(-34.399887)" />
    <g
       id="path5998-4">
      <path
         style="color:#000000;fill:#ffffff;stroke-width:4;stroke-miterlimit:4.6"
         d="m 56.030197,87.217934 a 20,20 0 0 1 -20,19.999996 20,20 0 0 1 -20,-19.999996 20,20 0 0 1 20,-20 20,20 0 0 1 20,20 z"
         id="path2234" />
      <path
         style="color:#000000;fill:#000000;stroke-miterlimit:4.6"
         d="m 36.029297,65.21875 c -12.126563,0 -22,9.873437 -22,22 0,12.126563 9.873437,22 22,22 12.126563,0 22,-9.873437 22,-22 0,-12.126563 -9.873437,-22 -22,-22 z m 0,4 c 9.964805,0 18,8.035195 18,18 0,9.964805 -8.035195,18 -18,18 -9.964805,0 -18,-8.035195 -18,-18 0,-9.964805 8.035195,-18 18,-18 z"
         id="path2236" />
    </g>
    <g
       id="path504">
      <path
         style="color:#000000;fill:#050505;fill-opacity:0.450512;stroke-width:4.082;stroke-miterlimit:4.6;-inkscape-stroke:none"
         d="M 54.756268,87.114034 35.530504,87.40257"
         id="path2254" />
      <path
         style="color:#000000;fill:#000000;stroke-miterlimit:4.6;-inkscape-stroke:none"
         d="M 54.726562,85.074219 35.5,85.361328 l 0.06055,4.082031 19.226562,-0.289062 z"
         id="path2256" />
      <g
         id="g2244">
        <g
           id="path2246">
          <path
             style="color:#000000;fill:#000000;fill-rule:evenodd;stroke-width:2.041pt;-inkscape-stroke:none"
             d="m 23.285884,87.586335 c 6.091682,-2.132653 14.193508,-6.336703 18.213793,-10.479498 0,0 0.12251,8.163081 -3.928403,10.265106 4.112168,1.979515 4.234677,10.142595 4.234677,10.142595 -4.142795,-4.020285 -12.36713,-7.979316 -18.520067,-9.928203 z"
             id="path2250" />
          <path
             style="color:#000000;fill:#000000;fill-rule:evenodd;-inkscape-stroke:none"
             d="m 42.810547,73.802734 -2.28711,2.357422 c -3.704417,3.817303 -11.767055,8.069874 -17.6875,10.142578 l -3.851562,1.347657 3.890625,1.232421 c 5.979977,1.894104 14.165119,5.903004 17.982422,9.607422 l 2.357422,2.289066 -0.04883,-3.285159 c 0,0 -0.02714,-2.168731 -0.611329,-4.623047 -0.445647,-1.872281 -1.204942,-4.030207 -2.736328,-5.533203 1.485357,-1.548255 2.179128,-3.726661 2.56836,-5.611329 0.510271,-2.470742 0.472656,-4.640625 0.472656,-4.640625 z M 39.8125,80.298828 c -0.05688,0.424532 0.0057,0.414257 -0.08984,0.876953 -0.4412,2.1363 -1.396021,4.271511 -2.777344,4.988281 l -2.416015,1.253907 2.451172,1.179687 c 1.40221,0.674996 2.420671,2.780246 2.925781,4.902344 0.109295,0.459176 0.04763,0.450769 0.117187,0.873047 -3.818808,-2.825562 -8.713565,-5.113144 -13.328125,-6.837891 4.560959,-1.862551 9.384853,-4.297263 13.117188,-7.236328 z"
             id="path2252" />
        </g>
      </g>
    </g>
  </g>
</svg>
