<?xml version="1.0" encoding="UTF-8" standalone="no"?><!DOCTYPE svg PUBLIC "-//W3C//DTD SVG 1.1//EN" "http://www.w3.org/Graphics/SVG/1.1/DTD/svg11.dtd"><svg width="100%" height="100%" viewBox="0 0 24 97" version="1.1" xmlns="http://www.w3.org/2000/svg" xmlns:xlink="http://www.w3.org/1999/xlink" xml:space="preserve" xmlns:serif="http://www.serif.com/" style="fill-rule:evenodd;clip-rule:evenodd;stroke-linecap:round;stroke-linejoin:round;stroke-miterlimit:1.5;"><path d="M5.572,1.5c0,4.434 -3.284,9.432 -0.044,13.618c1.673,2.162 10.2,3.431 9.106,-1.026c-1.069,-4.356 -5.61,-2.302 -7.579,-0.089c-3.73,4.195 -6.063,10.006 -5.461,15.652c0.64,5.997 4.428,11.642 9.733,14.522c1.524,0.828 5.58,2.42 6.93,0.372c1.381,-2.094 -2.775,-5.067 -4.275,-5.633c-3.61,-1.362 -6.744,1.352 -8.139,4.51c-4.399,9.962 0.272,23.069 11.681,25.374c3.769,0.762 5.671,-2.213 3.054,-5.187c-3.445,-3.915 -10.076,2.331 -12.153,4.803c-6.22,7.402 -8.916,21.705 1.639,26.849" style="fill:none;stroke:#f7e433;stroke-width:3px;"/></svg>